<?xml version="1.0" encoding="utf-8"?>
<!-- Generator: Adobe Illustrator 17.0.0, SVG Export Plug-In . SVG Version: 6.00 Build 0)  -->
<!DOCTYPE svg PUBLIC "-//W3C//DTD SVG 1.1//EN" "http://www.w3.org/Graphics/SVG/1.1/DTD/svg11.dtd">
<svg version="1.1" id="Capa_1" xmlns="http://www.w3.org/2000/svg" xmlns:xlink="http://www.w3.org/1999/xlink" x="0px" y="0px"
	 width="76.543px" height="76.543px" viewBox="0 0 76.543 76.543" enable-background="new 0 0 76.543 76.543" xml:space="preserve">
<path fill="none" stroke="#231F20" stroke-width="3" stroke-linecap="round" stroke-linejoin="round" stroke-miterlimit="10" d="
	M32.142,13.55"/>
<g>
	
		<linearGradient id="SVGID_1_" gradientUnits="userSpaceOnUse" x1="-1480.6263" y1="1287.5931" x2="-1479.73" y2="1372.3018" gradientTransform="matrix(-1 0 0 -1 -1442.0197 1357.543)">
		<stop  offset="0.0105" style="stop-color:#0D1221"/>
		<stop  offset="0.0807" style="stop-color:#0F1527"/>
		<stop  offset="0.6703" style="stop-color:#1D2A57"/>
		<stop  offset="0.9634" style="stop-color:#23326A"/>
	</linearGradient>
	<path fill="url(#SVGID_1_)" d="M76.543,61.356c0,8.388-6.799,15.187-15.187,15.187H15.187C6.8,76.543,0,69.743,0,61.356V15.187
		C0,6.799,6.8,0,15.187,0h46.169c8.388,0,15.187,6.799,15.187,15.187V61.356z"/>
	<circle fill="#FFFFFF" cx="39.311" cy="36.885" r="28.118"/>
	<g>
		<path fill="#4079B5" d="M38.535,66.614c-16.143,0-29.276-13.238-29.276-29.51c0-16.272,13.133-29.51,29.276-29.51
			c16.143,0,29.276,13.238,29.276,29.51C67.811,53.376,54.678,66.614,38.535,66.614z M38.535,11.339
			c-14.078,0-25.531,11.558-25.531,25.765c0,14.207,11.453,25.765,25.531,25.765c14.078,0,25.531-11.558,25.531-25.765
			C64.066,22.897,52.613,11.339,38.535,11.339z"/>
	</g>
	<g>
		<path fill="#EC5D25" d="M38.434,65.53c-15.636,0-28.356-12.72-28.356-28.356c0-5.945,1.82-11.637,5.264-16.46
			c5.318-7.448,13.951-11.896,23.092-11.896c15.636,0,28.356,12.72,28.356,28.356C66.79,52.809,54.07,65.53,38.434,65.53z
			 M38.434,11.055c-8.42,0-16.371,4.096-21.271,10.958c-3.171,4.441-4.848,9.683-4.848,15.16c0,14.402,11.717,26.118,26.118,26.118
			c14.402,0,26.118-11.717,26.118-26.118C64.552,22.772,52.836,11.055,38.434,11.055z"/>
	</g>
	<g>
		<path fill="#1B224D" d="M38.434,64.775c-15.222,0-27.606-12.384-27.606-27.606c0-5.788,1.772-11.33,5.125-16.025
			c5.178-7.252,13.582-11.581,22.481-11.581c15.222,0,27.606,12.384,27.606,27.606C66.041,52.391,53.657,64.775,38.434,64.775z
			 M38.434,11.741c-8.197,0-15.938,3.988-20.708,10.669c-3.088,4.324-4.719,9.427-4.719,14.759
			c0,14.021,11.407,25.428,25.428,25.428s25.428-11.407,25.428-25.428C63.862,23.148,52.455,11.741,38.434,11.741z"/>
	</g>
</g>
<path fill="none" stroke="#1B224D" stroke-width="2" stroke-miterlimit="10" d="M38.271,10.605c0,0-15.974,5.415-15.974,26.449
	s16.136,26.217,16.136,26.217V11.055"/>
<path fill="none" stroke="#BBBFBF" stroke-width="2.5" stroke-miterlimit="10" d="M38.181,11.763c0,0-14.078,8.063-14.078,24.675
	c0,11.324,3.89,19.743,14.078,26.139"/>
<path fill="none" stroke="#BBBFBF" stroke-width="2.5" stroke-miterlimit="10" d="M38.593,11.763c0,0,14.078,8.063,14.078,24.675
	c0,11.324-3.89,19.743-14.078,26.139"/>
<path fill="none" stroke="#1B224D" stroke-width="2" stroke-miterlimit="10" d="M57.335,55.622c0,0-23.101-8.764-36.047,3.017"/>
<path fill="none" stroke="#1B224D" stroke-width="2" stroke-miterlimit="10" d="M18.624,20.171c0,0,21.651,9.747,38.118-1.682"/>
<line fill="none" stroke="#BBBFBF" stroke-width="2.5" stroke-miterlimit="10" x1="12.316" y1="39.383" x2="64.452" y2="39.383"/>
<path fill="none" stroke="#1B224D" stroke-width="2" stroke-miterlimit="10" d="M38.271,10.605c0,0-15.974,5.415-15.974,26.449
	s16.136,26.217,16.136,26.217V11.055"/>
<path fill="none" stroke="#1B224D" stroke-width="2" stroke-miterlimit="10" d="M38.698,10.605c0,0,15.974,5.415,15.974,26.449
	S38.535,63.271,38.535,63.271V11.055"/>
<line fill="none" stroke="#1B224D" stroke-width="2" stroke-miterlimit="10" x1="12.316" y1="37.174" x2="63.877" y2="37.174"/>
<g>
	<path fill="#1B224D" d="M38.434,64.775c-15.222,0-27.606-12.384-27.606-27.606c0-5.788,1.772-11.33,5.125-16.025
		c5.178-7.252,13.582-11.581,22.481-11.581c15.222,0,27.606,12.384,27.606,27.606C66.041,52.391,53.657,64.775,38.434,64.775z
		 M38.434,11.741c-8.197,0-15.938,3.988-20.708,10.669c-3.088,4.324-4.719,9.427-4.719,14.759c0,14.021,11.407,25.428,25.428,25.428
		s25.428-11.407,25.428-25.428C63.862,23.148,52.455,11.741,38.434,11.741z"/>
</g>
</svg>
