<?xml version="1.0" encoding="utf-8"?>
<!-- Generator: Adobe Illustrator 17.0.0, SVG Export Plug-In . SVG Version: 6.00 Build 0)  -->
<!DOCTYPE svg PUBLIC "-//W3C//DTD SVG 1.1//EN" "http://www.w3.org/Graphics/SVG/1.1/DTD/svg11.dtd">
<svg version="1.1" id="Capa_1" xmlns="http://www.w3.org/2000/svg" xmlns:xlink="http://www.w3.org/1999/xlink" x="0px" y="0px"
	 width="76.543px" height="76.543px" viewBox="0 0 76.543 76.543" enable-background="new 0 0 76.543 76.543" xml:space="preserve">
<g>
	<path fill="none" stroke="#1B224D" stroke-width="1.5" stroke-miterlimit="10" d="M63.242-5.31"/>
	<path fill="none" stroke="#1B224D" stroke-width="1.5" stroke-miterlimit="10" d="M52.297-5.31"/>
	
		<linearGradient id="SVGID_1_" gradientUnits="userSpaceOnUse" x1="-1480.6261" y1="1287.7139" x2="-1479.7305" y2="1372.3472" gradientTransform="matrix(-1 0 0 -1 -1442.0197 1357.543)">
		<stop  offset="0.0105" style="stop-color:#0D1221"/>
		<stop  offset="0.0807" style="stop-color:#0F1527"/>
		<stop  offset="0.6703" style="stop-color:#1D2A57"/>
		<stop  offset="0.9634" style="stop-color:#23326A"/>
	</linearGradient>
	<path fill="url(#SVGID_1_)" d="M76.509,61.243c0,8.38-6.793,15.174-15.174,15.174H15.208c-8.38,0-15.174-6.793-15.174-15.174
		V15.115c0-8.38,6.793-15.174,15.174-15.174h46.128c8.38,0,15.174,6.793,15.174,15.174V61.243z"/>
	<path fill="#1B224D" stroke="#1B224D" stroke-width="1.5" stroke-miterlimit="10" d="M58.615,56.083"/>
	<path fill="#1B224D" stroke="#1B224D" stroke-width="1.5" stroke-miterlimit="10" d="M64.776,56.083"/>
	<circle fill="#FFFFFF" cx="38.272" cy="36.577" r="25.429"/>
	<circle fill="#FFFFFF" cx="38.272" cy="36.577" r="25.429"/>
	<g>
		<g>
			<path fill="none" stroke="#4079B5" stroke-width="2" stroke-miterlimit="10" d="M38.272,65.006
				c-15.676,0-28.429-12.753-28.429-28.429S22.596,8.147,38.272,8.147c15.676,0,28.429,12.753,28.429,28.429
				S53.947,65.006,38.272,65.006z M38.272,10.147c-14.573,0-26.429,11.856-26.429,26.429c0,14.573,11.856,26.429,26.429,26.429
				c14.573,0,26.429-11.856,26.429-26.429C64.701,22.003,52.845,10.147,38.272,10.147z M38.272,61.006
				c-13.47,0-24.429-10.959-24.429-24.429s10.959-24.429,24.429-24.429c13.47,0,24.429,10.959,24.429,24.429
				S51.742,61.006,38.272,61.006z M38.272,14.147c-12.368,0-22.429,10.062-22.429,22.429s10.062,22.429,22.429,22.429
				c12.368,0,22.429-10.062,22.429-22.429S50.639,14.147,38.272,14.147z"/>
		</g>
	</g>
	<g>
		<path fill="none" stroke="#EC5D25" stroke-width="2" stroke-miterlimit="10" d="M38.272,64.006
			c-15.124,0-27.429-12.305-27.429-27.429S23.147,9.147,38.272,9.147c15.125,0,27.429,12.305,27.429,27.429
			S53.396,64.006,38.272,64.006z M38.272,13.147c-12.919,0-23.429,10.51-23.429,23.429c0,12.919,10.51,23.429,23.429,23.429
			c12.919,0,23.429-10.51,23.429-23.429C61.701,23.658,51.191,13.147,38.272,13.147z"/>
	</g>
	<circle fill="none" stroke="#1B224D" stroke-width="4" stroke-miterlimit="10" cx="38.272" cy="36.577" r="25.429"/>
	<circle fill="none" stroke="#1B224D" stroke-width="4" stroke-miterlimit="10" cx="38.272" cy="36.577" r="25.429"/>
	<circle fill="#FFFFFF" cx="38.272" cy="36.577" r="25.429"/>
	<circle fill="none" stroke="#BBBFBF" stroke-width="2.5" stroke-miterlimit="10" cx="38.271" cy="36.577" r="20.069"/>
	<circle fill="none" stroke="#BBBFBF" stroke-width="2.5" stroke-miterlimit="10" cx="38.272" cy="36.577" r="9.148"/>
	<circle fill="none" stroke="#1B224D" stroke-width="2.5" stroke-miterlimit="10" cx="38.272" cy="36.577" r="17.498"/>
	<g>
		<path fill="#1B224D" d="M38.272,9.213c-15.124,0-27.429,12.305-27.429,27.429s12.305,27.429,27.429,27.429
			s27.429-12.305,27.429-27.429S53.396,9.213,38.272,9.213z M38.271,62.071c-14.044,0-25.429-11.385-25.429-25.429
			s11.385-25.429,25.429-25.429c14.044,0,25.429,11.385,25.429,25.429S52.315,62.071,38.271,62.071z"/>
	</g>
	<path fill="none" stroke="#1B224D" stroke-width="1.5" stroke-miterlimit="10" d="M52.297,97.656"/>
	<g>
		<g>
			<polygon fill="none" stroke="#FFFFFF" stroke-width="4" stroke-miterlimit="10" points="60.036,15.024 59.946,9.562 
				49.827,19.681 49.827,22.628 37.405,34.995 39.959,37.538 52.348,25.205 55.201,25.143 65.23,15.114 			"/>
		</g>
	</g>
	<g>
		<g>
			<polygon fill="#1B224D" points="60.036,15.024 59.946,9.562 49.827,19.681 49.827,22.628 37.405,34.995 39.959,37.538 
				52.348,25.205 55.201,25.143 65.23,15.114 			"/>
		</g>
	</g>
	<circle fill="#1B224D" cx="38.272" cy="36.577" r="7.981"/>
</g>
</svg>
