<?xml version="1.0" encoding="utf-8"?>
<!-- Generator: Adobe Illustrator 17.0.0, SVG Export Plug-In . SVG Version: 6.00 Build 0)  -->
<!DOCTYPE svg PUBLIC "-//W3C//DTD SVG 1.1//EN" "http://www.w3.org/Graphics/SVG/1.1/DTD/svg11.dtd">
<svg version="1.1" id="Capa_1" xmlns="http://www.w3.org/2000/svg" xmlns:xlink="http://www.w3.org/1999/xlink" x="0px" y="0px"
	 width="76.543px" height="76.543px" viewBox="0 0 76.543 76.543" enable-background="new 0 0 76.543 76.543" xml:space="preserve">
<g>
	
		<linearGradient id="SVGID_1_" gradientUnits="userSpaceOnUse" x1="-1480.6261" y1="1287.6212" x2="-1479.7305" y2="1372.2546" gradientTransform="matrix(-1 0 0 -1 -1442.0197 1357.543)">
		<stop  offset="0.0105" style="stop-color:#0D1221"/>
		<stop  offset="0.0807" style="stop-color:#0F1527"/>
		<stop  offset="0.6703" style="stop-color:#1D2A57"/>
		<stop  offset="0.9634" style="stop-color:#23326A"/>
	</linearGradient>
	<path fill="url(#SVGID_1_)" d="M76.509,61.335c0,8.38-6.793,15.174-15.174,15.174H15.208c-8.38,0-15.174-6.794-15.174-15.174
		V15.208c0-8.38,6.793-15.174,15.174-15.174h46.128c8.38,0,15.174,6.794,15.174,15.174V61.335z"/>
	<g>
		<g>
			<path fill="none" stroke="#4079B5" stroke-width="2" stroke-miterlimit="10" d="M28.878,58.231c-2.875,0-5.497-1.804-6.524-4.488
				L11.168,24.546c-0.668-1.743-0.617-3.641,0.143-5.345c0.76-1.704,2.138-3.011,3.881-3.678L33.52,8.5
				c0.802-0.308,1.643-0.463,2.498-0.463c2.875,0,5.498,1.804,6.525,4.488l11.186,29.196c0.667,1.74,0.615,3.638-0.145,5.344
				c-0.761,1.706-2.139,3.013-3.878,3.68l-18.33,7.022C30.574,58.075,29.733,58.231,28.878,58.231z M36.018,10.037
				c-0.61,0-1.21,0.111-1.783,0.331L15.906,17.39c-1.243,0.477-2.227,1.409-2.77,2.625c-0.542,1.216-0.578,2.571-0.102,3.815
				L24.22,53.027c0.734,1.917,2.605,3.204,4.657,3.204c0.609,0,1.21-0.111,1.784-0.332l18.329-7.021
				c1.24-0.476,2.224-1.409,2.767-2.627s0.58-2.572,0.104-3.813L40.676,13.24C39.942,11.324,38.071,10.037,36.018,10.037z
				 M28.904,54.225c-1.245,0-2.377-0.768-2.816-1.912L14.902,23.115c-0.285-0.746-0.264-1.557,0.062-2.285
				c0.324-0.729,0.913-1.287,1.659-1.573l18.329-7.022c1.504-0.575,3.286,0.233,3.856,1.719l11.187,29.198
				c0.589,1.538-0.183,3.268-1.72,3.857l-18.33,7.022C29.616,54.16,29.264,54.225,28.904,54.225z M36.018,14.037
				c-0.118,0-0.236,0.022-0.352,0.066l-18.329,7.022c-0.25,0.096-0.438,0.275-0.547,0.519c-0.108,0.241-0.115,0.509-0.021,0.756
				l11.186,29.196c0.179,0.464,0.804,0.75,1.272,0.569l18.332-7.023c0.508-0.195,0.763-0.767,0.568-1.275L36.941,14.671
				C36.795,14.291,36.424,14.037,36.018,14.037z"/>
		</g>
	</g>
	<g>
		<path fill="none" stroke="#EC5D25" stroke-width="2" stroke-miterlimit="10" d="M28.878,57.231c-2.463,0-4.71-1.545-5.591-3.846
			L12.101,24.188c-0.572-1.493-0.529-3.119,0.122-4.58c0.651-1.46,1.832-2.58,3.325-3.152l18.329-7.022
			c0.688-0.264,1.408-0.397,2.141-0.397c2.464,0,4.711,1.545,5.592,3.846l11.186,29.197c1.182,3.082-0.365,6.551-3.447,7.732
			l-18.329,7.022C30.331,57.097,29.61,57.231,28.878,57.231z M36.018,13.037c-0.241,0-0.479,0.044-0.709,0.132L16.98,20.191
			c-0.496,0.19-0.888,0.561-1.104,1.046c-0.216,0.484-0.23,1.024-0.041,1.52l11.186,29.197c0.38,0.989,1.56,1.533,2.566,1.144
			l18.329-7.022c1.022-0.392,1.536-1.543,1.145-2.566L37.875,14.313C37.582,13.549,36.836,13.037,36.018,13.037z"/>
	</g>
	<g>
		<path fill="#1B224D" d="M28.878,57.231c-2.463,0-4.71-1.545-5.591-3.846L12.101,24.188c-0.572-1.493-0.529-3.119,0.122-4.58
			c0.651-1.46,1.832-2.58,3.325-3.152l18.329-7.022c0.688-0.264,1.408-0.397,2.141-0.397c2.464,0,4.711,1.545,5.592,3.846
			l11.186,29.197c1.182,3.082-0.365,6.551-3.447,7.732l-18.329,7.022C30.331,57.097,29.61,57.231,28.878,57.231z M36.018,13.037
			c-0.241,0-0.479,0.044-0.709,0.132L16.98,20.191c-0.496,0.19-0.888,0.561-1.104,1.046c-0.216,0.484-0.23,1.024-0.041,1.52
			l11.186,29.197c0.38,0.989,1.56,1.533,2.566,1.144l18.329-7.022c1.022-0.392,1.536-1.543,1.145-2.566L37.875,14.313
			C37.582,13.549,36.836,13.037,36.018,13.037z"/>
	</g>
	<path fill="#FFFFFF" d="M50.928,42.794c0.788,2.056-0.24,4.361-2.296,5.149l-18.329,7.022c-2.056,0.788-4.361-0.241-5.149-2.296
		L13.968,23.473c-0.788-2.056,0.24-4.361,2.296-5.149l18.329-7.022c2.056-0.788,4.361,0.241,5.149,2.296L50.928,42.794z"/>
	<g>
		<path fill="#1B224D" d="M32.94,30.203c1.048,0.298,2.344,0.13,2.905,1.352c0.398,0.866,0.137,1.866-0.574,2.441
			c-0.129,0.104-0.274,0.196-0.431,0.269c-0.527,0.242-1.1,0.241-1.599,0.045c-0.177,0.506-0.551,0.942-1.075,1.184
			c-1.026,0.47-2.24,0.02-2.711-1.005c-0.561-1.219,0.41-2.092,0.867-3.082c0.353-0.765,0.531-1.473,0.626-1.784
			c0.03-0.093,0.051-0.153,0.067-0.163C31.09,29.439,31.885,29.903,32.94,30.203z"/>
		<path fill="#1B224D" d="M35.821,35.247l-1.774,0.816l-1.777,0.815c0,0,0.423-0.453,0.699-1.115
			c0.312-0.744,0.318-1.356,0.318-1.356s0.468,0.395,1.235,0.642C35.204,35.272,35.821,35.247,35.821,35.247z"/>
	</g>
	<path fill="#BBBFBF" d="M49.743,45.439l-18.412,6.927c-2.066,0.777-4.374-0.278-5.155-2.356L15.071,20.496
		c-0.182-0.484-0.256-0.981-0.251-1.468c-0.993,1.079-1.367,2.661-0.813,4.134l11.105,29.514c0.782,2.078,3.09,3.133,5.155,2.356
		l18.412-6.927c1.584-0.596,2.556-2.097,2.575-3.702C50.846,44.846,50.344,45.213,49.743,45.439z"/>
	<g>
		<line fill="none" stroke="#1B224D" stroke-width="4" stroke-miterlimit="10" x1="41.409" y1="60.44" x2="60.326" y2="60.44"/>
		<path fill="none" stroke="#1B224D" stroke-width="4" stroke-miterlimit="10" d="M60.326,61.44H41.409c-0.553,0-1-0.448-1-1
			s0.447-1,1-1h18.917c0.553,0,1,0.448,1,1S60.878,61.44,60.326,61.44z"/>
	</g>
	<g>
		<line fill="none" stroke="#1B224D" stroke-width="4" stroke-miterlimit="10" x1="41.409" y1="56.918" x2="60.326" y2="56.918"/>
		<path fill="none" stroke="#1B224D" stroke-width="4" stroke-miterlimit="10" d="M60.326,57.918H41.409c-0.553,0-1-0.448-1-1
			s0.447-1,1-1h18.917c0.553,0,1,0.448,1,1S60.878,57.918,60.326,57.918z"/>
	</g>
	<g>
		<line fill="none" stroke="#1B224D" stroke-width="4" stroke-miterlimit="10" x1="41.409" y1="53.348" x2="60.326" y2="53.348"/>
		<path fill="none" stroke="#1B224D" stroke-width="4" stroke-miterlimit="10" d="M60.326,54.348H41.409c-0.553,0-1-0.448-1-1
			s0.447-1,1-1h18.917c0.553,0,1,0.448,1,1S60.878,54.348,60.326,54.348z"/>
	</g>
	<g>
		<line fill="none" stroke="#1B224D" stroke-width="4" stroke-miterlimit="10" x1="41.409" y1="50.022" x2="60.326" y2="50.022"/>
		<path fill="none" stroke="#1B224D" stroke-width="4" stroke-miterlimit="10" d="M60.326,51.022H41.409c-0.553,0-1-0.448-1-1
			s0.447-1,1-1h18.917c0.553,0,1,0.448,1,1S60.878,51.022,60.326,51.022z"/>
	</g>
	<g>
		<line fill="#FFFFFF" x1="41.409" y1="60.44" x2="60.326" y2="60.44"/>
		<path fill="#FFFFFF" d="M60.326,61.44H41.409c-0.553,0-1-0.448-1-1s0.447-1,1-1h18.917c0.553,0,1,0.448,1,1
			S60.878,61.44,60.326,61.44z"/>
	</g>
	<g>
		<line fill="#FFFFFF" x1="41.409" y1="56.918" x2="60.326" y2="56.918"/>
		<path fill="#FFFFFF" d="M60.326,57.918H41.409c-0.553,0-1-0.448-1-1s0.447-1,1-1h18.917c0.553,0,1,0.448,1,1
			S60.878,57.918,60.326,57.918z"/>
	</g>
	<g>
		<line fill="#FFFFFF" x1="41.409" y1="53.348" x2="60.326" y2="53.348"/>
		<path fill="#FFFFFF" d="M60.326,54.348H41.409c-0.553,0-1-0.448-1-1s0.447-1,1-1h18.917c0.553,0,1,0.448,1,1
			S60.878,54.348,60.326,54.348z"/>
	</g>
	<g>
		<line fill="#FFFFFF" x1="41.409" y1="50.022" x2="60.326" y2="50.022"/>
		<path fill="#FFFFFF" d="M60.326,51.022H41.409c-0.553,0-1-0.448-1-1s0.447-1,1-1h18.917c0.553,0,1,0.448,1,1
			S60.878,51.022,60.326,51.022z"/>
	</g>
	<polygon fill="#1B224D" points="70.262,17.668 68.764,20.17 70.259,22.674 70.262,22.67 70.265,22.673 71.763,20.172 
		70.267,17.668 70.264,17.671 	"/>
</g>
</svg>
