<?xml version="1.0" encoding="utf-8"?>
<!-- Generator: Adobe Illustrator 17.0.0, SVG Export Plug-In . SVG Version: 6.00 Build 0)  -->
<!DOCTYPE svg PUBLIC "-//W3C//DTD SVG 1.1//EN" "http://www.w3.org/Graphics/SVG/1.1/DTD/svg11.dtd">
<svg version="1.1" id="Capa_1" xmlns="http://www.w3.org/2000/svg" xmlns:xlink="http://www.w3.org/1999/xlink" x="0px" y="0px"
	 width="76.543px" height="76.543px" viewBox="0 0 76.543 76.543" enable-background="new 0 0 76.543 76.543" xml:space="preserve">
<g>
	
		<linearGradient id="SVGID_1_" gradientUnits="userSpaceOnUse" x1="-1480.6261" y1="1287.6212" x2="-1479.7305" y2="1372.2546" gradientTransform="matrix(-1 0 0 -1 -1442.0197 1357.543)">
		<stop  offset="0.0105" style="stop-color:#0D1221"/>
		<stop  offset="0.0807" style="stop-color:#0F1527"/>
		<stop  offset="0.6703" style="stop-color:#1D2A57"/>
		<stop  offset="0.9634" style="stop-color:#23326A"/>
	</linearGradient>
	<path fill="url(#SVGID_1_)" d="M76.509,61.335c0,8.38-6.793,15.174-15.174,15.174H15.208c-8.38,0-15.174-6.794-15.174-15.174
		V15.208c0-8.38,6.793-15.174,15.174-15.174h46.128c8.38,0,15.174,6.794,15.174,15.174V61.335z"/>
	<g>
		<g>
			<path fill="none" stroke="#4079B5" stroke-width="2" stroke-miterlimit="10" d="M65.824,63.201H12.35V9.655h53.474V63.201z
				 M14.35,61.201h49.474V11.655H14.35V61.201z M61.824,59.201H16.35V13.655h45.474V59.201z M18.35,57.201h41.474V15.655H18.35
				V57.201z"/>
		</g>
	</g>
	<g>
		<path fill="none" stroke="#EC5D25" stroke-width="2" stroke-miterlimit="10" d="M64.824,62.201H13.35V10.655h51.474V62.201z
			 M17.35,58.201h43.474V14.655H17.35V58.201z"/>
	</g>
	<g>
		<path fill="#1B224D" d="M64.824,62.201H13.35V10.655h51.474V62.201z M17.35,58.201h43.474V14.655H17.35V58.201z"/>
	</g>
	<rect x="15.351" y="12.655" fill="#FFFFFF" width="47.473" height="47.546"/>
	<line fill="none" stroke="#BBBFBF" stroke-width="2.5" stroke-miterlimit="10" x1="21.621" y1="19.52" x2="17.188" y2="60.201"/>
	<line fill="none" stroke="#BBBFBF" stroke-width="2.5" stroke-miterlimit="10" x1="33.351" y1="19.52" x2="28.918" y2="60.201"/>
	<line fill="none" stroke="#BBBFBF" stroke-width="2.5" stroke-miterlimit="10" x1="50.432" y1="19.52" x2="46" y2="60.201"/>
	<g>
		<polygon fill="#BBBFBF" points="59.069,60.336 56.585,60.065 62.824,12.655 62.824,25.877 		"/>
	</g>
	<g>
		<g>
			<path fill="#1B224D" d="M15.069,60.266l5.853-47.61l1.226-0.001l6.024,47.587L15.069,60.266z M21.546,18.926L16.29,60.238h10.456
				L21.546,18.926z"/>
		</g>
		<g>
			<path fill="#1B224D" d="M26.8,60.246l5.853-47.61l1.226-0.002l6.024,47.588L26.8,60.246z M33.277,18.905l-5.119,41.333h10.394
				L33.277,18.905z"/>
		</g>
		<g>
			<path fill="#1B224D" d="M55.747,60.201L49.72,12.592l13.104-0.024l-5.856,47.63L55.747,60.201z M51.1,12.422l5.246,41.487
				l5.118-41.621L51.1,12.422z"/>
		</g>
		<g>
			<path fill="#1B224D" d="M43.963,60.221l-6.027-47.608l13.104-0.024l-5.856,47.631L43.963,60.221z M39.285,12.422l5.277,41.508
				l5.131-41.508H39.285z"/>
		</g>
		<g>
			<g>
				<path fill="#1B224D" d="M33.346,52.808c-1.754,0.004-3.173,1.427-3.17,3.181c0.003,1.754,1.428,3.172,3.181,3.17
					c1.754-0.004,3.173-1.428,3.169-3.181C36.523,54.224,35.099,52.805,33.346,52.808z"/>
			</g>
		</g>
		<g>
			<g>
				<path fill="#1B224D" d="M21.529,53.117c-1.754,0.003-3.173,1.428-3.169,3.181c0.003,1.754,1.427,3.172,3.181,3.169
					c1.754-0.003,3.173-1.427,3.17-3.181C24.708,54.533,23.283,53.114,21.529,53.117z"/>
			</g>
		</g>
		<g>
			<g>
				<path fill="#1B224D" d="M21.517,45.568c-1.753,0.003-3.172,1.427-3.169,3.181c0.003,1.754,1.427,3.173,3.181,3.17
					c1.754-0.003,3.173-1.427,3.17-3.181C24.695,46.984,23.27,45.565,21.517,45.568z"/>
			</g>
		</g>
		<g>
			<g>
				<path fill="#1B224D" d="M44.494,20.378c1.754-0.003,3.173-1.427,3.17-3.181c-0.004-1.754-1.428-3.173-3.181-3.17
					c-1.754,0.003-3.173,1.427-3.17,3.181C41.316,18.962,42.74,20.381,44.494,20.378z"/>
			</g>
		</g>
		<g>
			<g>
				<path fill="#1B224D" d="M56.271,20.378c1.754-0.003,3.172-1.427,3.169-3.181c-0.003-1.754-1.427-3.173-3.181-3.169
					c-1.754,0.003-3.173,1.427-3.17,3.181C53.093,18.962,54.518,20.381,56.271,20.378z"/>
			</g>
		</g>
		<g>
			<g>
				<path fill="#1B224D" d="M56.284,27.83c1.754-0.003,3.173-1.427,3.17-3.181c-0.004-1.754-1.428-3.173-3.181-3.17
					c-1.754,0.003-3.172,1.427-3.17,3.181C53.106,26.414,54.53,27.833,56.284,27.83z"/>
			</g>
		</g>
	</g>
</g>
</svg>
