<?xml version="1.0" encoding="utf-8"?>
<!-- Generator: Adobe Illustrator 17.0.0, SVG Export Plug-In . SVG Version: 6.00 Build 0)  -->
<!DOCTYPE svg PUBLIC "-//W3C//DTD SVG 1.1//EN" "http://www.w3.org/Graphics/SVG/1.1/DTD/svg11.dtd">
<svg version="1.1" id="Capa_1" xmlns="http://www.w3.org/2000/svg" xmlns:xlink="http://www.w3.org/1999/xlink" x="0px" y="0px"
	 width="76.543px" height="76.543px" viewBox="0 0 76.543 76.543" enable-background="new 0 0 76.543 76.543" xml:space="preserve">
<g>
	
		<linearGradient id="SVGID_1_" gradientUnits="userSpaceOnUse" x1="-1480.6261" y1="1287.6212" x2="-1479.7305" y2="1372.2546" gradientTransform="matrix(-1 0 0 -1 -1442.0197 1357.543)">
		<stop  offset="0.0105" style="stop-color:#0D1221"/>
		<stop  offset="0.0807" style="stop-color:#0F1527"/>
		<stop  offset="0.6703" style="stop-color:#1D2A57"/>
		<stop  offset="0.9634" style="stop-color:#23326A"/>
	</linearGradient>
	<path fill="url(#SVGID_1_)" d="M76.509,61.335c0,8.38-6.794,15.174-15.174,15.174H15.208c-8.38,0-15.174-6.794-15.174-15.174
		V15.208c0-8.38,6.793-15.174,15.174-15.174h46.128c8.38,0,15.174,6.794,15.174,15.174V61.335z"/>
	<path fill="#1B224D" stroke="#1B224D" stroke-width="1.5" stroke-miterlimit="10" d="M56.614,56.176"/>
	<path fill="#1B224D" stroke="#1B224D" stroke-width="1.5" stroke-miterlimit="10" d="M62.776,56.176"/>
	<g>
		<g>
			<g>
				<path fill="none" stroke="#4079B5" stroke-width="2" stroke-miterlimit="10" d="M24.976,64.898
					c-2.461,0-4.752-0.835-6.626-2.415c-2.149-1.81-3.44-4.37-3.634-7.208c-0.191-2.799,0.711-5.537,2.542-7.71l6.556-7.732
					l9.005-27.951c0.743-2.966,2.81-3.652,3.663-3.806c2.572-0.469,4.65,1.484,5.39,2.582c0.176,0.261,0.514,0.765,0.86,2.047
					c2.239,0.323,4.428,1.458,4.786,1.761c0.595,0.5,1.701,2.149,2.36,3.899c1.839,0.354,3.654,1.168,4.249,1.671
					c0.593,0.498,1.7,2.146,2.36,3.899c1.842,0.354,3.659,1.17,4.254,1.675c0.517,0.434,1.879,2.35,2.535,4.401
					c1.339,0.14,1.884,0.386,2.166,0.513c1.201,0.536,3.475,2.244,3.456,4.866c-0.007,0.869-0.332,3.024-3.191,4.289l-25.516,13.35
					l0.021,0.018l-7.011,8.024c-1.804,2.141-4.341,3.486-7.135,3.772C25.702,64.879,25.338,64.898,24.976,64.898z M24.312,42.336
					l-5.527,6.519c-1.492,1.772-2.23,4.004-2.073,6.283c0.156,2.292,1.195,4.357,2.927,5.815c1.733,1.461,3.926,2.128,6.228,1.899
					c2.272-0.233,4.34-1.328,5.819-3.085l5.679-6.5l-0.746-0.626L64.84,37.877c1.701-0.755,2.053-1.775,2.059-2.503
					c0.011-1.46-1.39-2.631-2.275-3.026c-0.207-0.093-0.682-0.307-2.187-0.4l-0.747-0.046l-0.166-0.729
					c-0.438-1.921-1.834-3.807-2.085-4.045c-0.292-0.241-2.078-1.08-3.831-1.31l-0.635-0.083l-0.19-0.611
					c-0.523-1.685-1.649-3.303-1.944-3.557c-0.302-0.249-2.089-1.087-3.842-1.317l-0.635-0.084l-0.189-0.612
					c-0.521-1.683-1.648-3.302-1.943-3.557c-0.178-0.117-2.351-1.26-4.354-1.368l-0.758-0.041l-0.165-0.741
					c-0.32-1.446-0.614-1.884-0.74-2.071c-0.543-0.807-1.937-1.995-3.373-1.729c-0.716,0.129-1.66,0.649-2.098,2.389L24.939,42.86
					L24.312,42.336z M24.978,60.898c-1.492,0-2.91-0.512-4.051-1.474c-1.313-1.105-2.102-2.676-2.221-4.422
					c-0.12-1.759,0.45-3.483,1.606-4.855l4.24-5l9.865,8.263l-0.562,0.664l0.203-0.107l-3.892,4.499
					c-1.148,1.362-2.752,2.218-4.507,2.397C25.433,60.886,25.204,60.898,24.978,60.898z M24.793,47.956l-2.953,3.482
					c-0.818,0.971-1.223,2.189-1.138,3.428c0.082,1.2,0.619,2.276,1.513,3.029c0.895,0.755,2.049,1.104,3.241,0.979
					c1.106-0.113,2.13-0.611,2.923-1.414l3.215-3.808L24.793,47.956z M33.174,52.186l9.404-9.526l-2.66-2.244l-5.723,5.77
					l-2.442-2.021l4.683-6.58l-2.672-2.25l-7.813,10.905l11.194-34.745l1.168,1.106c0.092,0.091,0.164,0.179,0.212,0.249
					l0.056,0.089c0.249,0.458,0.531,1.68,0.737,3.187l0.269,1.976l1.495-1.469l0.374-0.023c0.914-0.05,2.591,0.525,3.209,0.796
					l0.268,0.118l0.162,0.245c0.278,0.42,1.392,2.331,1.342,3.315l-0.199,1.592l1.464-0.439c1.043-0.233,3.112,0.538,3.571,0.74
					l0.269,0.118l0.162,0.245c0.279,0.42,1.394,2.33,1.344,3.316l-0.199,1.592l1.463-0.44c1.181-0.263,3.549,0.729,3.571,0.739
					l0.269,0.118l0.162,0.245c0.381,0.573,1.245,2.142,1.337,3.068l0.032,0.328l-0.97,1.626l1.788-0.023
					c1.803-0.023,2.849,0.101,3.223,0.231c0.17,0.072,0.276,0.132,0.388,0.209l1.356,0.942L33.174,52.186z M39.797,37.698
					l5.725,4.827l-1.928,1.953l16.366-8.562l-4.796,0.061l2.427-4.068c-0.138-0.408-0.46-1.099-0.786-1.644
					c-0.735-0.283-1.717-0.505-1.997-0.518l-4.325,1.301l0.563-4.482c-0.054-0.31-0.449-1.2-0.851-1.87
					c-0.72-0.276-1.682-0.519-1.998-0.519c0,0-0.001,0-0.002,0l-4.322,1.297l0.563-4.479c-0.054-0.31-0.448-1.2-0.851-1.871
					c-0.564-0.218-1.263-0.412-1.69-0.486l-3.751,3.686l-0.709-5.206l-5.655,17.553l1.619-2.259l5.736,4.831l-2.832,3.979
					L39.797,37.698z"/>
			</g>
		</g>
	</g>
	<g>
		<g>
			<path fill="none" stroke="#EC5D25" stroke-width="2" stroke-miterlimit="10" d="M24.976,63.898c-2.2,0-4.294-0.757-5.981-2.179
				l0,0c-1.941-1.634-3.106-3.947-3.28-6.512c-0.174-2.539,0.646-5.025,2.309-6.998l6.17-7.277l0.25,0.209l9.328-28.952
				c0.597-2.374,2.063-2.98,2.889-3.129c1.91-0.348,3.671,1.099,4.382,2.156c0.163,0.243,0.525,0.783,0.887,2.412
				c2.302,0.124,4.732,1.422,4.945,1.602c0.449,0.378,1.677,2.164,2.254,4.026c1.934,0.254,3.901,1.161,4.354,1.544
				c0.451,0.379,1.678,2.165,2.256,4.025c1.935,0.254,3.904,1.163,4.356,1.547c0.354,0.298,1.911,2.413,2.404,4.578
				c1.689,0.104,2.273,0.368,2.533,0.485c1.156,0.516,2.881,1.996,2.867,3.947c-0.007,0.841-0.354,2.39-2.595,3.381L38.405,52.835
				l0.384,0.322l-6.339,7.255c-1.64,1.946-3.95,3.175-6.483,3.435C25.635,63.881,25.305,63.898,24.976,63.898z M24.673,46.551
				l-3.596,4.24c-0.986,1.171-1.476,2.644-1.373,4.143c0.101,1.474,0.764,2.796,1.866,3.725l0.001,0
				c1.103,0.93,2.523,1.36,3.988,1.208c1.495-0.153,2.864-0.885,3.856-2.061l0.433-0.496l-0.075,0.04l3.232-3.82L24.673,46.551z
				 M39.857,39.057l4.192,3.535l-5.666,5.74l25.157-13.161c-0.053-0.037-0.103-0.067-0.146-0.086
				c-0.188-0.066-1.074-0.205-2.881-0.176l-3.575,0.045l1.717-2.877c-0.06-0.599-0.732-1.946-1.175-2.615
				c-0.782-0.344-2.361-0.811-2.881-0.697l-2.934,0.882l0.383-3.044c0.026-0.516-0.705-1.999-1.178-2.711
				c-0.781-0.344-2.372-0.81-2.882-0.697l-2.933,0.88l0.382-3.042c0.026-0.516-0.705-2-1.177-2.711
				c-0.723-0.318-2.146-0.749-2.746-0.713l-2.65,2.604l-0.538-3.952c-0.227-1.661-0.498-2.611-0.625-2.844
				c-0.021-0.03-0.053-0.066-0.092-0.104l-0.012,0.036l-8.733,27.108l4.716-6.582l4.204,3.54l-4.679,6.573l1.022,0.846
				L39.857,39.057z M58.659,32.186C58.659,32.186,58.659,32.186,58.659,32.186L58.659,32.186z M44.514,18.444L44.514,18.444
				L44.514,18.444z"/>
		</g>
	</g>
	<g>
		<g>
			<path fill="#1B224D" d="M24.976,63.898c-2.2,0-4.294-0.757-5.981-2.179l0,0c-1.941-1.634-3.106-3.947-3.28-6.512
				c-0.174-2.539,0.646-5.025,2.309-6.998l6.697-7.929l-0.277,0.861l9.328-28.952c0.597-2.374,2.063-2.98,2.889-3.129
				c1.91-0.348,3.671,1.099,4.382,2.156c0.163,0.243,0.525,0.783,0.887,2.412c2.302,0.124,4.732,1.422,4.945,1.602
				c0.449,0.378,1.677,2.164,2.254,4.026c1.934,0.254,3.901,1.161,4.354,1.544c0.451,0.379,1.678,2.165,2.256,4.025
				c1.935,0.254,3.904,1.163,4.356,1.547c0.354,0.298,1.911,2.413,2.404,4.578c1.689,0.104,2.273,0.368,2.533,0.485
				c1.156,0.516,2.881,1.996,2.867,3.947c-0.007,0.841-0.354,2.39-2.595,3.381L38.405,52.835l1.101-0.576l-7.056,8.153
				c-1.64,1.946-3.95,3.175-6.483,3.435C25.635,63.881,25.305,63.898,24.976,63.898z M24.673,46.551l-3.596,4.24
				c-0.986,1.171-1.476,2.644-1.373,4.143c0.101,1.474,0.764,2.796,1.866,3.725l0.001,0c1.103,0.93,2.523,1.36,3.988,1.208
				c1.495-0.153,2.864-0.885,3.856-2.061l0.433-0.496l-0.075,0.04l3.232-3.82L24.673,46.551z M39.857,39.057l4.192,3.535
				l-5.666,5.74l25.157-13.161c-0.053-0.037-0.103-0.067-0.146-0.086c-0.188-0.066-1.074-0.205-2.881-0.176l-3.575,0.045
				l1.717-2.877c-0.06-0.599-0.732-1.946-1.175-2.615c-0.782-0.344-2.361-0.811-2.881-0.697l-2.934,0.882l0.383-3.044
				c0.026-0.516-0.705-1.999-1.178-2.711c-0.781-0.344-2.372-0.81-2.882-0.697l-2.933,0.88l0.382-3.042
				c0.026-0.516-0.705-2-1.177-2.711c-0.723-0.318-2.146-0.749-2.746-0.713l-2.65,2.604l-0.538-3.952
				c-0.227-1.661-0.498-2.611-0.625-2.844c-0.021-0.03-0.053-0.066-0.092-0.104l-0.012,0.036l-8.733,27.108l4.716-6.582l4.204,3.54
				l-4.679,6.573l1.022,0.846L39.857,39.057z M58.659,32.186C58.659,32.186,58.659,32.186,58.659,32.186L58.659,32.186z
				 M44.514,18.444L44.514,18.444L44.514,18.444z"/>
		</g>
	</g>
	<g>
		<path fill="#FFFFFF" d="M29.428,43.527l-0.207-0.135l4.726-6.596l1.139,0.96L30.4,44.341l3.861,3.198l5.717-5.764l1.128,0.951
			l-5.701,5.775l-0.257-0.154 M36.57,49.545l1.416,1.194L37.9,50.842l26.539-13.883c2.83-1.213,0.86-3.213-0.229-3.7
			c-0.74-0.334-2.608-0.364-3.722-0.35c0.794-1.331-1.415-4.782-1.688-5.012c-0.242-0.205-3.281-1.496-4.765-1.05
			c0.188-1.54-1.6-4.315-1.844-4.52c-0.244-0.205-3.281-1.497-4.767-1.05c0.188-1.539-1.598-4.314-1.844-4.521
			c-0.275-0.232-4.153-1.865-5.272-0.765c-0.151-1.112-0.47-2.978-0.927-3.659c-0.666-0.989-2.97-2.592-3.687,0.403l-9.185,28.507
			l1.496,1.087 M20.282,60.189c3.145,2.651,7.919,2.163,10.663-1.093l5.862-6.738l-11.507-9.637l-5.747,6.777
			C16.809,52.753,17.137,57.539,20.282,60.189z"/>
	</g>
	<g>
		
			<rect x="32.246" y="46.531" transform="matrix(-0.7646 -0.6445 0.6445 -0.7646 28.2312 103.3732)" fill="#BBBFBF" width="1.492" height="0.001"/>
		<path fill="#BBBFBF" d="M43.065,15.949c0.245,0.207,2.158,3.442,1.97,4.981c0.61,0.07,2.39,0.347,2.39,0.347
			c0.023-0.083,0.011-0.328-0.015-0.624c-0.218-1.565-1.614-3.715-1.829-3.896c-0.161-0.136-1.564-0.752-2.921-1.018
			C42.87,15.834,43.019,15.911,43.065,15.949z"/>
		<path fill="#BBBFBF" d="M49.787,21.59c0.245,0.207,2.024,3.359,1.97,4.981c0.61,0.07,2.278,0.276,2.278,0.276
			c0.022-0.083,0.006-0.36-0.02-0.657c-0.218-1.565-1.497-3.613-1.712-3.794c-0.161-0.136-1.563-0.803-2.921-1.068
			C49.593,21.424,49.742,21.552,49.787,21.59z"/>
		<path fill="#BBBFBF" d="M56.294,27.054c0.245,0.207,2.308,3.306,1.983,5.168c0.919,0.317,2.211,0.687,2.211,0.687
			c0.022-0.083,0.254-0.548,0.151-1.152c-0.218-1.565-1.614-3.715-1.829-3.896c-0.161-0.136-1.563-0.752-2.921-1.018
			C56.1,26.938,56.249,27.016,56.294,27.054z"/>
		<path fill="#BBBFBF" d="M36.866,11.526c0.457,0.681,0.939,3.696,1.09,4.808c0,0,1.743-0.317,2.352-0.343
			c-0.175-0.998-0.345-2.906-0.927-3.659c-0.526-0.68-1.808-1.735-2.782-1.136C36.704,11.309,36.796,11.421,36.866,11.526z"/>
	</g>
	<g>
		<polygon fill="#FFFFFF" points="38.703,40.324 37.575,39.373 31.859,45.137 30.585,44.082 30.566,44.108 32.75,45.949 
			33.002,46.099 		"/>
		<polygon fill="#FFFFFF" points="34.433,47.366 34.168,47.143 32.75,45.949 32.745,45.945 30.565,44.108 30.4,44.341 
			34.261,47.539 		"/>
		<polygon fill="#FFFFFF" points="27.025,41.125 26.819,40.99 26.836,40.965 26.65,40.808 26.51,41.242 28.006,42.329 
			29.239,43.368 29.407,43.132 		"/>
		<path fill="#BBBFBF" d="M64.21,33.259c-0.183-0.082-0.435-0.146-0.726-0.195c-0.047,0.528-0.439,1.06-1.447,1.492L35.498,48.439
			l0.086-0.102l-0.009-0.008l-0.17,0.172l-0.252-0.15l1.417,1.194l1.416,1.194L37.9,50.842l26.539-13.883
			C67.269,35.745,65.299,33.745,64.21,33.259z"/>
		<path fill="#BBBFBF" d="M28.542,56.693c-2.498,2.964-6.674,3.625-9.776,1.722c0.398,0.654,0.901,1.256,1.516,1.774
			c3.145,2.651,7.919,2.163,10.663-1.093l4.995-5.717l-1.736-3.2L28.542,56.693z"/>
		<polygon fill="#FFFFFF" points="29.221,43.392 29.428,43.527 35.147,48.348 35.153,48.351 29.239,43.368 		"/>
		<polygon fill="#FFFFFF" points="29.419,43.116 27.997,41.939 32.684,35.354 31.545,34.394 26.836,40.965 29.408,43.132 		"/>
	</g>
	<line fill="none" stroke="#BBBFBF" stroke-width="2.5" stroke-miterlimit="10" x1="24.513" y1="43.682" x2="35.007" y2="52.597"/>
</g>
</svg>
