<?xml version="1.0" encoding="utf-8"?>
<!-- Generator: Adobe Illustrator 17.0.0, SVG Export Plug-In . SVG Version: 6.00 Build 0)  -->
<!DOCTYPE svg PUBLIC "-//W3C//DTD SVG 1.1//EN" "http://www.w3.org/Graphics/SVG/1.1/DTD/svg11.dtd">
<svg version="1.1" id="Capa_1" xmlns="http://www.w3.org/2000/svg" xmlns:xlink="http://www.w3.org/1999/xlink" x="0px" y="0px"
	 width="76.543px" height="76.543px" viewBox="0 0 76.543 76.543" enable-background="new 0 0 76.543 76.543" xml:space="preserve">
<g>
	
		<linearGradient id="SVGID_1_" gradientUnits="userSpaceOnUse" x1="-1480.6261" y1="1287.6212" x2="-1479.7305" y2="1372.2546" gradientTransform="matrix(-1 0 0 -1 -1442.0197 1357.543)">
		<stop  offset="0.0105" style="stop-color:#0D1221"/>
		<stop  offset="0.0807" style="stop-color:#0F1527"/>
		<stop  offset="0.6703" style="stop-color:#1D2A57"/>
		<stop  offset="0.9634" style="stop-color:#23326A"/>
	</linearGradient>
	<path fill="url(#SVGID_1_)" d="M76.509,61.335c0,8.38-6.793,15.174-15.174,15.174H15.208c-8.38,0-15.174-6.794-15.174-15.174
		V15.208c0-8.38,6.793-15.174,15.174-15.174h46.128c8.38,0,15.174,6.793,15.174,15.174V61.335z"/>
	<path fill="none" stroke="#1B224D" stroke-width="1.5" stroke-miterlimit="10" d="M6.759,53.1"/>
	<g>
		<path fill="#1B224D" d="M28.748,57.113l0.364,0.243c2.891,1.934,6.262,2.957,9.748,2.957c7.806,0,14.033-4.523,16.657-12.098
			c3.903-11.272,3.97-25.826,3.965-27.448c-0.003-0.933-0.985-1.56-1.901-1.56h-0.001c0.143,5.104-0.29,12.543-2.766,21.14
			c-0.323,1.121-1.363,1.904-2.529,1.904c-0.247,0-0.493-0.035-0.73-0.103c-0.675-0.194-1.234-0.64-1.574-1.255
			c-0.34-0.616-0.421-1.327-0.226-2.003c2.834-9.837,2.734-18.173,2.374-22.525c-0.359-0.458-0.905-0.732-1.489-0.732l-0.127,0.004
			c-0.366,0.024-0.712,0.155-1.003,0.375c0.567,4.755,0.747,11.864-1.205,20.126c-0.282,1.193-1.335,2.027-2.561,2.027
			c-0.203,0-0.406-0.023-0.604-0.07c-0.686-0.162-1.267-0.58-1.636-1.179c-0.369-0.598-0.484-1.304-0.322-1.989
			c0.887-3.753,1.436-8.451,1.436-10.651l0.005-0.132c0.108-1.565-0.589-7.866-0.712-8.809c-0.142-1.017-1.105-1.766-2.158-1.62
			c-0.192,0.026-0.362,0.08-0.512,0.15c0.533,3.279,1.1,9.342,0.38,18.517c-0.106,1.361-1.259,2.427-2.623,2.427l-0.243-0.011
			c-0.665-0.052-1.302-0.376-1.76-0.911c-0.457-0.535-0.678-1.216-0.622-1.917c0.752-9.599,0-15.52-0.476-18.068
			c-0.741-0.602-1.716-1.035-2.394-1.035c-0.115,0-0.189,0.014-0.231,0.025c-1.019,0.274-1.625,1.326-1.353,2.345
			c0.058,0.217,0.058,0.217,0.148,2.032c0.124,2.501,0.388,7.824,0.836,15.623l0.004,0.065l0,0.065
			c-0.041,3.922-2.293,8.121-6.46,7.893c-3.108-0.163-5.462-2.688-6.588-4.179c-1.451-2.027-3.686-5.224-5.076-7.218
			c-2.735,3.966,1.11,12.004,3.073,15.567C21.563,51.815,27.31,56.107,28.748,57.113z"/>
	</g>
	<path fill="#FFFFFF" d="M61.397,20.761c-0.007-2.108-2.044-3.63-4.148-3.454c-0.605,0.053-1.155,0.255-1.638,0.554
		c0.269,5.121-0.018,12.868-2.636,21.956c-0.091,0.314-0.378,0.519-0.689,0.519c-0.066,0-0.133-0.009-0.199-0.028
		c-0.381-0.11-0.601-0.508-0.491-0.889c2.954-10.254,2.845-18.878,2.401-23.688c-0.69-1.275-2.07-2.107-3.608-2.006
		c-1.214,0.078-2.245,0.724-2.888,1.652c0.593,4.316,0.99,11.657-1.057,20.318c-0.078,0.33-0.373,0.553-0.698,0.553
		c-0.055,0-0.11-0.006-0.165-0.019c-0.386-0.091-0.625-0.478-0.534-0.864c0.901-3.812,1.488-8.692,1.488-11.091
		c0.133-1.933-0.694-8.974-0.725-9.197c-0.292-2.092-2.223-3.549-4.317-3.26c-0.945,0.131-1.749,0.608-2.333,1.272
		c0.555,2.823,1.35,9.004,0.555,19.143c-0.03,0.376-0.344,0.662-0.715,0.662c-0.019,0-0.038,0-0.057-0.002
		c-0.395-0.031-0.691-0.376-0.66-0.772c0.826-10.533-0.111-16.758-0.628-19.204c-1.284-1.321-3.41-2.267-4.878-1.873
		c-2.041,0.548-3.251,2.647-2.706,4.688c0.019,0.072,0.284,6.162,0.922,17.271c-0.03,2.875-1.57,6.152-4.446,6.001
		c-2.414-0.126-4.396-2.411-5.16-3.421c-2.21-3.089-6.284-8.956-6.284-8.956c-5.145,3.23-3.47,11.127,1.077,19.383
		c4.547,8.256,11.869,12.943,11.869,12.943l-0.001-0.005c3.094,2.07,6.811,3.28,10.813,3.28c8.625,0,15.594-5.093,18.466-13.386
		C61.397,37.082,61.401,22.241,61.397,20.761z"/>
	<g>
		<g>
			<path fill="none" stroke="#4079B5" stroke-width="2" stroke-miterlimit="10" d="M38.86,65.141c-2.949,0-5.817-0.566-8.525-1.684
				c-0.303-0.094-9.247-3.104-16.699-16.027C7.36,36.548,7.33,28.065,13.553,24.158l2.356-1.48l1.586,2.285
				c1.034,1.487,4.374,6.284,6.261,8.923c0.945,1.249,2.162,2.165,2.943,2.207c0.568-0.002,1.344-1.371,1.377-3.07
				c-0.445-7.704-0.708-13.016-0.832-15.515l-0.068-1.345c-0.762-3.523,1.351-6.997,4.843-7.935c1.94-0.521,4.511,0.137,6.524,1.615
				c0.78-0.475,1.648-0.787,2.548-0.911c2.524-0.344,4.909,0.721,6.349,2.677c0.871-0.481,1.816-0.752,2.782-0.792
				c3.505-0.15,5.442,2.215,6.242,3.666c0.526-0.08,1.025-0.104,1.117-0.104c3.699,0,6.718,2.859,6.73,6.373
				c0.009,2.784-0.153,17.264-4.231,29.043C56.801,59.261,48.67,65.141,38.86,65.141z M15.356,25.387l-0.739,0.464
				c-5.186,3.256-4.912,10.758,0.752,20.58c7.071,12.263,15.57,15.123,15.655,15.15c2.539,1.044,5.151,1.56,7.836,1.56
				c8.932,0,16.338-5.365,19.33-14.001c3.972-11.474,4.13-25.656,4.121-28.382c-0.008-2.415-2.13-4.38-4.73-4.38
				c-0.209,0.003-1.038,0.083-1.318,0.189l-1.221,0.461l-0.114-1.162c-0.217-0.508-1.454-3.058-4.394-3.058l-0.227,0.005
				c-0.899,0.038-1.784,0.376-2.558,0.98l-0.954,0.744l-0.551-1.077c-0.919-1.795-2.834-2.834-4.878-2.55
				c-0.812,0.112-1.588,0.444-2.246,0.96l-0.649,0.51l-0.624-0.54c-1.58-1.369-3.828-2.082-5.309-1.684
				c-2.477,0.665-3.968,3.144-3.392,5.644l0.024,0.168l0.073,1.438c0.123,2.496,0.386,7.803,0.832,15.576
				c-0.046,2.515-1.264,5.106-3.426,5.106c-2.147-0.112-3.988-2.34-4.503-3.02c-1.91-2.67-5.256-7.477-6.237-8.887L15.356,25.387z
				 M38.86,61.312c-3.685,0-7.248-1.081-10.305-3.125l-0.363-0.242c-1.691-1.184-7.444-5.537-11.212-12.378
				c-2.401-4.36-5.986-12.316-3.02-16.618l0.819-1.188l0.825,1.184c1.387,1.99,3.62,5.184,5.068,7.207
				c1.006,1.332,3.123,3.621,5.827,3.763c0.093,0.005,0.183,0.007,0.271,0.007c3.289,0,5.102-3.562,5.136-6.912
				c-0.449-7.866-0.713-13.192-0.837-15.694c-0.08-1.612-0.086-1.715-0.115-1.822c-0.415-1.553,0.509-3.154,2.06-3.57
				c0.869-0.231,2.385,0.283,3.515,1.2l0.285,0.232l0.067,0.361c0.507,2.711,1.245,8.698,0.49,18.33
				c-0.035,0.436,0.102,0.858,0.385,1.189c0.279,0.327,0.671,0.533,1.077,0.564l0.211,0.009c0.8-0.001,1.515-0.662,1.58-1.505
				c0.7-8.922,0.186-14.865-0.37-18.279l-0.122-0.75l0.689-0.319c0.252-0.117,0.52-0.195,0.795-0.233
				c1.596-0.219,3.068,0.917,3.285,2.473c0.076,0.576,0.84,7.268,0.719,9.016l-0.003,0.1c0.001,2.219-0.559,7.021-1.462,10.844
				c-0.1,0.424-0.029,0.862,0.2,1.233c0.229,0.371,0.589,0.63,1.015,0.731c0.858,0.203,1.758-0.35,1.962-1.213
				c1.947-8.239,1.72-15.303,1.186-19.777l-0.068-0.57l0.458-0.346c0.449-0.34,0.982-0.539,1.54-0.576l0.157-0.006
				c0.001,0,0.002,0,0.002,0c0.925,0,1.753,0.406,2.309,1.115l0.185,0.236l0.025,0.299c0.349,4.214,0.499,12.79-2.41,22.885
				c-0.121,0.419-0.071,0.86,0.14,1.242c0.211,0.381,0.558,0.658,0.976,0.778c0.835,0.243,1.779-0.272,2.021-1.116
				c2.494-8.657,2.86-16.108,2.728-20.835l-0.029-1.028h1.028c1.392,0,2.897,0.978,2.901,2.557
				c0.005,1.638-0.061,16.343-4.02,27.777C53.692,56.538,47.112,61.312,38.86,61.312z M14.993,31.566
				c-0.62,2.833,0.7,7.518,3.739,13.037c3.56,6.463,9.005,10.583,10.589,11.691l0.346,0.23c2.727,1.825,5.906,2.789,9.193,2.789
				c7.36,0,13.234-4.271,15.712-11.425c2.173-6.276,3.14-13.593,3.569-19.065c-0.408,3.534-1.135,7.526-2.367,11.802
				c-0.445,1.546-1.88,2.626-3.49,2.626c-0.344,0-0.683-0.048-1.009-0.143c-0.929-0.268-1.7-0.883-2.17-1.732
				c-0.47-0.851-0.581-1.832-0.311-2.765c2.739-9.508,2.681-17.615,2.366-21.807c-0.151-0.112-0.333-0.173-0.521-0.173l-0.053,0.002
				c0.488,4.655,0.602,11.649-1.309,19.733c-0.389,1.646-1.842,2.797-3.534,2.797c-0.282,0-0.563-0.033-0.835-0.097
				c-0.945-0.223-1.747-0.8-2.257-1.626c-0.509-0.826-0.667-1.8-0.444-2.744c0.871-3.683,1.409-8.277,1.409-10.421l0.005-0.169
				c0.098-1.431-0.542-7.399-0.704-8.642c-0.042-0.301-0.253-0.561-0.53-0.687c0.502,3.637,0.876,9.429,0.229,17.683
				c-0.147,1.877-1.736,3.348-3.62,3.348l-0.289-0.012c-0.962-0.075-1.852-0.533-2.474-1.261c-0.63-0.737-0.936-1.677-0.859-2.646
				c0.703-8.968,0.089-14.649-0.393-17.423c-0.558-0.379-1.159-0.6-1.48-0.6c-0.459,0.121-0.749,0.624-0.618,1.112
				c0.086,0.319,0.086,0.319,0.181,2.241c0.124,2.499,0.388,7.82,0.835,15.616l0.005,0.129c-0.046,4.498-2.704,9.212-7.515,8.949
				c-3.51-0.184-6.1-2.945-7.331-4.575C17.918,35.741,16.307,33.446,14.993,31.566z"/>
		</g>
	</g>
	<g>
		<path fill="none" stroke="#EC5D25" stroke-width="2" stroke-miterlimit="10" d="M38.86,64.141c-2.82,0-5.577-0.549-8.144-1.608
			c0,0-8.869-2.864-16.214-15.602c-6.064-10.516-6.004-18.42-0.418-21.928l1.548-0.972l1.042,1.501
			c0.041,0.058,4.091,5.891,6.268,8.934c0.909,1.202,2.382,2.554,3.704,2.624c0,0,0.001,0,0.001,0c1.449,0,2.39-2.082,2.428-4.049
			c-0.446-7.777-0.709-13.087-0.833-15.584c-0.035-0.723-0.059-1.202-0.072-1.431c-0.689-2.995,1.119-6.031,4.108-6.834
			c1.867-0.502,4.389,0.305,6.223,1.893c0.793-0.623,1.733-1.028,2.727-1.165c2.516-0.347,4.831,0.988,5.905,3.085
			c0.893-0.697,1.974-1.142,3.131-1.191c4.197-0.175,5.643,3.791,5.645,3.817c0.473-0.179,1.495-0.253,1.672-0.253
			c3.15,0,5.72,2.412,5.729,5.376c0.009,2.756-0.152,17.09-4.176,28.713C56,58.519,48.231,64.141,38.86,64.141z M28.748,57.113
			l0.364,0.243c2.891,1.934,6.262,2.957,9.748,2.957c7.806,0,14.033-4.523,16.657-12.098c3.903-11.272,3.97-25.826,3.965-27.448
			c-0.003-0.933-0.985-1.56-1.901-1.56h-0.001c0.143,5.104-0.29,12.543-2.766,21.14c-0.323,1.121-1.363,1.904-2.529,1.904
			c-0.247,0-0.493-0.035-0.73-0.103c-0.675-0.194-1.234-0.64-1.574-1.255c-0.34-0.616-0.421-1.327-0.226-2.003
			c2.834-9.837,2.734-18.173,2.374-22.525c-0.359-0.458-0.905-0.732-1.489-0.732l-0.127,0.004c-0.366,0.024-0.712,0.155-1.003,0.375
			c0.567,4.755,0.747,11.864-1.205,20.126c-0.282,1.193-1.335,2.027-2.561,2.027c-0.203,0-0.406-0.023-0.604-0.07
			c-0.686-0.162-1.267-0.58-1.636-1.179c-0.369-0.598-0.484-1.304-0.322-1.989c0.887-3.753,1.436-8.451,1.436-10.651l0.005-0.132
			c0.108-1.565-0.589-7.866-0.712-8.809c-0.142-1.017-1.105-1.766-2.158-1.62c-0.192,0.026-0.362,0.08-0.512,0.15
			c0.533,3.279,1.1,9.342,0.38,18.517c-0.106,1.361-1.259,2.427-2.623,2.427l-0.243-0.011c-0.665-0.052-1.302-0.376-1.76-0.911
			c-0.457-0.535-0.678-1.216-0.622-1.917c0.752-9.599,0-15.52-0.476-18.068c-0.741-0.602-1.716-1.035-2.394-1.035
			c-0.115,0-0.189,0.014-0.231,0.025c-1.019,0.274-1.625,1.326-1.353,2.345c0.058,0.217,0.058,0.217,0.148,2.032
			c0.124,2.501,0.388,7.824,0.836,15.623l0.004,0.065l0,0.065c-0.041,3.922-2.293,8.121-6.46,7.893
			c-3.108-0.163-5.462-2.688-6.588-4.179c-1.451-2.027-3.686-5.224-5.076-7.218c-2.735,3.966,1.11,12.004,3.073,15.567
			C21.563,51.815,27.31,56.107,28.748,57.113z"/>
	</g>
	<g>
		<path fill="#1B224D" d="M38.86,64.141c-2.82,0-5.577-0.549-8.144-1.608c0,0-8.869-2.864-16.214-15.602
			c-6.064-10.516-6.004-18.42-0.418-21.928l1.548-0.972l1.042,1.501c0.041,0.058,4.091,5.891,6.268,8.934
			c0.909,1.202,2.382,2.554,3.704,2.624c0,0,0.001,0,0.001,0c1.449,0,2.39-2.082,2.428-4.049
			c-0.446-7.777-0.709-13.087-0.833-15.584c-0.035-0.723-0.059-1.202-0.072-1.431c-0.689-2.995,1.119-6.031,4.108-6.834
			c1.867-0.502,4.389,0.305,6.223,1.893c0.793-0.623,1.733-1.028,2.727-1.165c2.516-0.347,4.831,0.988,5.905,3.085
			c0.893-0.697,1.974-1.142,3.131-1.191c4.197-0.175,5.643,3.791,5.645,3.817c0.473-0.179,1.495-0.253,1.672-0.253
			c3.15,0,5.72,2.412,5.729,5.376c0.009,2.756-0.152,17.09-4.176,28.713C56,58.519,48.231,64.141,38.86,64.141z M28.748,57.113
			l0.364,0.243c2.891,1.934,6.262,2.957,9.748,2.957c7.806,0,14.033-4.523,16.657-12.098c3.903-11.272,3.97-25.826,3.965-27.448
			c-0.003-0.933-0.985-1.56-1.901-1.56h-0.001c0.143,5.104-0.29,12.543-2.766,21.14c-0.323,1.121-1.363,1.904-2.529,1.904
			c-0.247,0-0.493-0.035-0.73-0.103c-0.675-0.194-1.234-0.64-1.574-1.255c-0.34-0.616-0.421-1.327-0.226-2.003
			c2.834-9.837,2.734-18.173,2.374-22.525c-0.359-0.458-0.905-0.732-1.489-0.732l-0.127,0.004c-0.366,0.024-0.712,0.155-1.003,0.375
			c0.567,4.755,0.747,11.864-1.205,20.126c-0.282,1.193-1.335,2.027-2.561,2.027c-0.203,0-0.406-0.023-0.604-0.07
			c-0.686-0.162-1.267-0.58-1.636-1.179c-0.369-0.598-0.484-1.304-0.322-1.989c0.887-3.753,1.436-8.451,1.436-10.651l0.005-0.132
			c0.108-1.565-0.589-7.866-0.712-8.809c-0.142-1.017-1.105-1.766-2.158-1.62c-0.192,0.026-0.362,0.08-0.512,0.15
			c0.533,3.279,1.1,9.342,0.38,18.517c-0.106,1.361-1.259,2.427-2.623,2.427l-0.243-0.011c-0.665-0.052-1.302-0.376-1.76-0.911
			c-0.457-0.535-0.678-1.216-0.622-1.917c0.752-9.599,0-15.52-0.476-18.068c-0.741-0.602-1.716-1.035-2.394-1.035
			c-0.115,0-0.189,0.014-0.231,0.025c-1.019,0.274-1.625,1.326-1.353,2.345c0.058,0.217,0.058,0.217,0.148,2.032
			c0.124,2.501,0.388,7.824,0.836,15.623l0.004,0.065l0,0.065c-0.041,3.922-2.293,8.121-6.46,7.893
			c-3.108-0.163-5.462-2.688-6.588-4.179c-1.451-2.027-3.686-5.224-5.076-7.218c-2.735,3.966,1.11,12.004,3.073,15.567
			C21.563,51.815,27.31,56.107,28.748,57.113z"/>
	</g>
	<g>
		<path fill="none" d="M57.582,19.207L57.582,19.207c0.142,5.104-0.291,12.543-2.767,21.14c-0.323,1.121-1.363,1.904-2.529,1.904
			c-0.247,0-0.493-0.035-0.73-0.103c-0.675-0.194-1.234-0.64-1.574-1.255c-0.34-0.616-0.421-1.327-0.226-2.003
			c2.834-9.837,2.734-18.173,2.374-22.525c-0.36-0.458-0.905-0.732-1.489-0.732l-0.127,0.004c-0.366,0.024-0.712,0.155-1.003,0.375
			c0.568,4.755,0.747,11.864-1.205,20.125c-0.282,1.193-1.335,2.027-2.561,2.027c-0.203,0-0.406-0.023-0.604-0.07
			c-0.686-0.162-1.267-0.58-1.636-1.179c-0.369-0.598-0.484-1.304-0.322-1.989c0.887-3.753,1.436-8.451,1.436-10.651l0.005-0.132
			c0.108-1.565-0.589-7.866-0.712-8.809c-0.142-1.017-1.105-1.766-2.158-1.62c-0.192,0.026-0.362,0.08-0.512,0.15
			c0.533,3.279,1.1,9.342,0.38,18.517c-0.106,1.361-1.259,2.426-2.623,2.426l-0.243-0.011c-0.665-0.052-1.302-0.376-1.76-0.911
			c-0.457-0.535-0.678-1.216-0.622-1.917c0.752-9.599,0-15.52-0.476-18.068c-0.741-0.602-1.716-1.035-2.394-1.035
			c-0.115,0-0.189,0.014-0.231,0.025c-1.019,0.273-1.625,1.326-1.353,2.345c0.058,0.217,0.058,0.217,0.148,2.032
			c0.124,2.5,0.388,7.824,0.836,15.623l0.004,0.065l0,0.065c-0.041,3.922-2.293,8.121-6.46,7.893
			c-3.108-0.163-5.462-2.688-6.588-4.179c-1.451-2.027-3.686-5.224-5.076-7.218c-2.734,3.966,1.11,12.004,3.073,15.567
			c3.706,6.73,9.454,11.022,10.892,12.028l0.364,0.243c2.891,1.934,6.262,2.957,9.748,2.957c7.806,0,14.033-4.523,16.657-12.098
			c3.903-11.272,3.97-25.826,3.965-27.448C59.48,19.834,58.497,19.207,57.582,19.207z"/>
		<path fill="#1B224D" d="M63.311,20.755c-0.009-2.965-2.58-5.376-5.729-5.376c-0.178,0-1.199,0.074-1.672,0.253
			c-0.002-0.025-1.448-3.992-5.645-3.817c-1.157,0.048-2.238,0.494-3.131,1.191c-1.074-2.097-3.389-3.432-5.905-3.085
			c-0.994,0.137-1.934,0.543-2.727,1.165c-1.833-1.588-4.356-2.395-6.223-1.893c-2.989,0.802-4.797,3.839-4.108,6.834
			c0.013,0.229,0.037,0.708,0.072,1.431c0.124,2.498,0.387,7.807,0.833,15.584c-0.039,1.967-0.98,4.049-2.428,4.049
			c0,0-0.001,0-0.001,0c-1.321-0.07-2.794-1.422-3.704-2.624c-2.177-3.043-6.228-8.875-6.268-8.934l-1.042-1.501l-1.548,0.972
			c-5.586,3.508-5.646,11.412,0.418,21.928c7.345,12.738,16.214,15.602,16.214,15.602c2.566,1.059,5.324,1.608,8.144,1.608
			c9.371,0,17.14-5.622,20.275-14.674C63.159,37.844,63.32,23.51,63.311,20.755z M55.517,48.215
			c-2.624,7.575-8.851,12.098-16.657,12.098c-3.487,0-6.857-1.023-9.748-2.957l-0.364-0.243c-1.438-1.006-7.185-5.298-10.892-12.028
			c-1.963-3.563-5.807-11.602-3.073-15.567c1.39,1.993,3.625,5.191,5.076,7.218c1.126,1.491,3.479,4.016,6.588,4.179
			c4.166,0.229,6.419-3.971,6.46-7.893l0-0.065l-0.004-0.065c-0.448-7.799-0.712-13.123-0.836-15.623
			c-0.09-1.815-0.09-1.815-0.148-2.032c-0.273-1.02,0.334-2.072,1.353-2.345c0.042-0.011,0.116-0.025,0.231-0.025
			c0.678,0,1.653,0.433,2.394,1.035c0.476,2.548,1.228,8.469,0.476,18.068c-0.056,0.701,0.166,1.382,0.622,1.917
			c0.457,0.535,1.095,0.859,1.76,0.911l0.243,0.011c1.364,0,2.517-1.066,2.623-2.426c0.72-9.175,0.153-15.239-0.38-18.517
			c0.15-0.07,0.32-0.124,0.512-0.15c1.053-0.146,2.016,0.602,2.158,1.62c0.123,0.942,0.82,7.243,0.712,8.809l-0.005,0.132
			c0,2.2-0.549,6.897-1.436,10.651c-0.162,0.684-0.047,1.39,0.322,1.989c0.37,0.598,0.95,1.017,1.636,1.179
			c0.198,0.047,0.401,0.07,0.604,0.07c1.226,0,2.279-0.834,2.561-2.027c1.953-8.262,1.773-15.37,1.205-20.125
			c0.291-0.22,0.636-0.351,1.003-0.375l0.127-0.004c0.584,0,1.13,0.274,1.489,0.732c0.36,4.353,0.46,12.689-2.374,22.525
			c-0.195,0.676-0.115,1.387,0.226,2.003c0.34,0.615,0.899,1.061,1.574,1.255c0.237,0.069,0.483,0.103,0.73,0.103
			c1.166,0,2.206-0.783,2.529-1.904c2.477-8.597,2.91-16.036,2.766-21.14h0.001c0.916,0,1.898,0.627,1.901,1.56
			C59.487,22.389,59.42,36.943,55.517,48.215z"/>
	</g>
	<path fill="#FFFFFF" d="M61.397,20.761c-0.007-2.108-2.044-3.63-4.148-3.454c-0.605,0.053-1.155,0.255-1.638,0.554
		c0.269,5.121-0.018,12.868-2.636,21.956c-0.091,0.314-0.378,0.519-0.689,0.519c-0.066,0-0.133-0.009-0.199-0.028
		c-0.381-0.11-0.601-0.508-0.491-0.889c2.954-10.254,2.845-18.878,2.401-23.688c-0.69-1.275-2.07-2.107-3.608-2.006
		c-1.214,0.078-2.245,0.724-2.888,1.652c0.593,4.316,0.99,11.657-1.057,20.318c-0.078,0.33-0.373,0.553-0.698,0.553
		c-0.055,0-0.11-0.006-0.165-0.019c-0.386-0.091-0.625-0.478-0.534-0.864c0.901-3.812,1.488-8.692,1.488-11.091
		c0.133-1.933-0.694-8.974-0.725-9.197c-0.292-2.092-2.223-3.549-4.317-3.26c-0.945,0.131-1.749,0.608-2.333,1.272
		c0.555,2.823,1.35,9.004,0.555,19.143c-0.03,0.376-0.344,0.662-0.715,0.662c-0.019,0-0.038,0-0.057-0.002
		c-0.395-0.031-0.691-0.376-0.66-0.772c0.826-10.533-0.111-16.758-0.628-19.204c-1.284-1.321-3.41-2.267-4.878-1.873
		c-2.041,0.548-3.251,2.647-2.706,4.688c0.019,0.072,0.284,6.162,0.922,17.271c-0.03,2.875-1.57,6.152-4.446,6.001
		c-2.414-0.126-4.396-2.411-5.16-3.421c-2.21-3.089-6.284-8.956-6.284-8.956c-5.145,3.23-3.47,11.127,1.077,19.383
		c4.547,8.256,11.869,12.943,11.869,12.943l-0.001-0.005c3.094,2.07,6.811,3.28,10.813,3.28c8.625,0,15.594-5.093,18.466-13.386
		C61.397,37.082,61.401,22.241,61.397,20.761z"/>
	<g>
		<path fill="#BBBFBF" d="M61.397,20.761c-0.007-2.108-2.044-3.63-4.148-3.454c-0.139,0.012-1.504,0.527-1.638,0.554
			c1.3-0.199,3.166-0.192,3.118,2.354c-0.026,1.397,0.001,15.414-4.017,26.519c-2.833,7.832-9.71,12.642-18.22,12.642
			c-3.949,0-7.617-1.143-10.67-3.098l0.001,0.004c0,0-2.736-1.681-5.884-4.785c3.981,4.811,8.109,7.454,8.109,7.454l-0.001-0.005
			c3.094,2.07,6.811,3.28,10.813,3.28c8.625,0,15.594-5.093,18.466-13.386C61.397,37.082,61.401,22.241,61.397,20.761z"/>
	</g>
	<path fill="#FFFFFF" d="M19.811,23.743c0,0,5.642,9.108,6.045,9.269c0.403,0.161-0.645-11.606-0.645-11.606
		S21.6,20.017,19.811,23.743z"/>
	<g>
		<path fill="#BBBFBF" d="M38.62,32.783c0,0-1.601-0.984-2-1.172c-0.399-0.189-0.542-0.959-0.504-1.287
			c1.06-8.975,0.142-15.221-0.432-16.432c-0.317-0.668-1.385-1.75-2.671-1.948c-1.047-0.16-2.085,0.304-3.086,1.381l-1.125-1.455
			c1.992-2.146,3.272-2.599,4.591-2.397c2.099,0.323,3.878,1.929,4.55,3.348C38.906,14.855,39.854,23.402,38.62,32.783z"/>
	</g>
	<g>
		<path fill="#BBBFBF" d="M45.579,36.229c0,0-1.226-0.581-1.89-0.94c-0.664-0.359-0.587-1.264-0.508-1.696
			c2.022-11.093,0.833-17.13,0.229-18.404c-0.33-0.696-1.168-1.915-2.221-2.078c-0.751-0.111-1.613,0.338-2.552,1.35l-1.833-1.7
			c1.537-1.657,3.14-2.37,4.765-2.121c1.95,0.3,3.396,1.993,4.1,3.477C46.628,16.142,47.999,24.024,45.579,36.229z"/>
	</g>
	<g>
		<path fill="#BBBFBF" d="M51.822,40.163c0,0-0.615-0.601-1.336-1.163c-1.009-0.982-0.696-2.077-0.573-2.672
			c2.717-13.162,2.484-18.269,2.115-19.048c-0.364-0.768-1.307-1.972-2.416-2.143c-0.801-0.123-1.685,0.32-2.614,1.322l-1.833-1.7
			c1.903-2.051,3.677-2.269,4.827-2.093c2.083,0.321,3.616,2.109,4.295,3.544C55.428,18.619,54.293,28.674,51.822,40.163z"/>
	</g>
	<g>
		<path fill="#1B224D" d="M63.311,20.755c-0.009-2.965-2.58-5.376-5.729-5.376c-0.178,0-1.199,0.074-1.672,0.253
			c-0.002-0.025-1.448-3.992-5.645-3.817c-1.157,0.048-2.238,0.494-3.131,1.191c-1.074-2.097-3.389-3.432-5.905-3.085
			c-0.994,0.137-1.934,0.543-2.727,1.165c-1.833-1.588-4.356-2.395-6.223-1.893c-2.989,0.802-4.797,3.839-4.108,6.834
			c0.013,0.229,0.037,0.708,0.072,1.431c0.124,2.498,0.387,7.807,0.833,15.584c-0.039,1.967-0.98,4.049-2.428,4.049
			c0,0-0.001,0-0.001,0c-1.321-0.07-2.794-1.422-3.704-2.624c-2.177-3.043-6.228-8.875-6.268-8.934l-1.042-1.501l-1.548,0.972
			c-5.586,3.508-5.646,11.412,0.418,21.928c7.345,12.738,16.214,15.602,16.214,15.602c2.566,1.059,5.324,1.608,8.144,1.608
			c9.371,0,17.14-5.622,20.275-14.674C63.159,37.844,63.32,23.51,63.311,20.755z M57.326,48.841
			c-2.872,8.293-9.841,13.386-18.466,13.386c-4.002,0-7.719-1.21-10.813-3.28l0.001,0.005c0,0-7.322-4.688-11.869-12.943
			c-4.547-8.256-6.222-16.152-1.077-19.383c0,0,4.046,6.126,6.256,9.215c0.764,1.01,2.773,3.036,5.187,3.162
			c2.876,0.15,4.416-3.127,4.446-6.001c-0.638-11.109-0.903-17.199-0.922-17.271c-0.545-2.041,0.665-4.14,2.706-4.688
			c1.468-0.394,3.594,0.552,4.878,1.873c0.517,2.446,1.454,8.671,0.628,19.204c-0.031,0.395,0.264,0.741,0.66,0.772
			c0.019,0.002,0.038,0.002,0.057,0.002c0.371,0,0.685-0.285,0.715-0.662c0.795-10.138,0-16.32-0.555-19.143
			c0.585-0.664,1.388-1.141,2.333-1.272c2.095-0.289,4.025,1.168,4.317,3.26c0.031,0.223,0.858,7.265,0.725,9.197
			c0,2.399-0.587,7.279-1.488,11.091c-0.091,0.386,0.148,0.773,0.534,0.864c0.056,0.013,0.111,0.019,0.165,0.019
			c0.325,0,0.62-0.222,0.698-0.553c2.047-8.661,1.65-16.002,1.057-20.318c0.643-0.928,1.674-1.574,2.888-1.652
			c1.539-0.101,2.918,0.731,3.608,2.006c0.444,4.811,0.553,13.434-2.401,23.688c-0.11,0.381,0.11,0.779,0.491,0.889
			c0.066,0.019,0.133,0.028,0.199,0.028c0.312,0,0.599-0.205,0.689-0.519c2.618-9.088,2.905-16.836,2.636-21.956
			c0.483-0.299,1.033-0.5,1.638-0.554c2.105-0.177,4.142,1.345,4.148,3.454C61.401,22.241,61.397,37.082,57.326,48.841z"/>
	</g>
</g>
</svg>
