<?xml version="1.0" encoding="utf-8"?>
<!-- Generator: Adobe Illustrator 17.0.0, SVG Export Plug-In . SVG Version: 6.00 Build 0)  -->
<!DOCTYPE svg PUBLIC "-//W3C//DTD SVG 1.1//EN" "http://www.w3.org/Graphics/SVG/1.1/DTD/svg11.dtd">
<svg version="1.1" id="Capa_1" xmlns="http://www.w3.org/2000/svg" xmlns:xlink="http://www.w3.org/1999/xlink" x="0px" y="0px"
	 width="76.543px" height="76.543px" viewBox="0 0 76.543 76.543" enable-background="new 0 0 76.543 76.543" xml:space="preserve">
<g>
	
		<linearGradient id="SVGID_1_" gradientUnits="userSpaceOnUse" x1="-1480.6261" y1="1287.6212" x2="-1479.7305" y2="1372.2546" gradientTransform="matrix(-1 0 0 -1 -1442.0197 1357.543)">
		<stop  offset="0.0105" style="stop-color:#0D1221"/>
		<stop  offset="0.0807" style="stop-color:#0F1527"/>
		<stop  offset="0.6703" style="stop-color:#1D2A57"/>
		<stop  offset="0.9634" style="stop-color:#23326A"/>
	</linearGradient>
	<path fill="url(#SVGID_1_)" d="M76.509,61.335c0,8.38-6.794,15.174-15.174,15.174H15.208c-8.38,0-15.174-6.794-15.174-15.174
		V15.208c0-8.38,6.793-15.174,15.174-15.174h46.128c8.38,0,15.174,6.794,15.174,15.174V61.335z"/>
	<path fill="#1B224D" stroke="#1B224D" stroke-width="1.5" stroke-miterlimit="10" d="M58.615,56.176"/>
	<path fill="#1B224D" stroke="#1B224D" stroke-width="1.5" stroke-miterlimit="10" d="M64.776,55.176"/>
	<circle fill="#FFFFFF" cx="38.271" cy="36.669" r="25.429"/>
	<g>
		<g>
			<path fill="none" stroke="#4079B5" stroke-width="2" stroke-miterlimit="10" d="M38.272,65.098
				c-15.676,0-28.429-12.753-28.429-28.429c0-15.676,12.753-28.429,28.429-28.429c15.676,0,28.429,12.753,28.429,28.429
				C66.701,52.345,53.947,65.098,38.272,65.098z M38.272,10.24c-14.573,0-26.429,11.856-26.429,26.429
				c0,14.573,11.856,26.429,26.429,26.429c14.573,0,26.429-11.856,26.429-26.429C64.701,22.096,52.845,10.24,38.272,10.24z
				 M38.272,61.098c-13.47,0-24.429-10.959-24.429-24.429c0-13.47,10.959-24.429,24.429-24.429c13.47,0,24.429,10.959,24.429,24.429
				C62.701,50.14,51.742,61.098,38.272,61.098z M38.272,14.24c-12.368,0-22.429,10.062-22.429,22.429
				c0,12.368,10.061,22.429,22.429,22.429c12.368,0,22.429-10.062,22.429-22.429C60.701,24.302,50.639,14.24,38.272,14.24z"/>
		</g>
	</g>
	<g>
		<path fill="none" stroke="#EC5D25" stroke-width="2" stroke-miterlimit="10" d="M38.272,64.098
			c-15.125,0-27.429-12.305-27.429-27.429S23.147,9.24,38.272,9.24c15.124,0,27.429,12.305,27.429,27.429
			S53.396,64.098,38.272,64.098z M38.272,13.24c-12.919,0-23.429,10.51-23.429,23.429c0,12.919,10.51,23.429,23.429,23.429
			c12.919,0,23.429-10.51,23.429-23.429C61.701,23.75,51.191,13.24,38.272,13.24z"/>
	</g>
	<circle fill="none" stroke="#1B224D" stroke-width="4" stroke-miterlimit="10" cx="38.271" cy="36.669" r="25.429"/>
	<circle fill="#FFFFFF" cx="38.271" cy="36.669" r="25.429"/>
	<path fill="#1B224D" d="M37.607,34.057c0,0,1.118-0.184,1.683-0.259c0.564-0.076-0.511,0.815-0.511,0.815L37.607,34.057z"/>
	<path fill="none" stroke="#BBBFBF" stroke-width="2.5" stroke-miterlimit="10" d="M38.274,61.051
		c-13.478,0-24.404-10.926-24.404-24.404s10.926-24.404,24.404-24.404c9.056,0,16.959,4.932,21.171,12.257"/>
	<path fill="none" stroke="#BBBFBF" stroke-width="2.5" stroke-miterlimit="10" d="M15.92,26.843c0,0,0.274,13.787,16.248,23.394"/>
	<path fill="none" stroke="#BBBFBF" stroke-width="2.5" stroke-miterlimit="10" d="M26.06,15.516c0,0-0.351,12.114,12.366,22.178"/>
	<path fill="none" stroke="#BBBFBF" stroke-width="2.5" stroke-miterlimit="10" d="M25.883,58.578c0,0,12.999-8.268,15.283-23.549"
		/>
	<path fill="none" stroke="#BBBFBF" stroke-width="2.5" stroke-miterlimit="10" d="M38.403,63.178c0,0,12.831-7.002,15.438-25.484"
		/>
	<path fill="none" stroke="#BBBFBF" stroke-width="2.5" stroke-miterlimit="10" d="M40.85,36.373c0,0,10.738-2.853,23.199,5.289"/>
	<path fill="none" stroke="#BBBFBF" stroke-width="2.5" stroke-miterlimit="10" d="M29.388,13.91c0,0,0.369,11.31,9.902,19.887"/>
	<path fill="none" stroke="#BBBFBF" stroke-width="2.5" stroke-miterlimit="10" d="M33.09,25.127c0,0,15.269-6.906,30.262,3.201"/>
	<path fill="none" stroke="#BBBFBF" stroke-width="2.5" stroke-miterlimit="10" d="M38.042,32.876c0,0,14.693-3.537,26.639,4.818"/>
	<g>
		<g>
			<g>
				<path fill="#BBBFBF" d="M17.562,21.91c0,0-0.511,0.742-0.792,1.151c-0.281,0.408-0.576,0.981-0.576,0.981
					c0.689,5.506,2.718,10.813,5.899,15.406c1.581,2.283,3.426,4.367,5.482,6.194c1.705,1.515,3.568,2.865,5.539,4.012l0.787-1.352
					c-1.88-1.095-3.659-2.383-5.287-3.829c-1.964-1.745-3.725-3.735-5.235-5.916c-3.225-4.656-5.21-10.078-5.741-15.681
					L17.562,21.91L17.562,21.91z"/>
			</g>
		</g>
		<g>
			<path fill="#1B224D" d="M33.115,49.653c-1.97-1.147-3.834-2.497-5.539-4.012c-2.057-1.827-3.901-3.912-5.482-6.194
				c-3.181-4.593-5.21-9.9-5.899-15.406c0,0,0.295-0.573,0.576-0.981c0.281-0.408,0.792-1.151,0.792-1.151l0.077,0.966
				c0.531,5.602,2.516,11.025,5.741,15.681c1.51,2.181,3.272,4.171,5.235,5.916c1.628,1.446,3.406,2.734,5.287,3.829L33.115,49.653z
				"/>
		</g>
		<g>
			<path fill="#1B224D" d="M22.858,56.896c5.247-3.006,9.767-7.552,12.581-12.937c1.178-2.255,2.083-4.639,2.688-7.083
				c0.253-1.022,0.432-1.941,0.58-2.983l1.621-0.253c-0.156,1.09-0.481,2.525-0.746,3.596c-0.634,2.561-1.58,5.056-2.814,7.418
				c-2.88,5.514-7.209,10.076-12.537,13.219c0,0-0.541-0.284-0.82-0.516C23.133,57.125,22.858,56.896,22.858,56.896z"/>
		</g>
		<g>
			<path fill="#1B224D" d="M63.456,40.198l-0.364-0.293c-4.226-2.789-9.209-4.547-14.353-5.045
				c-2.531-0.244-5.079-0.188-7.574,0.168l-2.227,0.348c0,0-1.271-1.076-0.786-1.305c0.485-0.228,2.791-0.528,2.791-0.528
				c2.622-0.375,5.291-0.433,7.94-0.178c5.253,0.508,10.345,2.273,14.756,5.108"/>
		</g>
		<g>
			<path fill="#1B224D" d="M61.766,26.843c-0.179-0.102-0.567-0.351-0.986-0.621c-0.488-0.314-1.095-0.705-1.299-0.81
				c-2.355-1.218-4.844-2.15-7.397-2.772c-2.53-0.615-5.135-0.928-7.743-0.93c-0.007,0-0.015,0-0.023,0
				c-4.763,0-9.571,1.057-13.907,3.059l-0.655-1.42c4.54-2.096,9.576-3.203,14.562-3.203c0.008,0,0.016,0,0.024,0
				c2.732,0.002,5.461,0.33,8.111,0.975c2.674,0.65,5.28,1.626,7.746,2.901c0.066,0.034,0.147,0.08,0.243,0.137"/>
		</g>
		<g>
			<path fill="#1B224D" d="M37.821,62.095c4.362-3.015,7.979-7.004,10.58-11.697c1.346-2.428,2.397-5.005,3.125-7.66
				c0.721-2.63,1.127-5.348,1.208-8.08l-1.563-0.046c-0.077,2.607-0.465,5.202-1.153,7.712c-0.694,2.534-1.699,4.995-2.984,7.314
				c-2.817,5.084-6.882,9.301-11.817,12.278l1.257,0.128L37.821,62.095z"/>
		</g>
		<g>
			<path fill="#1B224D" d="M38.379,36.373c-1.815-1.603-4.284-4.079-5.767-6.219c-3.385-4.887-5.377-10.292-5.804-16.19l1.445-0.675
				c0.408,5.631,2.36,11.344,5.592,16.01c1.406,2.03,3.777,4.404,5.527,5.949L38.379,36.373z"/>
		</g>
	</g>
	<g>
		<path fill="#1B224D" d="M38.271,9.305c-15.125,0-27.429,12.305-27.429,27.429s12.305,27.429,27.429,27.429
			c15.125,0,27.429-12.305,27.429-27.429S53.396,9.305,38.271,9.305z M38.271,62.164c-14.044,0-25.429-11.385-25.429-25.429
			c0-14.044,11.385-25.429,25.429-25.429c14.044,0,25.429,11.385,25.429,25.429C63.701,50.779,52.315,62.164,38.271,62.164z"/>
	</g>
</g>
</svg>
