<?xml version="1.0" encoding="utf-8"?>
<!-- Generator: Adobe Illustrator 17.0.0, SVG Export Plug-In . SVG Version: 6.00 Build 0)  -->
<!DOCTYPE svg PUBLIC "-//W3C//DTD SVG 1.1//EN" "http://www.w3.org/Graphics/SVG/1.1/DTD/svg11.dtd">
<svg version="1.1" id="Capa_1" xmlns="http://www.w3.org/2000/svg" xmlns:xlink="http://www.w3.org/1999/xlink" x="0px" y="0px"
	 width="76.543px" height="76.543px" viewBox="0 0 76.543 76.543" enable-background="new 0 0 76.543 76.543" xml:space="preserve">
<g>
	<path fill="#BBBFBF" d="M51.348,14.858c4.504,4.588,7.286,10.874,7.286,17.811c0,14.044-11.385,25.429-25.429,25.429
		c-4.782,0-9.255-1.322-13.076-3.618c4.614,4.7,11.037,7.618,18.144,7.618c14.044,0,25.429-11.385,25.429-25.429
		C63.701,27.408,58.748,19.305,51.348,14.858z"/>
	
		<linearGradient id="SVGID_1_" gradientUnits="userSpaceOnUse" x1="-1480.6261" y1="1287.6212" x2="-1479.7305" y2="1372.2546" gradientTransform="matrix(-1 0 0 -1 -1442.0197 1357.543)">
		<stop  offset="0.0105" style="stop-color:#0D1221"/>
		<stop  offset="0.0807" style="stop-color:#0F1527"/>
		<stop  offset="0.6703" style="stop-color:#1D2A57"/>
		<stop  offset="0.9634" style="stop-color:#23326A"/>
	</linearGradient>
	<path fill="url(#SVGID_1_)" d="M76.509,61.335c0,8.38-6.793,15.174-15.174,15.174H15.208c-8.38,0-15.174-6.794-15.174-15.174
		V15.208c0-8.38,6.793-15.174,15.174-15.174h46.128c8.38,0,15.174,6.794,15.174,15.174V61.335z"/>
	<path fill="#1B224D" stroke="#1B224D" stroke-width="1.5" stroke-miterlimit="10" d="M58.614,55.176"/>
	<path fill="#1B224D" stroke="#1B224D" stroke-width="1.5" stroke-miterlimit="10" d="M64.776,55.176"/>
	<circle fill="#FFFFFF" cx="38.271" cy="36.669" r="25.429"/>
	<circle fill="#FFFFFF" cx="38.271" cy="36.669" r="25.429"/>
	<g>
		<g>
			<path fill="none" stroke="#4079B5" stroke-width="2" stroke-miterlimit="10" d="M38.272,65.098
				c-15.676,0-28.429-12.753-28.429-28.429c0-15.676,12.753-28.429,28.429-28.429s28.429,12.753,28.429,28.429
				C66.701,52.345,53.947,65.098,38.272,65.098z M38.272,10.24c-14.573,0-26.429,11.856-26.429,26.429
				c0,14.573,11.856,26.429,26.429,26.429c14.573,0,26.429-11.856,26.429-26.429C64.701,22.096,52.845,10.24,38.272,10.24z
				 M38.272,61.098c-13.47,0-24.429-10.959-24.429-24.429c0-13.47,10.959-24.429,24.429-24.429s24.429,10.959,24.429,24.429
				C62.701,50.14,51.742,61.098,38.272,61.098z M38.272,14.24c-12.368,0-22.429,10.062-22.429,22.429
				c0,12.368,10.062,22.429,22.429,22.429c12.368,0,22.429-10.062,22.429-22.429C60.701,24.302,50.639,14.24,38.272,14.24z"/>
		</g>
	</g>
	<g>
		<path fill="none" stroke="#EC5D25" stroke-width="2" stroke-miterlimit="10" d="M38.272,64.098
			c-15.125,0-27.429-12.305-27.429-27.429S23.147,9.24,38.272,9.24s27.429,12.305,27.429,27.429S53.396,64.098,38.272,64.098z
			 M38.272,13.24c-12.919,0-23.429,10.51-23.429,23.429c0,12.919,10.51,23.429,23.429,23.429c12.919,0,23.429-10.51,23.429-23.429
			C61.701,23.75,51.19,13.24,38.272,13.24z"/>
	</g>
	<circle fill="none" stroke="#1B224D" stroke-width="4" stroke-miterlimit="10" cx="38.271" cy="36.669" r="25.429"/>
	<circle fill="none" stroke="#1B224D" stroke-width="4" stroke-miterlimit="10" cx="38.271" cy="36.669" r="25.429"/>
	<circle fill="#FFFFFF" cx="38.271" cy="36.669" r="25.429"/>
	<g>
		<path fill="#1B224D" d="M38.271,9.305c-15.125,0-27.429,12.305-27.429,27.429s12.305,27.429,27.429,27.429
			s27.429-12.305,27.429-27.429S53.396,9.305,38.271,9.305z M38.271,62.164c-14.044,0-25.429-11.385-25.429-25.429
			c0-14.044,11.385-25.429,25.429-25.429c14.044,0,25.429,11.385,25.429,25.429C63.7,50.779,52.315,62.164,38.271,62.164z"/>
	</g>
	<g>
		<path fill="#1B224D" d="M38.271,9.305c-15.125,0-27.429,12.305-27.429,27.429s12.305,27.429,27.429,27.429
			s27.429-12.305,27.429-27.429S53.396,9.305,38.271,9.305z M38.271,62.164c-14.044,0-25.429-11.385-25.429-25.429
			c0-14.044,11.385-25.429,25.429-25.429c14.044,0,25.429,11.385,25.429,25.429C63.7,50.779,52.315,62.164,38.271,62.164z"/>
	</g>
	<path fill="none" stroke="#BBBFBF" stroke-width="2.5" stroke-miterlimit="10" d="M53.394,17.499"/>
	<g>
		<path fill="#1B224D" d="M38.271,9.305c-15.125,0-27.429,12.305-27.429,27.429s12.305,27.429,27.429,27.429
			s27.429-12.305,27.429-27.429S53.396,9.305,38.271,9.305z M38.271,62.164c-14.044,0-25.429-11.385-25.429-25.429
			c0-14.044,11.385-25.429,25.429-25.429c14.044,0,25.429,11.385,25.429,25.429C63.7,50.779,52.315,62.164,38.271,62.164z"/>
	</g>
	<circle fill="none" stroke="#BBBFBF" stroke-width="2.5" stroke-miterlimit="10" cx="25.299" cy="25.612" r="3.653"/>
	<circle fill="#1B224D" cx="25.299" cy="25.612" r="3.653"/>
	<circle fill="none" stroke="#BBBFBF" stroke-width="2.5" stroke-miterlimit="10" cx="34.708" cy="19.709" r="3.653"/>
	<circle fill="#1B224D" cx="34.708" cy="19.709" r="3.653"/>
	<circle fill="none" stroke="#BBBFBF" stroke-width="2.5" stroke-miterlimit="10" cx="35.195" cy="30.731" r="3.653"/>
	<circle fill="#1B224D" cx="35.195" cy="30.731" r="3.653"/>
	<path fill="#BBBFBF" d="M51.348,14.858c4.504,4.588,7.286,10.874,7.286,17.811c0,14.044-11.385,25.429-25.429,25.429
		c-4.782,0-9.255-1.322-13.076-3.618c4.614,4.7,11.037,7.618,18.144,7.618c14.044,0,25.429-11.385,25.429-25.429
		C63.701,27.408,58.748,19.305,51.348,14.858z"/>
</g>
</svg>
