<?xml version="1.0" encoding="utf-8"?>
<!-- Generator: Adobe Illustrator 17.0.0, SVG Export Plug-In . SVG Version: 6.00 Build 0)  -->
<!DOCTYPE svg PUBLIC "-//W3C//DTD SVG 1.1//EN" "http://www.w3.org/Graphics/SVG/1.1/DTD/svg11.dtd">
<svg version="1.1" id="Capa_1" xmlns="http://www.w3.org/2000/svg" xmlns:xlink="http://www.w3.org/1999/xlink" x="0px" y="0px"
	 width="76.543px" height="76.543px" viewBox="0 0 76.543 76.543" enable-background="new 0 0 76.543 76.543" xml:space="preserve">
<g>
	
		<linearGradient id="SVGID_1_" gradientUnits="userSpaceOnUse" x1="-1480.6261" y1="1287.6212" x2="-1479.7305" y2="1372.2546" gradientTransform="matrix(-1 0 0 -1 -1442.0197 1357.543)">
		<stop  offset="0.0105" style="stop-color:#0D1221"/>
		<stop  offset="0.0807" style="stop-color:#0F1527"/>
		<stop  offset="0.6703" style="stop-color:#1D2A57"/>
		<stop  offset="0.9634" style="stop-color:#23326A"/>
	</linearGradient>
	<path fill="url(#SVGID_1_)" d="M76.509,61.335c0,8.38-6.793,15.174-15.174,15.174H15.208c-8.38,0-15.174-6.794-15.174-15.174
		V15.208c0-8.38,6.793-15.174,15.174-15.174h46.128c8.38,0,15.174,6.794,15.174,15.174V61.335z"/>
	<g>
		<g>
			<path fill="none" stroke="#4079B5" stroke-width="2" stroke-miterlimit="10" d="M50.196,66.408H27.142
				c-2.477,0-4.491-2.015-4.491-4.492v-9.294c0-0.092,0.003-0.183,0.009-0.275c-1.082-0.771-1.996-1.763-2.667-2.898L12,35.897
				c-1.29-2.187-1.65-4.748-1.015-7.212c0.635-2.464,2.189-4.532,4.376-5.822c1.109-0.654,2.344-1.076,3.615-1.24
				c0.543-8.422,7.598-15.127,16.138-15.127h8.596c8.917,0,16.171,7.254,16.171,16.171v8.595c0,11.069-3.243,17.083-5.442,19.887
				c0.164,0.472,0.249,0.972,0.249,1.473v9.294C54.687,64.393,52.672,66.408,50.196,66.408z M35.114,8.495
				c-7.754,0-14.11,6.308-14.171,14.061l-0.008,0.964l-0.964,0.027c-1.262,0.036-2.504,0.395-3.595,1.038
				c-1.726,1.019-2.953,2.651-3.455,4.599c-0.502,1.947-0.218,3.97,0.801,5.696l7.993,13.551c0.617,1.044,1.496,1.936,2.542,2.577
				l0.609,0.373l-0.156,0.697c-0.039,0.178-0.06,0.361-0.06,0.543v9.294c0,1.374,1.117,2.492,2.491,2.492h23.054
				c1.374,0,2.491-1.118,2.491-2.492v-9.294c0-0.412-0.098-0.804-0.29-1.166l-0.319-0.6l0.44-0.518
				c2.003-2.354,5.362-7.961,5.362-19.077v-8.595c0-7.814-6.357-14.171-14.171-14.171H35.114z M50.687,62.408H26.651v-10.26
				l1.89-0.04l-0.043-1.924l-0.876-0.092c-1.764-0.185-3.288-1.161-4.184-2.677l-7.993-13.55c-1.546-2.621-0.672-6.011,1.948-7.557
				c1.271-0.748,2.854-0.955,4.282-0.559l1.268,0.353v-3.436c0-6.711,5.46-12.171,12.171-12.171h8.596
				c6.711,0,12.171,5.46,12.171,12.171v8.595c0,11.641-3.776,16.714-5.405,18.361l0.721,1.129v3.379h-0.509V62.408z M28.651,60.408
				h20.036v-7.786h0.509v-1.287l-1.378-2.159l0.782-0.55c0.045-0.033,5.28-4.021,5.28-17.365v-8.595
				c0-5.608-4.563-10.171-10.171-10.171h-8.596c-5.608,0-10.171,4.563-10.171,10.171v6.068l-3.804-1.059
				c-0.91-0.252-1.924-0.119-2.73,0.355c-1.67,0.985-2.227,3.147-1.241,4.818l7.993,13.55c0.569,0.965,1.543,1.586,2.67,1.705
				l2.626,0.275l0.129,5.688l-1.935,0.041V60.408z M50.196,52.622h0.491c0-0.271-0.221-0.492-0.491-0.492V52.622z"/>
		</g>
	</g>
	<g>
		<g>
			<path fill="#EC5D25" d="M50.196,66.408H27.142c-2.477,0-4.491-2.015-4.491-4.492v-9.294c0-0.092,0.003-0.183,0.009-0.275
				c-1.082-0.771-1.996-1.763-2.667-2.898L12,35.897c-1.29-2.187-1.65-4.748-1.015-7.212c0.635-2.464,2.189-4.532,4.376-5.822
				c1.109-0.654,2.344-1.076,3.615-1.24c0.543-8.422,7.598-15.127,16.138-15.127h8.596c8.917,0,16.171,7.254,16.171,16.171v8.595
				c0,11.069-3.243,17.083-5.442,19.887c0.164,0.472,0.249,0.972,0.249,1.473v9.294C54.687,64.393,52.672,66.408,50.196,66.408z
				 M35.114,8.495c-7.754,0-14.11,6.308-14.171,14.061l-0.008,0.964l-0.964,0.027c-1.262,0.036-2.504,0.395-3.595,1.038
				c-1.726,1.019-2.953,2.651-3.455,4.599c-0.502,1.947-0.218,3.97,0.801,5.696l7.993,13.551c0.617,1.044,1.496,1.936,2.542,2.577
				l0.609,0.373l-0.156,0.697c-0.039,0.178-0.06,0.361-0.06,0.543v9.294c0,1.374,1.117,2.492,2.491,2.492h23.054
				c1.374,0,2.491-1.118,2.491-2.492v-9.294c0-0.412-0.098-0.804-0.29-1.166l-0.319-0.6l0.44-0.518
				c2.003-2.354,5.362-7.961,5.362-19.077v-8.595c0-7.814-6.357-14.171-14.171-14.171H35.114z M50.687,62.408H26.651v-10.26
				l1.89-0.04l-0.043-1.924l-0.876-0.092c-1.764-0.185-3.288-1.161-4.184-2.677l-7.993-13.55c-1.546-2.621-0.672-6.011,1.948-7.557
				c1.271-0.748,2.854-0.955,4.282-0.559l1.268,0.353v-3.436c0-6.711,5.46-12.171,12.171-12.171h8.596
				c6.711,0,12.171,5.46,12.171,12.171v8.595c0,11.641-3.776,16.714-5.405,18.361l0.721,1.129v3.379h-0.509V62.408z M28.651,60.408
				h20.036v-7.786h0.509v-1.287l-1.378-2.159l0.782-0.55c0.045-0.033,5.28-4.021,5.28-17.365v-8.595
				c0-5.608-4.563-10.171-10.171-10.171h-8.596c-5.608,0-10.171,4.563-10.171,10.171v6.068l-3.804-1.059
				c-0.91-0.252-1.924-0.119-2.73,0.355c-1.67,0.985-2.227,3.147-1.241,4.818l7.993,13.55c0.569,0.965,1.543,1.586,2.67,1.705
				l2.626,0.275l0.129,5.688l-1.935,0.041V60.408z M50.196,52.622h0.491c0-0.271-0.221-0.492-0.491-0.492V52.622z"/>
		</g>
	</g>
	<g>
		<path fill="#1B224D" d="M50.196,65.408H27.142c-1.925,0-3.491-1.566-3.491-3.492v-9.294c0-0.261,0.029-0.516,0.084-0.761
			c-1.172-0.718-2.169-1.716-2.881-2.921l-7.993-13.551c-2.387-4.045-1.037-9.278,3.008-11.665c1.239-0.731,2.644-1.135,4.074-1.176
			c0.064-8.312,6.845-15.053,15.171-15.053h8.596c8.365,0,15.171,6.806,15.171,15.171v8.595c0,11.265-3.359,17.091-5.601,19.725
			c0.26,0.488,0.407,1.045,0.407,1.635v9.294C53.687,63.841,52.121,65.408,50.196,65.408z M27.651,61.408h22.036v-8.786
			c0,0.28,0.229,0.508,0.509,0.508v-2.087l-1.021-1.599c0.031-0.022,5.705-4.069,5.705-18.183v-8.595
			c0-6.16-5.012-11.171-11.171-11.171h-8.596c-6.159,0-11.171,5.011-11.171,11.171v4.752l-2.536-0.706
			c-1.174-0.327-2.455-0.162-3.506,0.457c-2.145,1.266-2.86,4.041-1.595,6.187l7.993,13.55c0.732,1.241,1.981,2.04,3.427,2.191
			l1.751,0.184l0.086,3.806l-1.912,0.04V61.408z"/>
	</g>
	<path fill="#FFFFFF" d="M56.881,31.261v-8.595c0-7.274-5.897-13.171-13.171-13.171h-8.595c-7.274,0-13.171,5.897-13.171,13.171
		v2.12c-1.647-0.458-3.469-0.276-5.058,0.661c-3.101,1.829-4.131,5.825-2.302,8.926l7.994,13.55c1.091,1.85,2.956,2.956,4.94,3.164
		l0.001,0.043h-0.376c-0.824,0-1.492,0.668-1.492,1.492v9.294c0,0.824,0.668,1.492,1.492,1.492h23.053
		c0.824,0,1.492-0.668,1.492-1.492v-9.294c0-0.824-0.668-1.492-1.492-1.492h0.056C50.251,51.13,56.881,46.896,56.881,31.261z"/>
	<path fill="#BBBFBF" d="M26.766,51.014h0.376l-0.001-0.043c-1.984-0.208-3.849-1.314-4.94-3.164l-7.994-13.55
		c-1.829-3.101-0.798-7.097,2.302-8.926c1.589-0.937,3.411-1.119,5.058-0.661l-0.16,2.043c-1.647-0.458,1.047-2.319-0.542-1.382
		c-3.101,1.829-5.037,5.825-3.208,8.926l7.994,13.55c1.091,1.85,3.862,2.956,5.846,3.164l0.001,0.043h-0.376"/>
	<path fill="none" stroke="#1B224D" stroke-width="2" stroke-miterlimit="10" d="M20.943,22.556c0,3.193,1.592,9.536,2.913,13.195"
		/>
	<line fill="none" stroke="#1B224D" stroke-width="2" stroke-miterlimit="10" x1="23.651" y1="50.592" x2="52.518" y2="50.592"/>
	<path fill="#BBBFBF" d="M43.71,9.481h-7.188c7.274,0,13.171,5.897,13.171,13.171v8.595c0,10.632-3.064,15.989-5.026,18.33h7.188
		c1.962-2.342,5.026-7.698,5.026-18.33v-8.595C56.881,15.378,50.984,9.481,43.71,9.481z"/>
	<path fill="#BBBFBF" d="M26.067,51.591h1.973v8.325c0,0.824,0.668,1.492,1.492,1.492h22.155v0.508c0,0.824-0.668,1.492-1.492,1.492
		H27.142c-0.824,0-1.492-0.668-1.492-1.492v-9.294C25.651,52.221,25.81,51.859,26.067,51.591z"/>
	<path fill="#1B224D" d="M52.518,60.84H35.24c-0.824,0-1.492-0.668-1.492-1.492V55.46c0-0.824,0.668-1.492,1.492-1.492h17.278V60.84
		z"/>
</g>
</svg>
