<?xml version="1.0" encoding="utf-8"?>
<!-- Generator: Adobe Illustrator 17.0.0, SVG Export Plug-In . SVG Version: 6.00 Build 0)  -->
<!DOCTYPE svg PUBLIC "-//W3C//DTD SVG 1.1//EN" "http://www.w3.org/Graphics/SVG/1.1/DTD/svg11.dtd">
<svg version="1.1" id="Capa_1" xmlns="http://www.w3.org/2000/svg" xmlns:xlink="http://www.w3.org/1999/xlink" x="0px" y="0px"
	 width="76.543px" height="76.543px" viewBox="0 0 76.543 76.543" enable-background="new 0 0 76.543 76.543" xml:space="preserve">
<g>
	
		<linearGradient id="SVGID_1_" gradientUnits="userSpaceOnUse" x1="-1480.6261" y1="1287.6212" x2="-1479.7305" y2="1372.2546" gradientTransform="matrix(-1 0 0 -1 -1442.0197 1357.543)">
		<stop  offset="0.0105" style="stop-color:#0D1221"/>
		<stop  offset="0.0807" style="stop-color:#0F1527"/>
		<stop  offset="0.6703" style="stop-color:#1D2A57"/>
		<stop  offset="0.9634" style="stop-color:#23326A"/>
	</linearGradient>
	<path fill="url(#SVGID_1_)" d="M76.509,61.335c0,8.38-6.793,15.174-15.174,15.174H15.208c-8.38,0-15.174-6.794-15.174-15.174
		V15.208c0-8.38,6.793-15.174,15.174-15.174h46.128c8.38,0,15.174,6.794,15.174,15.174V61.335z"/>
	<g>
		<g>
			<path fill="none" stroke="#4079B5" stroke-width="2" stroke-miterlimit="10" d="M65.431,63.947H12.186V10.917h53.245V63.947z
				 M14.186,61.947h49.245V12.917H14.186V61.947z M61.431,59.947H16.186V14.917h45.245V59.947z M18.186,57.947h41.245V16.917H18.186
				V57.947z"/>
		</g>
	</g>
	<g>
		<path fill="none" stroke="#EC5D25" stroke-width="2" stroke-miterlimit="10" d="M64.431,62.947H13.186V11.917h51.245V62.947z
			 M17.186,58.947h43.245V15.917H17.186V58.947z"/>
	</g>
	<g>
		<path fill="#1B224D" d="M64.431,62.947H13.186V11.917h51.245V62.947z M17.186,58.947h43.245V15.917H17.186V58.947z"/>
	</g>
	<rect x="15.186" y="37.432" fill="#FFFFFF" width="23.622" height="23.515"/>
	<rect x="15.186" y="13.917" fill="#FFFFFF" width="23.622" height="23.515"/>
	<rect x="38.808" y="37.432" fill="#FFFFFF" width="23.622" height="23.515"/>
	<rect x="38.808" y="13.917" fill="#FFFFFF" width="23.622" height="23.515"/>
	<circle fill="#1B224D" cx="26.991" cy="25.649" r="5.302"/>
	<circle fill="#1B224D" cx="50.504" cy="49.27" r="5.302"/>
	<polyline fill="none" stroke="#BBBFBF" stroke-width="2.5" stroke-miterlimit="10" points="16.464,60.947 16.464,14.917 
		62.43,14.917 	"/>
	<line fill="none" stroke="#BBBFBF" stroke-width="2.5" stroke-miterlimit="10" x1="61.105" y1="60.947" x2="61.105" y2="14.917"/>
	<line fill="none" stroke="#BBBFBF" stroke-width="2.5" stroke-miterlimit="10" x1="40.391" y1="13.917" x2="40.391" y2="60.947"/>
	<line fill="none" stroke="#1B224D" stroke-width="1.5" stroke-miterlimit="10" x1="14.793" y1="37.432" x2="62.823" y2="37.432"/>
	<line fill="none" stroke="#BBBFBF" stroke-width="2.5" stroke-miterlimit="10" x1="16.464" y1="39.421" x2="62.43" y2="39.421"/>
	<line fill="none" stroke="#BBBFBF" stroke-width="2.5" stroke-miterlimit="10" x1="16.464" y1="35.474" x2="62.43" y2="35.474"/>
	<line fill="none" stroke="#BBBFBF" stroke-width="2.5" stroke-miterlimit="10" x1="16.464" y1="59.597" x2="62.43" y2="59.597"/>
	<line fill="none" stroke="#1B224D" stroke-width="1.5" stroke-miterlimit="10" x1="38.808" y1="12.917" x2="38.808" y2="60.947"/>
</g>
</svg>
