<?xml version="1.0" encoding="utf-8"?>
<!-- Generator: Adobe Illustrator 17.0.0, SVG Export Plug-In . SVG Version: 6.00 Build 0)  -->
<!DOCTYPE svg PUBLIC "-//W3C//DTD SVG 1.1//EN" "http://www.w3.org/Graphics/SVG/1.1/DTD/svg11.dtd">
<svg version="1.1" id="Capa_1" xmlns="http://www.w3.org/2000/svg" xmlns:xlink="http://www.w3.org/1999/xlink" x="0px" y="0px"
	 width="76.543px" height="76.543px" viewBox="0 0 76.543 76.543" enable-background="new 0 0 76.543 76.543" xml:space="preserve">
<g>
	
		<linearGradient id="SVGID_1_" gradientUnits="userSpaceOnUse" x1="-1480.6261" y1="1287.6212" x2="-1479.7305" y2="1372.2546" gradientTransform="matrix(-1 0 0 -1 -1442.0197 1357.543)">
		<stop  offset="0.0105" style="stop-color:#0D1221"/>
		<stop  offset="0.0807" style="stop-color:#0F1527"/>
		<stop  offset="0.6703" style="stop-color:#1D2A57"/>
		<stop  offset="0.9634" style="stop-color:#23326A"/>
	</linearGradient>
	<path fill="url(#SVGID_1_)" d="M76.509,61.335c0,8.38-6.793,15.174-15.174,15.174H15.208c-8.38,0-15.174-6.794-15.174-15.174
		V15.208c0-8.38,6.793-15.174,15.174-15.174h46.128c8.38,0,15.174,6.794,15.174,15.174V61.335z"/>
	<g>
		<g>
			<g>
				<g>
					<path fill="none" stroke="#4079B5" stroke-width="2" stroke-miterlimit="10" d="M55.251,65.182H20.299v-9.197l7.105-3.195
						l3.477-20.047l-4.455-0.005V22.377l4.698,0.033l0.022-3.116c-0.347-0.854-0.529-1.785-0.529-2.707
						c0-1.697,0.577-3.299,1.637-4.575c-0.053-0.255-0.079-0.517-0.079-0.782c0-1.445,0.82-2.771,2.082-3.432
						c0.625-1.365,1.985-2.254,3.518-2.254s2.893,0.889,3.518,2.254c1.263,0.661,2.083,1.986,2.083,3.432
						c0,0.265-0.026,0.526-0.079,0.783c1.058,1.274,1.635,2.877,1.635,4.574c0,0.921-0.183,1.852-0.528,2.706l0.022,3.117
						l4.697,0.038v10.291l-4.454,0.005l3.478,20.047l7.104,3.195V65.182z M22.299,63.182h30.951v-5.903l-6.894-3.1l-4.065-23.433
						l4.831-0.006v-6.802l-4.686-0.034l-0.038-5.02l0.088-0.197c0.291-0.656,0.444-1.382,0.444-2.101
						c0-1.373-0.52-2.657-1.463-3.616l-0.453-0.46l0.233-0.603c0.084-0.217,0.127-0.445,0.127-0.678
						c0-0.775-0.489-1.479-1.216-1.752l-0.454-0.17l-0.147-0.461c-0.249-0.779-0.966-1.302-1.783-1.302s-1.534,0.523-1.783,1.302
						l-0.147,0.461l-0.453,0.17c-0.728,0.273-1.216,0.977-1.216,1.752c0,0.234,0.042,0.461,0.126,0.674l0.235,0.604l-0.454,0.462
						c-0.944,0.959-1.465,2.244-1.465,3.616c0,0.719,0.154,1.445,0.445,2.101l0.088,0.197l-0.038,5.02l-4.687-0.035v6.871
						l4.832,0.006l-4.064,23.433l-6.895,3.1V63.182z M51.251,61.182H24.299v-2.61l6.684-3.005l4.65-26.818l-5.207-0.006v-1.953
						l4.675-1.39l0.054-7.029l-0.131-0.232c-0.266-0.47-0.406-1.007-0.406-1.552c0-1.502,1.025-2.77,2.494-3.082l0.663-0.141
						l0.663,0.141c1.468,0.313,2.493,1.58,2.493,3.082c0,0.545-0.14,1.082-0.404,1.551l-0.132,0.234l0.052,7.028l4.676,1.39v1.953
						l-5.206,0.006l4.651,26.817l6.683,3.005V61.182z M27.82,59.182h19.911l-4.952-2.227l-5.004-28.848l-5.003,28.849L27.82,59.182z
						 M37.09,26.75l0.685,0l0.683,0l-0.066-8.898l0.395-0.697c0.095-0.169,0.146-0.366,0.146-0.568c0-0.558-0.365-1.01-0.909-1.126
						l-0.247-0.052l-0.247,0.052c-0.544,0.116-0.91,0.568-0.91,1.126c0,0.202,0.051,0.398,0.147,0.568l0.394,0.697L37.09,26.75z"/>
				</g>
			</g>
		</g>
	</g>
	<g>
		<g>
			<g>
				<path fill="none" stroke="#EC5D25" stroke-width="2" stroke-miterlimit="10" d="M54.251,64.182H21.299v-7.55l7-3.147
					l3.771-21.74l-4.644-0.005v-8.616l4.692,0.034l0.03-4.063c-0.349-0.785-0.531-1.641-0.531-2.507
					c0-1.677,0.655-3.204,1.752-4.318c-0.126-0.322-0.194-0.672-0.194-1.039c0-1.229,0.776-2.28,1.864-2.688
					c0.37-1.157,1.457-1.997,2.735-1.997s2.365,0.84,2.735,1.997C41.599,8.95,42.376,10,42.376,11.23
					c0,0.366-0.069,0.717-0.194,1.04c1.096,1.114,1.75,2.641,1.75,4.317c0,0.866-0.183,1.722-0.53,2.506l0.03,4.064l4.691,0.036
					v8.546l-4.643,0.005l3.771,21.74l6.999,3.147V64.182z M25.299,60.182h24.951v-0.963l-6.577-2.958l-4.945-28.51l5.395-0.006
					v-0.208l-4.67-1.389l-0.06-8.035l0.263-0.465c0.18-0.319,0.275-0.686,0.275-1.061c0-1.026-0.699-1.891-1.701-2.104l-0.455-0.097
					l-0.455,0.097c-1.002,0.213-1.702,1.079-1.702,2.104c0,0.374,0.096,0.74,0.276,1.06l0.263,0.465l-0.062,8.036l-4.669,1.389
					v0.208l5.396,0.006l-4.944,28.511l-6.578,2.958V60.182z"/>
			</g>
		</g>
	</g>
	<g>
		<g>
			<g>
				<path fill="#1B224D" d="M54.251,64.182H21.299v-7.55l7-3.147l3.771-21.74l-4.644-0.005v-8.616l4.692,0.034l0.03-4.063
					c-0.349-0.785-0.531-1.641-0.531-2.507c0-1.677,0.655-3.204,1.752-4.318c-0.126-0.322-0.194-0.672-0.194-1.039
					c0-1.229,0.776-2.28,1.864-2.688c0.37-1.157,1.457-1.997,2.735-1.997s2.365,0.84,2.735,1.997
					C41.599,8.95,42.376,10,42.376,11.23c0,0.366-0.069,0.717-0.194,1.04c1.096,1.114,1.75,2.641,1.75,4.317
					c0,0.866-0.183,1.722-0.53,2.506l0.03,4.064l4.691,0.036v8.546l-4.643,0.005l3.771,21.74l6.999,3.147V64.182z M25.299,60.182
					h24.951v-0.963l-6.577-2.958l-4.945-28.51l5.395-0.006v-0.208l-4.67-1.389l-0.06-8.035l0.263-0.465
					c0.18-0.319,0.275-0.686,0.275-1.061c0-1.026-0.699-1.891-1.701-2.104l-0.455-0.097l-0.455,0.097
					c-1.002,0.213-1.702,1.079-1.702,2.104c0,0.374,0.096,0.74,0.276,1.06l0.263,0.465l-0.062,8.036l-4.669,1.389v0.208l5.396,0.006
					l-4.944,28.511l-6.578,2.958V60.182z"/>
			</g>
		</g>
	</g>
	<g>
		<g>
			<path fill="#FFFFFF" d="M41.104,29.747l5.018-0.006v-5.057l-4.681-0.032l-0.045-6.021c0.35-0.619,0.534-1.326,0.534-2.044
				c0-1.974-1.37-3.653-3.285-4.06v-0.425h0.86c0.479,0,0.87-0.391,0.87-0.871c0-0.479-0.391-0.87-0.87-0.87h-0.86V9.415
				c0-0.48-0.391-0.87-0.87-0.87c-0.48,0-0.871,0.39-0.871,0.87v0.945h-0.859c-0.48,0-0.87,0.391-0.87,0.87
				c0,0.48,0.39,0.871,0.87,0.871h0.859v0.425c-1.915,0.408-3.286,2.086-3.286,4.06c0,0.719,0.185,1.426,0.535,2.044l-0.046,6.021
				l-4.68-0.038v5.127l5.019,0.006l-4.358,25.125l-6.789,3.053v4.256H52.25v-4.256l-6.788-3.053L41.104,29.747z"/>
		</g>
	</g>
	<g>
		<rect x="29.427" y="24.621" fill="#BBBFBF" width="1.681" height="0.024"/>
		<path fill="#BBBFBF" d="M45.462,54.872l-4.358-25.125l5.018-0.006v-5.057l-4.681-0.032l-0.045-6.021
			c0.35-0.619,0.534-1.326,0.534-2.044c0-1.974-1.37-3.653-3.285-4.06v-0.425h0.86c0.479,0,0.87-0.391,0.87-0.871
			c0-0.479-0.391-0.87-0.87-0.87h-0.86V9.415c0-0.48-0.391-0.87-0.87-0.87c-0.48,0-0.871,0.39-0.871,0.87v0.945h-0.399
			c0.479,0,0.87,0.391,0.87,0.87c0,0.48-0.391,0.871-0.87,0.871h0.399v0.425c-0.218,0.046-0.427,0.114-0.629,0.192
			c1.578,0.606,2.656,2.119,2.656,3.868c0,0.719-0.184,1.425-0.534,2.044l0.045,6.021l4.681,0.032l-0.017,5.061l-4.97,0.033
			l4.279,26.492l6.494,2.749v3.163h3.341v-4.256L45.462,54.872z"/>
	</g>
</g>
</svg>
