<?xml version="1.0" encoding="utf-8"?>
<!-- Generator: Adobe Illustrator 17.0.0, SVG Export Plug-In . SVG Version: 6.00 Build 0)  -->
<!DOCTYPE svg PUBLIC "-//W3C//DTD SVG 1.1//EN" "http://www.w3.org/Graphics/SVG/1.1/DTD/svg11.dtd">
<svg version="1.1" id="Capa_1" xmlns="http://www.w3.org/2000/svg" xmlns:xlink="http://www.w3.org/1999/xlink" x="0px" y="0px"
	 width="76.543px" height="76.543px" viewBox="0 0 76.543 76.543" enable-background="new 0 0 76.543 76.543" xml:space="preserve">
<g>
	
		<linearGradient id="SVGID_1_" gradientUnits="userSpaceOnUse" x1="-1480.6261" y1="1287.6212" x2="-1479.7305" y2="1372.2546" gradientTransform="matrix(-1 0 0 -1 -1442.0197 1357.543)">
		<stop  offset="0.0105" style="stop-color:#0D1221"/>
		<stop  offset="0.0807" style="stop-color:#0F1527"/>
		<stop  offset="0.6703" style="stop-color:#1D2A57"/>
		<stop  offset="0.9634" style="stop-color:#23326A"/>
	</linearGradient>
	<path fill="url(#SVGID_1_)" d="M76.509,61.335c0,8.38-6.793,15.174-15.174,15.174H15.208c-8.38,0-15.174-6.794-15.174-15.174
		V15.208c0-8.38,6.793-15.174,15.174-15.174h46.128c8.38,0,15.174,6.794,15.174,15.174V61.335z"/>
	<g>
		<g>
			<path fill="none" stroke="#4079B5" stroke-width="2" stroke-miterlimit="10" d="M47.284,64.952H29.903l-0.791-0.393
				c-2.497-1.244-4.697-2.94-6.536-5.044c-1.084-1.243-2.01-2.582-2.75-3.983c-1.442-2.724-2.251-5.693-2.408-8.823l-0.004-0.117
				l0.003-2.111c0.079-1.436,0.293-2.815,0.638-4.151c0.664-2.576,1.789-4.961,3.347-7.1c-2.612-3.621-3.987-7.891-3.987-12.398
				c0-15.026,15.445-15.026,21.259-15.026c5.815,0,21.26,0,21.26,15.026c0,4.487-1.439,8.899-4.066,12.506
				c1.52,2.112,2.617,4.462,3.268,6.996c0.344,1.332,0.559,2.71,0.636,4.095l0.005,0.138l-0.003,2.096
				c-0.158,3.175-0.967,6.143-2.408,8.869c-0.74,1.401-1.665,2.741-2.749,3.983c-1.84,2.104-4.038,3.801-6.535,5.045L47.284,64.952z
				 M30.357,63.02h16.475l0.389-0.192c2.267-1.129,4.267-2.672,5.939-4.585c0.985-1.129,1.826-2.345,2.497-3.614
				c1.308-2.475,2.043-5.172,2.184-8.016l0.002-2.023l-0.003-0.082c-0.07-1.229-0.264-2.481-0.576-3.692
				c-0.647-2.519-1.78-4.836-3.369-6.89l-0.46-0.595l0.464-0.592c2.684-3.421,4.102-7.538,4.102-11.906
				c0-13.094-13.054-13.094-19.328-13.094s-19.327,0-19.327,13.094c0,4.324,1.393,8.407,4.028,11.81l0.46,0.595l-0.464,0.593
				c-1.627,2.076-2.785,4.426-3.444,6.984c-0.313,1.213-0.508,2.466-0.579,3.724l-0.001,2.029l0.003,0.067
				c0.141,2.826,0.877,5.523,2.184,7.996c0.672,1.269,1.511,2.486,2.497,3.615c1.672,1.912,3.671,3.455,5.941,4.585L30.357,63.02z
				 M46.384,61.088H30.807l-0.209-0.108c-1.946-1.005-3.666-2.354-5.112-4.008c-0.887-1.016-1.642-2.108-2.245-3.247
				c-1.168-2.21-1.829-4.619-1.962-7.16l-0.001-1.918c0.068-1.17,0.242-2.279,0.518-3.352c0.63-2.446,1.768-4.677,3.382-6.633
				l0.292-0.352l0.474-0.018l1.499,0.004l-1.518-1.631c-2.997-3.221-4.647-7.423-4.647-11.833c0-9.263,6.954-11.162,17.394-11.162
				c10.442,0,17.395,1.898,17.395,11.162c0,4.41-1.65,8.612-4.647,11.832l-0.609,0.654l0.604,0.658
				c0.206,0.224,0.403,0.453,0.598,0.692c1.611,1.953,2.748,4.184,3.378,6.63c0.276,1.071,0.45,2.179,0.516,3.293l0.002,1.924
				c-0.135,2.593-0.794,5.002-1.962,7.211c-0.603,1.14-1.358,2.231-2.244,3.246c-1.448,1.657-3.168,3.006-5.113,4.009L46.384,61.088
				z M31.281,59.155H45.91c1.645-0.88,3.104-2.042,4.34-3.456c0.788-0.902,1.458-1.87,1.991-2.878
				c1.035-1.958,1.62-4.098,1.739-6.358l-0.001-1.816c-0.057-0.932-0.211-1.916-0.457-2.868c-0.559-2.17-1.567-4.149-2.999-5.885
				c-0.175-0.213-0.349-0.416-0.529-0.612l-1.267-1.38l-1.201,1.053l-2.309-1.267c-3.904-2.145-9.179-2.144-13.085,0l-1.729,0.95
				l1.492,1.603l-5.491-0.016c-1.287,1.645-2.209,3.515-2.733,5.553c-0.246,0.953-0.401,1.938-0.459,2.927l0.002,1.81
				c0.118,2.209,0.703,4.348,1.739,6.308c0.533,1.007,1.204,1.976,1.992,2.879C28.176,57.112,29.635,58.274,31.281,59.155z
				 M38.675,30.117c2.652,0,5.235,0.649,7.472,1.878l1.122,0.616l0.959-0.841c3.165-2.767,4.979-6.754,4.979-10.938
				c0-6.205-3.667-8.3-14.533-8.3s-14.532,2.094-14.532,8.3c0,4.184,1.814,8.171,4.977,10.938l0.962,0.84l1.12-0.615
				C33.439,30.766,36.023,30.117,38.675,30.117z M30.306,30.266l-0.49-0.485c-2.379-2.355-3.743-5.617-3.743-8.949
				c0-3.846,0.877-6.367,12.6-6.367c11.723,0,12.6,2.521,12.6,6.367c0,3.332-1.364,6.593-3.744,8.948l-0.49,0.485l-0.618-0.306
				c-4.699-2.325-10.799-2.324-15.498,0L30.306,30.266z M38.673,16.396c-10.667,0-10.667,1.957-10.667,4.435
				c0,2.598,0.98,5.147,2.711,7.091c4.903-2.191,11.006-2.191,15.913,0c1.73-1.945,2.712-4.493,2.712-7.091
				C49.342,18.354,49.342,16.396,38.673,16.396z"/>
		</g>
	</g>
	<g>
		<path fill="none" stroke="#EC5D25" stroke-width="2" stroke-miterlimit="10" d="M47.058,63.986H30.13l-0.588-0.292
			c-2.384-1.187-4.483-2.806-6.238-4.815c-1.034-1.185-1.917-2.463-2.624-3.799c-1.375-2.599-2.147-5.432-2.296-8.42l-0.003-0.097
			l0.003-2.081c0.075-1.322,0.279-2.638,0.608-3.911c0.693-2.688,1.909-5.155,3.619-7.339c-2.739-3.537-4.23-7.876-4.23-12.401
			c0-14.06,14.22-14.06,20.293-14.06s20.294,0,20.294,14.06c0,4.569-1.519,8.947-4.308,12.502c1.668,2.156,2.86,4.591,3.54,7.239
			c0.328,1.271,0.533,2.587,0.608,3.909l0.003,0.109l-0.003,2.07c-0.149,2.987-0.922,5.82-2.296,8.419
			c-0.707,1.337-1.59,2.615-2.623,3.799c-1.757,2.009-3.855,3.629-6.238,4.816L47.058,63.986z M31.042,60.121h15.106
			c1.836-0.948,3.461-2.221,4.829-3.786c0.837-0.959,1.549-1.989,2.117-3.062c1.101-2.083,1.724-4.357,1.85-6.759v-1.867
			c-0.062-1.052-0.226-2.098-0.488-3.109c-0.593-2.307-1.666-4.412-3.189-6.258c-0.184-0.225-0.37-0.441-0.562-0.651l-1.209-1.316
			l1.217-1.308c2.83-3.041,4.388-7.009,4.388-11.174c0-7.432-4.452-10.195-16.429-10.195c-11.976,0-16.428,2.763-16.428,10.195
			c0,4.165,1.559,8.133,4.388,11.175l3.035,3.262l-3.727-0.011c-0.006,0.007-0.011,0.013-0.017,0.02
			c-1.525,1.847-2.597,3.952-3.192,6.259c-0.261,1.013-0.426,2.059-0.488,3.111v1.867c0.126,2.403,0.75,4.676,1.851,6.759
			c0.568,1.073,1.28,2.104,2.118,3.063C27.581,57.899,29.204,59.172,31.042,60.121z M47.397,33.783l-1.715-0.942
			c-4.267-2.344-9.744-2.345-14.016,0l-1.712,0.94l-1.471-1.285c-3.373-2.951-5.307-7.203-5.307-11.665
			c0-7.749,5.683-9.266,15.498-9.266c9.816,0,15.499,1.516,15.499,9.266c0,4.464-1.935,8.716-5.308,11.665L47.397,33.783z
			 M38.673,15.43c-11.633,0-11.633,2.503-11.633,5.401c0,3.107,1.251,6.079,3.456,8.263c5.059-2.504,11.297-2.502,16.355-0.001
			c2.206-2.184,3.457-5.155,3.457-8.262C50.308,17.933,50.308,15.43,38.673,15.43z"/>
	</g>
	<g>
		<path fill="#1B224D" d="M47.058,63.986H30.13l-0.588-0.292c-2.384-1.187-4.483-2.806-6.238-4.815
			c-1.034-1.185-1.917-2.463-2.624-3.799c-1.375-2.599-2.147-5.432-2.296-8.42l-0.003-0.097l0.003-2.081
			c0.075-1.322,0.279-2.638,0.608-3.911c0.693-2.688,1.909-5.155,3.619-7.339c-2.739-3.537-4.23-7.876-4.23-12.401
			c0-14.06,14.22-14.06,20.293-14.06s20.294,0,20.294,14.06c0,4.569-1.519,8.947-4.308,12.502c1.668,2.156,2.86,4.591,3.54,7.239
			c0.328,1.271,0.533,2.587,0.608,3.909l0.003,0.109l-0.003,2.07c-0.149,2.987-0.922,5.82-2.296,8.419
			c-0.707,1.337-1.59,2.615-2.623,3.799c-1.757,2.009-3.855,3.629-6.238,4.816L47.058,63.986z M31.042,60.121h15.106
			c1.836-0.948,3.461-2.221,4.829-3.786c0.837-0.959,1.549-1.989,2.117-3.062c1.101-2.083,1.724-4.357,1.85-6.759v-1.867
			c-0.062-1.052-0.226-2.098-0.488-3.109c-0.593-2.307-1.666-4.412-3.189-6.258c-0.184-0.225-0.37-0.441-0.562-0.651l-1.209-1.316
			l1.217-1.308c2.83-3.041,4.388-7.009,4.388-11.174c0-7.432-4.452-10.195-16.429-10.195c-11.976,0-16.428,2.763-16.428,10.195
			c0,4.165,1.559,8.133,4.388,11.175l3.035,3.262l-3.727-0.011c-0.006,0.007-0.011,0.013-0.017,0.02
			c-1.525,1.847-2.597,3.952-3.192,6.259c-0.261,1.013-0.426,2.059-0.488,3.111v1.867c0.126,2.403,0.75,4.676,1.851,6.759
			c0.568,1.073,1.28,2.104,2.118,3.063C27.581,57.899,29.204,59.172,31.042,60.121z M47.397,33.783l-1.715-0.942
			c-4.267-2.344-9.744-2.345-14.016,0l-1.712,0.94l-1.471-1.285c-3.373-2.951-5.307-7.203-5.307-11.665
			c0-7.749,5.683-9.266,15.498-9.266c9.816,0,15.499,1.516,15.499,9.266c0,4.464-1.935,8.716-5.308,11.665L47.397,33.783z
			 M38.673,15.43c-11.633,0-11.633,2.503-11.633,5.401c0,3.107,1.251,6.079,3.456,8.263c5.059-2.504,11.297-2.502,16.355-0.001
			c2.206-2.184,3.457-5.155,3.457-8.262C50.308,17.933,50.308,15.43,38.673,15.43z"/>
	</g>
	<path fill="#FFFFFF" d="M52.758,34.05c-0.202-0.247-0.412-0.491-0.63-0.728c3.171-3.407,4.906-7.81,4.906-12.49
		c0-10.659-8.825-12.128-18.362-12.128c-9.535,0-18.36,1.469-18.36,12.128c0,4.681,1.735,9.084,4.906,12.491l-0.157,0
		c-0.218,0.238-0.427,0.481-0.63,0.728c-1.704,2.064-2.913,4.447-3.57,7.004c-0.296,1.148-0.481,2.331-0.549,3.537v1.973
		c0.136,2.713,0.853,5.302,2.075,7.613c0.651,1.231,1.451,2.378,2.37,3.431c1.547,1.77,3.444,3.262,5.644,4.357l0.181,0.09h8.279
		h1.256h6.488l0.181-0.09c2.199-1.095,4.097-2.587,5.644-4.357c0.919-1.053,1.72-2.199,2.37-3.431
		c1.223-2.312,1.939-4.9,2.075-7.613V44.59c-0.068-1.206-0.253-2.389-0.549-3.537C55.671,38.497,54.462,36.114,52.758,34.05z
		 M47.592,31.041l-0.452,0.396l-0.528-0.29c-2.419-1.329-5.164-2.031-7.939-2.031c-2.773,0-5.518,0.702-7.937,2.031l-0.528,0.29
		l-0.453-0.396c-2.953-2.583-4.646-6.304-4.646-10.21c0-4.864,2.098-7.333,13.565-7.333c11.469,0,13.567,2.47,13.567,7.333
		C52.24,24.737,50.547,28.459,47.592,31.041z"/>
	<g>
		<path fill="#BBBFBF" d="M34.848,11.566c-11.467,0-12.922,6.176-11.704,10.885c1.351,5.225,8.257,10.174,7.064,8.986
			c-1.677-2.301-5.1-7.718-5.1-10.606c0-4.864,2.098-7.265,13.565-7.333c7-0.042,8.868,0.892,10.773,1.661
			C47.747,13.387,41.749,11.566,34.848,11.566z"/>
		<path fill="#BBBFBF" d="M52.758,34.05c-0.202-0.247-0.412-0.491-0.63-0.728c3.171-3.407,4.906-7.81,4.906-12.49
			c0-6.341-3.135-9.416-7.674-10.878c2.373,1.814,5.458,6.139,5.098,10.458c-0.726,8.714-5.215,12.114-5.013,12.36
			c1.704,2.064,2.399,3.793,3.057,6.35c0.296,1.148,0.481,2.331,0.549,3.537v1.973c-0.136,2.713-0.853,5.302-2.075,7.613
			c-0.651,1.231-1.451,2.378-2.37,3.431c-1.547,1.77-3.445,3.262-5.644,4.357l-0.181,0.09h-6.488h-1.256h-7.583
			c0.911,0.695,1.892,1.317,2.948,1.842l0.181,0.09h8.279h1.256h6.488l0.181-0.09c2.199-1.095,4.097-2.587,5.644-4.357
			c0.919-1.053,1.72-2.199,2.37-3.431c1.223-2.312,1.939-4.9,2.075-7.613V44.59c-0.068-1.206-0.253-2.389-0.549-3.537
			C55.671,38.497,54.462,36.114,52.758,34.05z"/>
	</g>
</g>
</svg>
