<?xml version="1.0" encoding="utf-8"?>
<!-- Generator: Adobe Illustrator 17.0.0, SVG Export Plug-In . SVG Version: 6.00 Build 0)  -->
<!DOCTYPE svg PUBLIC "-//W3C//DTD SVG 1.1//EN" "http://www.w3.org/Graphics/SVG/1.1/DTD/svg11.dtd">
<svg version="1.1" id="Capa_1" xmlns="http://www.w3.org/2000/svg" xmlns:xlink="http://www.w3.org/1999/xlink" x="0px" y="0px"
	 width="76.543px" height="76.543px" viewBox="0 0 76.543 76.543" enable-background="new 0 0 76.543 76.543" xml:space="preserve">
<g>
	<g>
		<path fill="none" stroke="#1B224D" stroke-width="1.5" stroke-miterlimit="10" d="M52.44-5.795"/>
	</g>
	
		<linearGradient id="SVGID_1_" gradientUnits="userSpaceOnUse" x1="-1480.6261" y1="1287.1993" x2="-1479.7305" y2="1371.8326" gradientTransform="matrix(-1 0 0 -1 -1442.0197 1357.543)">
		<stop  offset="0.0105" style="stop-color:#0D1221"/>
		<stop  offset="0.0807" style="stop-color:#0F1527"/>
		<stop  offset="0.6703" style="stop-color:#1D2A57"/>
		<stop  offset="0.9634" style="stop-color:#23326A"/>
	</linearGradient>
	<path fill="url(#SVGID_1_)" d="M76.509,61.757c0,8.38-6.794,15.174-15.174,15.174H15.208c-8.38,0-15.174-6.793-15.174-15.174V15.63
		c0-8.38,6.793-15.174,15.174-15.174h46.128c8.38,0,15.174,6.793,15.174,15.174V61.757z"/>
	<g>
		<g>
			<path fill="none" stroke="#4079B5" stroke-width="2" stroke-miterlimit="10" d="M56.212,58.487
				c-7.389,0-13.425-5.902-13.642-13.239l-1.953,3.383h-7.467c-1.661,5.84-6.952,9.856-13.114,9.856
				c-7.525,0-13.648-6.123-13.648-13.648s6.123-13.648,13.648-13.648c0.674,0,1.35,0.051,2.019,0.152l1.675-2.894l-0.758-1.249
				H16.94v-9.213h18.113v5.31h8.721v-5.31h20.689v12.021H55.25v-2.808h-2.263v0.697l1.865,3.366c0.456-0.048,0.911-0.072,1.36-0.072
				c7.525,0,13.648,6.123,13.648,13.648S63.738,58.487,56.212,58.487z M43.461,40.02l1.664,0.777c-0.476,1.3-0.717,2.66-0.717,4.042
				c0,6.51,5.296,11.805,11.805,11.805s11.805-5.296,11.805-11.805s-5.296-11.805-11.805-11.805c-0.567,0-1.146,0.045-1.724,0.133
				l-0.634,0.097l-2.71-4.891v-3.015h5.948v2.808h5.528v-8.336H45.616v5.31H33.21v-5.31H18.783v5.528h5.229l1.861,3.07l-2.876,4.969
				l-0.649-0.131c-0.76-0.154-1.538-0.232-2.311-0.232c-6.51,0-11.805,5.296-11.805,11.805s5.296,11.805,11.805,11.805
				c5.545,0,10.274-3.758,11.501-9.139l0.163-0.717h7.853L43.461,40.02z M56.212,51.116c-3.461,0-6.277-2.816-6.277-6.277
				c0-1.046,0.263-2.079,0.76-2.988l0.802-1.467l3.485,6.272h6.293l-4.881-8.807l2.724,1.427c2.08,1.09,3.372,3.221,3.372,5.563
				c0,0.165-0.006,0.327-0.019,0.489l-0.104,1.327h0.071l-0.082,0.137l-0.124,1.589l-0.398-0.716l-0.229,0.383
				C60.475,49.94,58.409,51.116,56.212,51.116z M51.78,44.687c-0.002,0.05-0.003,0.101-0.003,0.151c0,2.445,1.989,4.435,4.435,4.435
				c0.9,0,1.77-0.28,2.497-0.776h-4.813L51.78,44.687z M20.037,51.116c-2.155,0-4.135-1.088-5.297-2.912l-0.164-0.256L14.3,48.426
				l-0.226-1.265l-0.238-0.373h0.171l-0.15-0.842c-0.065-0.364-0.098-0.737-0.098-1.108c0-2.641,1.671-5.015,4.159-5.909
				l2.371-0.852l-5.04,8.71h10.982l-0.909,1.418C24.156,50.028,22.18,51.116,20.037,51.116z M17.736,48.63
				c1.347,0.819,3.191,0.837,4.575,0H17.736z M29.22,48.678l-1.698-0.716c0.265-0.629,0.447-1.29,0.543-1.964l0.041-0.289
				l1.828,0.232c-0.104,0.941-0.345,1.861-0.714,2.734l0,0C29.221,48.676,29.22,48.677,29.22,48.678z M38.15,45.536l-0.835-1.322
				l-5.618-9.731L25.05,23.514h-3.504v-1.843h4.542l3.217,5.31h19.996v5.656l-2.119-3.813H30.63l7.52,13.025l1.79-3.1l1.596,0.921
				l-2.203,3.817l-0.354-0.205l0.236,0.408L38.15,45.536z M66.175,44.839h-1.843c0-4.477-3.643-8.12-8.12-8.12v-1.843
				C61.706,34.876,66.175,39.345,66.175,44.839z M11.917,44.839h-1.843c0-5.493,4.469-9.963,9.963-9.963h0.006v1.843
				C15.56,36.719,11.917,40.361,11.917,44.839z M50.577,39.005l-1.278-1.328c0.323-0.312,0.67-0.605,1.032-0.87l1.106,1.474
				l-0.145,0.11c-0.252,0.193-0.489,0.397-0.713,0.612l0,0C50.577,39.004,50.577,39.005,50.577,39.005z M38.149,38.163l-4.329-7.497
				h8.659L38.149,38.163z M37.012,32.509l1.137,1.97l1.137-1.97H37.012z M47.153,37.283l-1.505-1.051l1.807-3.127l1.386,2.497
				l-0.543,0.491C47.89,36.461,47.505,36.862,47.153,37.283z M29.057,37.25c-0.22-0.261-0.45-0.513-0.692-0.755l-0.502-0.5
				l1.282-2.215l1.412,2.411L29.057,37.25z M55.078,36.805l-0.275-1.822c0.418-0.063,0.841-0.099,1.257-0.106l0.139-0.001
				l0.003,1.843l-0.11,0.001c-0.292,0.005-0.597,0.031-0.947,0.077v-0.001C55.122,36.799,55.099,36.802,55.078,36.805z
				 M60.778,25.401h-1.843v-2.808h1.843V25.401z"/>
		</g>
	</g>
	<g>
		<path fill="none" stroke="#EC5D25" stroke-width="2" stroke-miterlimit="10" d="M56.212,57.565
			c-7.018,0-12.727-5.709-12.727-12.727c0-1.507,0.268-2.979,0.773-4.358l-4.173,7.229h-7.649
			c-1.305,5.723-6.369,9.856-12.399,9.856c-7.018,0-12.727-5.709-12.727-12.727s5.709-12.727,12.727-12.727
			c0.837,0,1.672,0.084,2.494,0.25l2.271-3.924l-1.309-2.16h-5.631v-7.371h16.27v5.31h10.563v-5.31h18.847v10.179h-7.371v-2.808
			h-4.105v1.856l2.284,4.122c0.625-0.096,1.248-0.144,1.863-0.144c7.018,0,12.727,5.709,12.727,12.727S63.23,57.565,56.212,57.565z
			 M51.503,42.292c-0.421,0.77-0.647,1.64-0.647,2.547c0,2.953,2.403,5.356,5.356,5.356c1.954,0,3.666-1.052,4.602-2.619h-6.375
			L51.503,42.292z M15.517,47.709c0.952,1.493,2.623,2.485,4.52,2.485c1.866,0,3.549-0.985,4.509-2.485H15.517z M29.019,45.84
			l-0.041,0.289c-0.11,0.767-0.317,1.5-0.606,2.19C28.701,47.541,28.923,46.709,29.019,45.84z M18.23,39.797
			c-2.067,0.743-3.549,2.723-3.549,5.042c0,0.323,0.029,0.638,0.084,0.946L18.23,39.797z M58.69,40.091l2.862,5.164
			c0.011-0.138,0.016-0.277,0.016-0.417C61.568,42.779,60.4,40.987,58.69,40.091z M56.212,35.797c4.985,0,9.041,4.056,9.041,9.041
			C65.254,39.853,61.198,35.797,56.212,35.797z M20.037,35.797c-4.985,0-9.041,4.056-9.041,9.041
			C10.996,39.853,15.052,35.797,20.037,35.797c0.002,0,0.004,0,0.006,0C20.042,35.797,20.039,35.797,20.037,35.797z M29.085,28.395
			l3.411,5.628l5.618,9.731l0.036-0.063l-9.116-15.789h18.232H28.787l-3.217-5.31h-4.023h4.023L29.085,28.395z M40.737,39.21
			l-2.203,3.817L40.737,39.21z M50.876,37.55c-0.332,0.244-0.645,0.508-0.938,0.79c0.249-0.239,0.514-0.467,0.794-0.68L50.876,37.55
			z M47.438,34.974l-0.992,1.718c0.379-0.453,0.791-0.883,1.234-1.283L47.438,34.974z M29.015,35.844
			c0.261,0.26,0.509,0.532,0.746,0.813l-0.612-1.045L29.015,35.844z M35.416,31.588l2.733,4.733l2.733-4.733H35.416z M56.199,35.797
			c-0.414,0.001-0.835,0.033-1.259,0.097l0.084-0.011C55.462,35.825,55.835,35.798,56.199,35.797z M47.725,27.903l0.655,1.179
			v-1.179H47.725z M59.856,25.401v-2.808V25.401z"/>
	</g>
	<g>
		<path fill="#1B224D" d="M56.212,57.565c-7.018,0-12.727-5.709-12.727-12.727c0-1.507,0.268-2.979,0.773-4.358l-4.173,7.229h-7.649
			c-1.305,5.723-6.369,9.856-12.399,9.856c-7.018,0-12.727-5.709-12.727-12.727s5.709-12.727,12.727-12.727
			c0.837,0,1.672,0.084,2.494,0.25l2.271-3.924l-1.309-2.16h-5.631v-7.371h16.27v5.31h10.563v-5.31h18.847v10.179h-7.371v-2.808
			h-4.105v1.856l2.284,4.122c0.625-0.096,1.248-0.144,1.863-0.144c7.018,0,12.727,5.709,12.727,12.727S63.23,57.565,56.212,57.565z
			 M15.517,47.709 M29.019,45.84l-0.041,0.289c-0.11,0.767-0.317,1.5-0.606,2.19C28.701,47.541,28.923,46.709,29.019,45.84z
			 M56.212,35.797c4.985,0,9.041,4.056,9.041,9.041C65.254,39.853,61.198,35.797,56.212,35.797z M20.037,35.797
			c-4.985,0-9.041,4.056-9.041,9.041C10.996,39.853,15.052,35.797,20.037,35.797c0.002,0,0.004,0,0.006,0
			C20.042,35.797,20.039,35.797,20.037,35.797z M29.085,28.395l3.411,5.628l5.618,9.731l0.036-0.063l-9.116-15.789h18.232H28.787
			l-3.217-5.31h-4.023h4.023L29.085,28.395z M40.737,39.21l-2.203,3.817L40.737,39.21z M50.876,37.55
			c-0.332,0.244-0.645,0.508-0.938,0.79c0.249-0.239,0.514-0.467,0.794-0.68L50.876,37.55z M56.199,35.797
			c-0.414,0.001-0.835,0.033-1.259,0.097l0.084-0.011C55.462,35.825,55.835,35.798,56.199,35.797z M47.725,27.903l0.655,1.179
			v-1.179H47.725z M59.856,25.401v-2.808V25.401z"/>
	</g>
	<path fill="#FFFFFF" d="M56.212,33.955c-0.975,0-1.916,0.141-2.816,0.383l-3.173-5.727v-4.175h7.791v2.808h3.685V20.75H46.538v5.31
		h-16.44h-0.272l-0.984-1.624h3.448V20.75H19.704v3.685h4.827l2.412,3.981l-3.521,6.084c-1.067-0.35-2.203-0.546-3.386-0.546
		c-6.001,0-10.884,4.882-10.884,10.884s4.883,10.884,10.884,10.884c5.654,0,10.312-4.335,10.832-9.856h8.08l0.073,0l0.805-1.395
		l0.45-0.78v0l7.192-12.457l2.579,4.643c-2.847,1.965-4.72,5.247-4.72,8.96c0,6.002,4.883,10.884,10.884,10.884
		s10.884-4.882,10.884-10.884S62.214,33.955,56.212,33.955z M29.111,31.993l1.808,2.984l4.159,7.204h-4.499
		c-0.606-2.402-2.007-4.485-3.913-5.955L29.111,31.993z M24.802,39.457c0.836,0.741,1.499,1.67,1.92,2.725h-3.493L24.802,39.457z
		 M20.037,52.037c-3.97,0-7.199-3.229-7.199-7.199s3.229-7.199,7.199-7.199c0.507,0,1.002,0.054,1.48,0.154l-4.671,8.072h10.308
		C26.652,49.35,23.657,52.037,20.037,52.037z M38.149,40.007l-5.924-10.261h11.849L38.149,40.007z M56.212,52.037
		c-3.97,0-7.199-3.229-7.199-7.199c0-2.329,1.117-4.398,2.838-5.714l3.672,6.609h4.187l-4.446-8.024
		c0.311-0.041,0.626-0.07,0.948-0.07c3.97,0,7.199,3.229,7.199,7.199S60.182,52.037,56.212,52.037z"/>
	<path fill="none" stroke="#1B224D" stroke-width="1.911" stroke-miterlimit="10" d="M75.652,70.021"/>
	<path fill="none" stroke="#1B224D" stroke-width="1.5" stroke-miterlimit="10" d="M52.44,76.955"/>
	<line fill="none" stroke="#BBBFBF" stroke-width="2.5" stroke-miterlimit="10" x1="19.688" y1="20.704" x2="32.289" y2="20.75"/>
	<polyline fill="none" stroke="#BBBFBF" stroke-width="2.5" stroke-miterlimit="10" points="45.698,20.704 61.699,20.75 
		61.699,27.407 	"/>
	<path fill="#BBBFBF" d="M64,36.663c1.081,1.711,1.715,3.732,1.715,5.906c0,6.124-4.964,11.088-11.088,11.088
		c-2.992,0-5.701-1.19-7.696-3.116c1.964,3.11,5.422,5.182,9.373,5.182c6.124,0,11.088-4.964,11.088-11.088
		C67.392,41.503,66.088,38.68,64,36.663z"/>
	<g>
		<path fill="#1B224D" d="M29.111,31.993l-2.444,4.233c1.905,1.47,3.306,3.553,3.913,5.955h4.499l-4.159-7.204L29.111,31.993z"/>
		<path fill="#1B224D" d="M21.517,37.794c-0.478-0.1-0.972-0.154-1.48-0.154c-3.97,0-7.199,3.229-7.199,7.199
			s3.229,7.199,7.199,7.199c3.62,0,6.615-2.688,7.117-6.171H16.846L21.517,37.794z"/>
		<path fill="#1B224D" d="M24.802,39.457l-1.573,2.725h3.493C26.301,41.127,25.638,40.198,24.802,39.457z"/>
		<path fill="#1B224D" d="M56.212,32.112c-0.615,0-1.238,0.048-1.863,0.144l-2.284-4.122v-1.856h4.105v2.808h7.371V18.908H44.695
			v5.31H34.132v-5.31h-16.27v7.371h5.631l1.309,2.16l-2.271,3.924c-0.822-0.166-1.657-0.25-2.494-0.25
			c-7.018,0-12.727,5.709-12.727,12.727s5.709,12.727,12.727,12.727c6.03,0,11.095-4.133,12.399-9.856h7.649l4.173-7.229
			c-0.505,1.379-0.773,2.852-0.773,4.358c0,7.017,5.709,12.727,12.727,12.727s12.727-5.709,12.727-12.727
			S63.23,32.112,56.212,32.112z M56.212,55.723c-6.001,0-10.884-4.882-10.884-10.884c0-3.714,1.872-6.995,4.72-8.961l-2.579-4.643
			l-7.192,12.457v0l-0.45,0.78l-0.805,1.395l-0.073,0h-8.08c-0.52,5.521-5.178,9.856-10.832,9.856
			c-6.001,0-10.884-4.321-10.884-10.884c0-6.002,4.883-10.884,10.884-10.884c1.182,0,2.319,0.196,3.386,0.546l3.521-6.084
			l-2.412-3.981h-4.827V20.75h12.585v3.685h-3.448l0.984,1.624h0.272h16.44v-5.31h15.161v6.493h-3.685v-2.808h-7.791v4.175
			l3.173,5.727c0.9-0.242,1.841-0.383,2.816-0.383c6.001,0,10.884,4.882,10.884,10.884S62.214,55.723,56.212,55.723z"/>
		<path fill="#1B224D" d="M56.212,37.64c-0.322,0-0.637,0.029-0.948,0.07l4.446,8.024h-4.187l-3.672-6.609
			c-1.721,1.317-2.838,3.385-2.838,5.714c0,3.97,3.229,7.199,7.199,7.199s7.199-3.229,7.199-7.199S60.182,37.64,56.212,37.64z"/>
		<polygon fill="#1B224D" points="38.149,40.007 44.074,29.745 32.225,29.745 		"/>
	</g>
	<g>
		<path fill="#BBBFBF" d="M30.591,42.181c-0.486-2.139-1.586-4.045-3.111-5.518c1.016,1.609,1.63,3.493,1.701,5.518H30.591z"/>
		<path fill="#BBBFBF" d="M28.697,45.867c-1.404,4.513-5.614,7.79-10.589,7.79c-2.992,0-5.701-1.19-7.696-3.116
			c1.964,3.11,5.422,5.182,9.373,5.182c5.707,0,10.402-4.313,11.016-9.856H28.697z"/>
	</g>
</g>
</svg>
