<?xml version="1.0" encoding="utf-8"?>
<!-- Generator: Adobe Illustrator 17.0.0, SVG Export Plug-In . SVG Version: 6.00 Build 0)  -->
<!DOCTYPE svg PUBLIC "-//W3C//DTD SVG 1.1//EN" "http://www.w3.org/Graphics/SVG/1.1/DTD/svg11.dtd">
<svg version="1.1" id="Capa_1" xmlns="http://www.w3.org/2000/svg" xmlns:xlink="http://www.w3.org/1999/xlink" x="0px" y="0px"
	 width="76.543px" height="76.543px" viewBox="0 0 76.543 76.543" enable-background="new 0 0 76.543 76.543" xml:space="preserve">
<g>
	
		<linearGradient id="SVGID_1_" gradientUnits="userSpaceOnUse" x1="-1480.6261" y1="1287.6212" x2="-1479.7305" y2="1372.2546" gradientTransform="matrix(-1 0 0 -1 -1442.0197 1357.543)">
		<stop  offset="0.0105" style="stop-color:#0D1221"/>
		<stop  offset="0.0807" style="stop-color:#0F1527"/>
		<stop  offset="0.6703" style="stop-color:#1D2A57"/>
		<stop  offset="0.9634" style="stop-color:#23326A"/>
	</linearGradient>
	<path fill="url(#SVGID_1_)" d="M76.509,61.335c0,8.38-6.793,15.174-15.174,15.174H15.208c-8.38,0-15.174-6.794-15.174-15.174
		V15.208c0-8.38,6.793-15.174,15.174-15.174h46.128c8.38,0,15.174,6.794,15.174,15.174V61.335z"/>
	<g>
		<g>
			<g>
				<path fill="none" stroke="#4079B5" stroke-width="2" stroke-miterlimit="10" d="M55.408,39.866H20.619V13.38
					c0-3.587,2.796-6.506,6.233-6.506h22.321c3.438,0,6.234,2.918,6.234,6.506V39.866z M22.619,37.866h30.789V13.38
					c0-2.484-1.899-4.506-4.234-4.506H26.852c-2.334,0-4.233,2.021-4.233,4.506V37.866z M51.408,35.866H24.619V13.38
					c0-1.382,1.002-2.506,2.233-2.506h22.321c1.232,0,2.234,1.124,2.234,2.506V35.866z M26.619,33.866h22.789V13.38
					c0-0.312-0.183-0.494-0.238-0.506l-22.317,0c-0.057,0-0.233,0.185-0.233,0.506V33.866z"/>
			</g>
		</g>
		<g>
			<g>
				<path fill="none" stroke="#4079B5" stroke-width="2" stroke-miterlimit="10" d="M49.173,66.857H26.852
					c-3.438,0-6.233-2.918-6.233-6.505V33.866h34.789v26.486C55.408,63.939,52.611,66.857,49.173,66.857z M22.619,35.866v24.486
					c0,2.484,1.899,4.505,4.233,4.505h22.321c2.335,0,4.234-2.021,4.234-4.505V35.866H22.619z M49.173,62.857H26.852
					c-1.231,0-2.233-1.124-2.233-2.505V37.866h26.789v22.486C51.408,61.733,50.406,62.857,49.173,62.857z M26.619,39.866v20.486
					c0,0.321,0.177,0.505,0.233,0.505h22.321c0.057,0,0.234-0.185,0.234-0.505V39.866H26.619z"/>
			</g>
		</g>
	</g>
	<g>
		<g>
			<path fill="none" stroke="#EC5D25" stroke-width="2" stroke-miterlimit="10" d="M54.408,38.866H21.619V13.38
				c0-3.036,2.348-5.506,5.233-5.506h22.321c2.887,0,5.234,2.47,5.234,5.506V38.866z M25.619,34.866h24.789V13.38
				c0-0.816-0.565-1.506-1.234-1.506H26.852c-0.68,0-1.233,0.675-1.233,1.506V34.866z"/>
		</g>
		<g>
			<path fill="none" stroke="#EC5D25" stroke-width="2" stroke-miterlimit="10" d="M49.173,65.857H26.852
				c-2.886,0-5.233-2.47-5.233-5.505V34.866h32.789v25.486C54.408,63.388,52.06,65.857,49.173,65.857z M25.619,38.866v21.486
				c0,0.83,0.554,1.505,1.233,1.505h22.321c0.681,0,1.234-0.675,1.234-1.505V38.866H25.619z"/>
		</g>
	</g>
	<g>
		<path fill="none" stroke="#1B224D" stroke-width="4" stroke-miterlimit="10" d="M52.407,13.38c0-1.936-1.448-3.505-3.234-3.505
			H26.852c-1.787,0-3.234,1.57-3.234,3.505v23.486h28.789V13.38z"/>
		<path fill="none" stroke="#1B224D" stroke-width="4" stroke-miterlimit="10" d="M23.618,36.866v23.486
			c0,1.936,1.447,3.505,3.234,3.505h22.321c1.786,0,3.234-1.57,3.234-3.505V36.866H23.618z"/>
	</g>
	<g>
		<path fill="#FFFFFF" d="M52.407,13.38c0-1.936-1.448-3.505-3.234-3.505H26.852c-1.787,0-3.234,1.57-3.234,3.505v23.486h28.789
			V13.38z"/>
		<path fill="#FFFFFF" d="M23.618,36.866v23.486c0,1.936,1.447,3.505,3.234,3.505h22.321c1.786,0,3.234-1.57,3.234-3.505V36.866
			H23.618z"/>
	</g>
	<circle fill="#1B224D" cx="38.023" cy="22.446" r="2.756"/>
	<circle fill="#1B224D" cx="30.359" cy="43.17" r="2.756"/>
	<circle fill="#1B224D" cx="38.013" cy="50.317" r="2.756"/>
	<circle fill="#1B224D" cx="45.783" cy="56.847" r="2.756"/>
	<path fill="#BBBFBF" d="M50.275,61.858H28.59c-1.438,0-2.624-2.186-2.624-4.28V11.394c0-0.488-0.099-1.392,0.268-1.806
		c-1.243,0.623-2.617,2.182-2.617,3.666v46.811c0,2.094,1.048,3.793,3.792,3.793h21.685c1.607,0,2.605-1.003,3.158-2.413
		C51.742,61.7,51.541,61.858,50.275,61.858z"/>
</g>
</svg>
