<?xml version="1.0" encoding="utf-8"?>
<!-- Generator: Adobe Illustrator 17.0.0, SVG Export Plug-In . SVG Version: 6.00 Build 0)  -->
<!DOCTYPE svg PUBLIC "-//W3C//DTD SVG 1.1//EN" "http://www.w3.org/Graphics/SVG/1.1/DTD/svg11.dtd">
<svg version="1.1" id="Capa_1" xmlns="http://www.w3.org/2000/svg" xmlns:xlink="http://www.w3.org/1999/xlink" x="0px" y="0px"
	 width="76.543px" height="76.543px" viewBox="0 0 76.543 76.543" enable-background="new 0 0 76.543 76.543" xml:space="preserve">
<linearGradient id="SVGID_1_" gradientUnits="userSpaceOnUse" x1="-944.169" y1="2004.0782" x2="-943.2734" y2="2088.7117" gradientTransform="matrix(-1 0 0 -1 -905.5626 2074)">
	<stop  offset="0.0105" style="stop-color:#1B1A23"/>
	<stop  offset="0.4656" style="stop-color:#272846"/>
	<stop  offset="0.7986" style="stop-color:#272D5C"/>
	<stop  offset="0.9634" style="stop-color:#252E64"/>
</linearGradient>
<path fill="url(#SVGID_1_)" d="M76.509,61.335c0,8.38-6.794,15.174-15.174,15.174H15.208c-8.38,0-15.174-6.794-15.174-15.174V15.208
	c0-8.38,6.793-15.174,15.174-15.174h46.128c8.38,0,15.174,6.793,15.174,15.174V61.335z"/>
<g>
	<g>
		<path fill="none" stroke="#4176B6" stroke-width="2" stroke-miterlimit="10" d="M25.584,64.952c-5.145,0-9.333-1.37-11.793-3.857
			c-3.65-3.609-4.786-10.735-3.032-19.053c0.089-0.578,0.212-1.184,0.355-1.749c2.168-8.554,5.704-13.693,9.203-17.971
			c0.92-1.173,3.161-3.449,3.704-3.917c4.066-3.617,8.682-6.496,13.707-8.544c3.075-1.368,5.826-2.2,8.148-2.46
			c2.254-0.449,4.529-0.683,6.68-0.683c5.146,0,9.336,1.371,11.798,3.859c3.577,3.539,4.747,10.506,3.122,18.629
			c-0.184,1.263-2.166,13.074-12.11,22.94c-5.142,5.101-15.275,11.153-22.679,12.037C30.286,64.689,27.867,64.952,25.584,64.952z
			 M52.555,8.719c-2.021,0-4.166,0.221-6.375,0.657c-2.201,0.25-4.753,1.028-7.67,2.325c-4.843,1.975-9.266,4.733-13.174,8.21
			c-0.486,0.419-2.626,2.601-3.46,3.662c-3.365,4.115-6.753,9.036-8.825,17.213c-0.128,0.505-0.238,1.049-0.328,1.618
			c-1.623,7.701-0.692,14.141,2.479,17.278c2.09,2.112,5.773,3.271,10.378,3.271h0.001c2.146,0,4.428-0.249,6.78-0.74
			c7.067-0.847,16.686-6.617,21.593-11.484c9.647-9.572,11.476-21.364,11.549-21.862c1.501-7.512,0.539-13.801-2.566-16.874
			C60.848,9.879,57.163,8.719,52.555,8.719z M25.583,60.952c-4.068,0-7.251-0.954-8.965-2.686
			c-2.647-2.618-3.389-8.558-1.928-15.495c0.087-0.553,0.186-1.043,0.301-1.496c1.975-7.796,5.227-12.515,8.446-16.452
			c0.779-0.992,2.813-3.054,3.209-3.402c3.749-3.334,8.006-5.987,12.647-7.881c2.738-1.217,5.204-1.972,7.102-2.173l0.14-0.022
			c2.063-0.414,4.104-0.628,6.021-0.628c4.07,0,7.255,0.955,8.97,2.688c2.587,2.559,3.361,8.353,2.012,15.113
			c-0.637,4.278-3.679,13.535-10.989,20.788c-4.726,4.688-14.057,10.193-20.414,10.914l-0.142,0.024
			C29.791,60.711,27.619,60.952,25.583,60.952z M52.555,12.719c-1.785,0-3.694,0.201-5.676,0.597l-0.231,0.036
			c-1.736,0.185-3.993,0.884-6.571,2.029c-4.459,1.819-8.523,4.352-12.107,7.54c-0.34,0.298-2.291,2.286-2.972,3.153
			c-3.086,3.774-6.189,8.275-8.068,15.694c-0.1,0.394-0.187,0.828-0.274,1.368c-1.29,6.135-0.734,11.628,1.376,13.716
			c1.304,1.317,4.124,2.1,7.551,2.1c1.897,0,3.93-0.226,6.043-0.672l0.235-0.039c5.991-0.68,14.789-5.9,19.278-10.353
			c6.938-6.883,9.819-15.628,10.427-19.711c1.191-5.972,0.602-11.32-1.456-13.356C58.806,13.502,55.984,12.719,52.555,12.719z"/>
	</g>
</g>
<g>
	<path fill="none" stroke="#E65214" stroke-width="2" stroke-miterlimit="10" d="M25.584,63.952
		C25.583,63.952,25.583,63.952,25.584,63.952c-4.876,0-8.812-1.265-11.083-3.56c-3.409-3.372-4.448-10.16-2.764-18.144
		c0.092-0.589,0.207-1.163,0.346-1.708c2.12-8.366,5.582-13.395,9.007-17.585c0.873-1.111,3.075-3.355,3.582-3.791
		c3.985-3.545,8.513-6.371,13.432-8.377c2.993-1.331,5.663-2.144,7.882-2.392c2.273-0.449,4.482-0.676,6.568-0.676
		c4.877,0,8.814,1.265,11.087,3.563c3.339,3.304,4.411,9.937,2.853,17.73c-0.176,1.196-2.146,12.814-11.834,22.426
		c-5.04,5-14.898,10.895-22.093,11.753C30.148,63.696,27.798,63.952,25.584,63.952z M52.555,11.719c-1.85,0-3.826,0.208-5.872,0.617
		L46.5,12.363c-1.795,0.189-4.157,0.917-6.829,2.104c-4.554,1.858-8.696,4.443-12.366,7.708c-0.376,0.33-2.364,2.354-3.094,3.282
		c-3.158,3.862-6.323,8.457-8.251,16.066c-0.109,0.427-0.201,0.889-0.292,1.455c-1.378,6.544-0.719,12.231,1.661,14.585
		c1.507,1.523,4.51,2.389,8.254,2.389l0,0c1.966,0,4.069-0.233,6.25-0.694l0.188-0.03c6.15-0.697,15.215-6.059,19.823-10.63
		c7.124-7.068,10.085-16.069,10.712-20.273c1.272-6.374,0.582-11.916-1.742-14.214C59.305,12.585,56.3,11.719,52.555,11.719z"/>
</g>
<path fill="none" stroke="#21254B" stroke-width="4" stroke-miterlimit="10" d="M62.221,12.688
	c-2.784-2.814-8.872-3.725-15.931-2.314c-2.156,0.227-4.754,1.075-7.431,2.265c-4.394,1.791-8.842,4.446-12.883,8.041
	c-0.383,0.33-2.51,2.488-3.337,3.54c-3.566,4.361-6.677,9.152-8.617,16.811c-0.138,0.546-0.242,1.093-0.327,1.629
	c-1.525,7.225-0.638,13.488,2.229,16.324c2.835,2.866,9.099,3.754,16.323,2.23c6.827-0.774,16.369-6.596,21.007-11.197
	c8.056-7.993,10.742-17.776,11.282-21.398C65.946,21.56,65.034,15.472,62.221,12.688z"/>
<path fill="#FFFFFF" d="M62.221,12.688c-2.784-2.814-8.872-3.725-15.931-2.314c-2.156,0.227-4.754,1.075-7.431,2.265
	c-4.394,1.791-8.842,4.446-12.883,8.041c-0.383,0.33-2.51,2.488-3.337,3.54c-3.566,4.361-6.677,9.152-8.617,16.811
	c-0.138,0.546-0.242,1.093-0.327,1.629c-1.525,7.225-0.638,13.488,2.229,16.324c2.835,2.866,9.099,3.754,16.323,2.23
	c6.827-0.774,16.369-6.596,21.007-11.197c8.056-7.993,10.742-17.776,11.282-21.398C65.946,21.56,65.034,15.472,62.221,12.688z"/>
<path fill="#C6C7C8" d="M62.221,12.688c-0.708-0.716-1.632-1.307-2.729-1.77c1.356,3.217,1.597,7.938,0.544,13.202
	c-0.54,3.622-3.225,13.406-11.282,21.398c-4.638,4.601-14.179,10.423-21.006,11.197c-5.42,1.144-10.299,0.93-13.595-0.459
	c0.462,1.097,1.055,2.02,1.771,2.728c2.835,2.866,9.099,3.754,16.323,2.23c6.827-0.774,16.369-6.596,21.007-11.197
	c8.056-7.993,10.742-17.776,11.282-21.398C65.946,21.56,65.034,15.472,62.221,12.688z"/>
<g>
	<g>
		<g>
			<path fill="#FFFFFF" d="M33.657,44.993c-0.828-0.079-2.066-0.494-3.215-1.47c-1.276-1.078-1.797-2.341-1.933-3.084
				c0.367,0.3,0.867,0.765,1.27,1.14l1.265,1.167l0.659-0.746c0.721-0.816,1.448-1.625,2.183-2.427l0.601-0.656l-0.597-0.659
				c-0.893-0.985-1.296-1.831-1.439-2.316c0.378,0.165,1.058,0.558,2.142,1.495l0.705,0.61l0.642-0.676
				c0.768-0.81,1.542-1.613,2.327-2.408l0.655-0.664l-0.633-0.685c-0.868-0.938-1.301-1.62-1.5-2.039
				c0.42,0.198,1.102,0.631,2.041,1.5l0.685,0.633l0.664-0.655c0.795-0.784,1.598-1.559,2.407-2.328l0.675-0.642l-0.609-0.704
				c-0.887-1.026-1.309-1.725-1.492-2.131c0.496,0.145,1.253,0.528,2.11,1.262c0.127,0.117,0.911,0.846,1.504,1.59
				c0.15,0.188,0.28,0.375,0.389,0.557c0.479,0.751,0.725,1.351,0.834,1.748c-0.402-0.229-1.052-0.694-1.968-1.576l-0.671-0.646
				l-0.677,0.641c-0.811,0.769-1.614,1.545-2.409,2.33l-0.662,0.653l0.621,0.692c0.776,0.866,1.203,1.514,1.424,1.94
				c-0.427-0.222-1.076-0.649-1.942-1.425l-0.694-0.622l-0.653,0.665c-0.781,0.795-1.557,1.598-2.326,2.409l-0.642,0.677
				l0.647,0.672c0.877,0.91,1.342,1.557,1.572,1.96c-0.593-0.154-1.421-0.554-2.313-1.231l-0.708-0.538l-0.601,0.655
				c-0.737,0.802-1.464,1.612-2.186,2.427l-0.658,0.745l1.297,1.101C32.834,44.261,33.311,44.662,33.657,44.993z"/>
			<path fill="#20254A" d="M40.79,26.198c-0.261,0-0.463,0.07-0.586,0.215c-0.495,0.575,0.336,2.017,1.707,3.603
				c-0.813,0.773-1.621,1.552-2.42,2.341c-1.251-1.156-2.436-1.907-3.161-1.907c-0.201,0-0.366,0.057-0.488,0.18
				c-0.562,0.563,0.253,2.05,1.73,3.646c-0.79,0.801-1.568,1.608-2.34,2.422c-1.272-1.1-2.451-1.852-3.165-1.852
				c-0.177,0-0.325,0.046-0.439,0.144c-0.578,0.493,0.021,2.247,1.539,3.922c-0.739,0.806-1.471,1.62-2.195,2.441
				c-1.271-1.167-2.265-2.191-2.903-2.192c-0.09,0-0.174,0.021-0.249,0.064c-0.714,0.378-0.296,3.109,1.991,5.041
				c1.456,1.237,3.081,1.717,4.132,1.717c0.596,0,1.007-0.154,1.097-0.412c0.248-0.624-1.009-1.565-2.504-2.839
				c0.717-0.811,1.44-1.616,2.173-2.413c1.296,0.984,2.574,1.508,3.342,1.508c0.296,0,0.516-0.078,0.632-0.236
				c0.424-0.573-0.487-1.948-1.939-3.455c0.766-0.807,1.537-1.605,2.315-2.396c1.278,1.145,2.468,1.888,3.172,1.888
				c0.186,0,0.338-0.052,0.448-0.162c0.527-0.528-0.278-2.007-1.723-3.619c0.789-0.78,1.588-1.552,2.394-2.315
				c1.256,1.209,2.42,2.044,3.105,2.044c0.137,0,0.255-0.034,0.351-0.104c0.496-0.365,0.197-1.743-0.783-3.275
				c-0.008-0.013-0.017-0.027-0.025-0.04c-0.13-0.216-0.284-0.439-0.462-0.662c-0.619-0.778-1.413-1.522-1.633-1.724
				C42.719,26.754,41.524,26.198,40.79,26.198L40.79,26.198z"/>
		</g>
	</g>
	<g>
		<path fill="#21254B" d="M33.657,44.993c-0.828-0.079-2.066-0.494-3.215-1.47c-1.276-1.078-1.797-2.341-1.933-3.084
			c0.367,0.3,0.867,0.765,1.27,1.14l1.265,1.167l0.659-0.746c0.721-0.816,1.448-1.625,2.183-2.427l0.601-0.656l-0.597-0.659
			c-0.893-0.985-1.296-1.831-1.439-2.316c0.378,0.165,1.058,0.558,2.142,1.495l0.705,0.61l0.642-0.676
			c0.768-0.81,1.542-1.613,2.327-2.408l0.655-0.664l-0.633-0.685c-0.868-0.938-1.301-1.62-1.5-2.039
			c0.42,0.198,1.102,0.631,2.041,1.5l0.685,0.633l0.664-0.655c0.795-0.784,1.598-1.559,2.407-2.328l0.675-0.642l-0.609-0.704
			c-0.888-1.028-1.311-1.728-1.493-2.133c0.531,0.14,1.299,0.522,2.021,1.184c1.004,0.949,1.5,1.512,2.033,2.309
			c0.445,0.634,0.68,1.245,0.781,1.666c-0.402-0.229-1.051-0.694-1.966-1.575l-0.671-0.646l-0.677,0.641
			c-0.811,0.769-1.614,1.545-2.409,2.33l-0.662,0.653l0.621,0.692c0.776,0.866,1.203,1.514,1.424,1.94
			c-0.427-0.222-1.076-0.649-1.942-1.426l-0.694-0.622l-0.653,0.665c-0.781,0.795-1.557,1.598-2.326,2.409l-0.642,0.677l0.647,0.672
			c0.877,0.91,1.342,1.557,1.572,1.96c-0.593-0.154-1.421-0.554-2.313-1.231l-0.708-0.538l-0.601,0.655
			c-0.737,0.802-1.464,1.612-2.186,2.427l-0.658,0.745l1.297,1.101C32.834,44.261,33.311,44.662,33.657,44.993z"/>
		<path fill="#20254A" d="M40.799,26.203c-0.265,0-0.473,0.067-0.594,0.21c-0.495,0.575,0.336,2.017,1.707,3.603
			c-0.813,0.773-1.621,1.552-2.42,2.341c-1.251-1.157-2.436-1.907-3.161-1.907c-0.201,0-0.366,0.057-0.488,0.18
			c-0.562,0.563,0.253,2.05,1.73,3.646c-0.79,0.801-1.568,1.608-2.34,2.422c-1.272-1.1-2.451-1.852-3.165-1.852
			c-0.176,0-0.325,0.046-0.439,0.144c-0.578,0.493,0.021,2.247,1.539,3.922c-0.739,0.806-1.471,1.62-2.195,2.441
			c-1.271-1.167-2.265-2.192-2.903-2.192c-0.09,0-0.174,0.021-0.249,0.064c-0.714,0.378-0.296,3.109,1.991,5.041
			c1.456,1.237,3.081,1.717,4.132,1.717c0.596,0,1.007-0.154,1.097-0.412c0.248-0.624-1.009-1.565-2.504-2.839
			c0.717-0.811,1.44-1.616,2.173-2.413c1.296,0.984,2.574,1.508,3.342,1.508c0.296,0,0.516-0.078,0.632-0.236
			c0.424-0.573-0.487-1.948-1.939-3.455c0.766-0.807,1.537-1.605,2.315-2.396c1.278,1.145,2.468,1.888,3.172,1.888
			c0.186,0,0.338-0.052,0.448-0.162c0.527-0.528-0.278-2.007-1.723-3.619c0.789-0.78,1.588-1.552,2.394-2.315
			c1.256,1.209,2.42,2.044,3.105,2.044c0.137,0,0.255-0.034,0.351-0.104c0.496-0.365,0.136-1.968-0.783-3.275
			c-0.583-0.872-1.141-1.5-2.185-2.486C42.806,26.762,41.563,26.203,40.799,26.203L40.799,26.203z"/>
	</g>
</g>
<rect x="37.057" y="28.577" transform="matrix(0.7261 0.6876 -0.6876 0.7261 36.204 -15.9234)" fill="#C6C7C8" width="2.065" height="17.812"/>
<g>
	<path fill="#21254B" d="M33.657,44.993c-0.828-0.079-2.066-0.494-3.215-1.47c-1.276-1.078-1.797-2.341-1.933-3.084
		c0.367,0.3,0.867,0.765,1.27,1.14l1.265,1.167l0.659-0.746c0.721-0.816,1.448-1.625,2.183-2.427l0.601-0.656l-0.597-0.659
		c-0.893-0.985-1.296-1.831-1.439-2.316c0.378,0.165,1.058,0.558,2.142,1.495l0.705,0.61l0.642-0.676
		c0.768-0.81,1.542-1.613,2.327-2.408l0.655-0.664l-0.633-0.685c-0.868-0.938-1.301-1.62-1.5-2.039
		c0.42,0.198,1.102,0.631,2.041,1.5l0.685,0.633l0.664-0.655c0.795-0.784,1.598-1.559,2.407-2.328l0.675-0.642l-0.609-0.704
		c-0.888-1.028-1.311-1.728-1.493-2.133c0.531,0.14,1.299,0.522,2.021,1.184c1.004,0.949,1.5,1.512,2.033,2.309
		c0.445,0.634,0.68,1.245,0.781,1.666c-0.402-0.229-1.051-0.694-1.966-1.575l-0.671-0.646l-0.677,0.641
		c-0.811,0.769-1.614,1.545-2.409,2.33l-0.662,0.653l0.621,0.692c0.776,0.866,1.203,1.514,1.424,1.94
		c-0.427-0.222-1.076-0.649-1.942-1.426l-0.694-0.622l-0.653,0.665c-0.781,0.795-1.557,1.598-2.326,2.409l-0.642,0.677l0.647,0.672
		c0.877,0.91,1.342,1.557,1.572,1.96c-0.593-0.154-1.421-0.554-2.313-1.231l-0.708-0.538l-0.601,0.655
		c-0.737,0.802-1.464,1.612-2.186,2.427l-0.658,0.745l1.297,1.101C32.834,44.261,33.311,44.662,33.657,44.993z"/>
	<path fill="#20254A" d="M40.799,26.203c-0.265,0-0.473,0.067-0.594,0.21c-0.495,0.575,0.336,2.017,1.707,3.603
		c-0.813,0.773-1.621,1.552-2.42,2.341c-1.251-1.157-2.436-1.907-3.161-1.907c-0.201,0-0.366,0.057-0.488,0.18
		c-0.562,0.563,0.253,2.05,1.73,3.646c-0.79,0.801-1.568,1.608-2.34,2.422c-1.272-1.1-2.451-1.852-3.165-1.852
		c-0.176,0-0.325,0.046-0.439,0.144c-0.578,0.493,0.021,2.247,1.539,3.922c-0.739,0.806-1.471,1.62-2.195,2.441
		c-1.271-1.167-2.265-2.192-2.903-2.192c-0.09,0-0.174,0.021-0.249,0.064c-0.714,0.378-0.296,3.109,1.991,5.041
		c1.456,1.237,3.081,1.717,4.132,1.717c0.596,0,1.007-0.154,1.097-0.412c0.248-0.624-1.009-1.565-2.504-2.839
		c0.717-0.811,1.44-1.616,2.173-2.413c1.296,0.984,2.574,1.508,3.342,1.508c0.296,0,0.516-0.078,0.632-0.236
		c0.424-0.573-0.487-1.948-1.939-3.455c0.766-0.807,1.537-1.605,2.315-2.396c1.278,1.145,2.468,1.888,3.172,1.888
		c0.186,0,0.338-0.052,0.448-0.162c0.527-0.528-0.278-2.007-1.723-3.619c0.789-0.78,1.588-1.552,2.394-2.315
		c1.256,1.209,2.42,2.044,3.105,2.044c0.137,0,0.255-0.034,0.351-0.104c0.496-0.365,0.136-1.968-0.783-3.275
		c-0.583-0.872-1.141-1.5-2.185-2.486C42.806,26.762,41.563,26.203,40.799,26.203L40.799,26.203z"/>
</g>
<path fill="#C6C7C8" stroke="#C6C7C8" stroke-miterlimit="10" d="M34.036,42.77c0,0,3.504,2.8,1.15,4.108
	c-2.354,1.308-8.098-2.581-7.592-6.069C27.668,40.297,34.036,42.77,34.036,42.77z"/>
<path fill="#C6C7C8" stroke="#C6C7C8" stroke-miterlimit="10" d="M43.621,32.686c0,0,2.993,3.341,4.166,0.917
	c1.173-2.424-3.033-7.94-6.486-7.239C40.794,26.467,43.621,32.686,43.621,32.686z"/>
<path fill="#C6C7C8" stroke="#C6C7C8" stroke-miterlimit="10" d="M37.907,38.057c0,0,3.556,2.734,1.227,4.086
	c-2.329,1.352-8.144-2.43-7.704-5.926C31.494,35.704,37.907,38.057,37.907,38.057z"/>
<path fill="#C6C7C8" stroke="#C6C7C8" stroke-miterlimit="10" d="M41.964,33.75c0,0,3.199,3.144,0.723,4.204
	s-7.791-3.397-6.931-6.815C35.883,30.638,41.964,33.75,41.964,33.75z"/>
<g>
	<path fill="#21254B" d="M33.657,44.993c-0.828-0.079-2.066-0.494-3.215-1.47c-1.276-1.078-1.797-2.341-1.933-3.084
		c0.367,0.3,0.867,0.765,1.27,1.14l1.265,1.167l0.659-0.746c0.721-0.816,1.448-1.625,2.183-2.427l0.601-0.656l-0.597-0.659
		c-0.893-0.985-1.296-1.831-1.439-2.316c0.378,0.165,1.058,0.558,2.142,1.495l0.705,0.61l0.642-0.676
		c0.768-0.81,1.542-1.613,2.327-2.408l0.655-0.664l-0.633-0.685c-0.868-0.938-1.301-1.62-1.5-2.039
		c0.42,0.198,1.102,0.631,2.041,1.5l0.685,0.633l0.664-0.655c0.795-0.784,1.598-1.559,2.407-2.328l0.675-0.642l-0.609-0.704
		c-0.888-1.028-1.311-1.728-1.493-2.133c0.531,0.14,1.299,0.522,2.021,1.184c1.004,0.949,1.5,1.512,2.033,2.309
		c0.445,0.634,0.68,1.245,0.781,1.666c-0.402-0.229-1.051-0.694-1.966-1.575l-0.671-0.646l-0.677,0.641
		c-0.811,0.769-1.614,1.545-2.409,2.33l-0.662,0.653l0.621,0.692c0.776,0.866,1.203,1.514,1.424,1.94
		c-0.427-0.222-1.076-0.649-1.942-1.426l-0.694-0.622l-0.653,0.665c-0.781,0.795-1.557,1.598-2.326,2.409l-0.642,0.677l0.647,0.672
		c0.877,0.91,1.342,1.557,1.572,1.96c-0.593-0.154-1.421-0.554-2.313-1.231l-0.708-0.538l-0.601,0.655
		c-0.737,0.802-1.464,1.612-2.186,2.427l-0.658,0.745l1.297,1.101C32.834,44.261,33.311,44.662,33.657,44.993z"/>
	<path fill="#20254A" d="M40.799,26.203c-0.265,0-0.473,0.067-0.594,0.21c-0.495,0.575,0.336,2.017,1.707,3.603
		c-0.813,0.773-1.621,1.552-2.42,2.341c-1.251-1.157-2.436-1.907-3.161-1.907c-0.201,0-0.366,0.057-0.488,0.18
		c-0.562,0.563,0.253,2.05,1.73,3.646c-0.79,0.801-1.568,1.608-2.34,2.422c-1.272-1.1-2.451-1.852-3.165-1.852
		c-0.176,0-0.325,0.046-0.439,0.144c-0.578,0.493,0.021,2.247,1.539,3.922c-0.739,0.806-1.471,1.62-2.195,2.441
		c-1.271-1.167-2.265-2.192-2.903-2.192c-0.09,0-0.174,0.021-0.249,0.064c-0.714,0.378-0.296,3.109,1.991,5.041
		c1.456,1.237,3.081,1.717,4.132,1.717c0.596,0,1.007-0.154,1.097-0.412c0.248-0.624-1.009-1.565-2.504-2.839
		c0.717-0.811,1.44-1.616,2.173-2.413c1.296,0.984,2.574,1.508,3.342,1.508c0.296,0,0.516-0.078,0.632-0.236
		c0.424-0.573-0.487-1.948-1.939-3.455c0.766-0.807,1.537-1.605,2.315-2.396c1.278,1.145,2.468,1.888,3.172,1.888
		c0.186,0,0.338-0.052,0.448-0.162c0.527-0.528-0.278-2.007-1.723-3.619c0.789-0.78,1.588-1.552,2.394-2.315
		c1.256,1.209,2.42,2.044,3.105,2.044c0.137,0,0.255-0.034,0.351-0.104c0.496-0.365,0.136-1.968-0.783-3.275
		c-0.583-0.872-1.141-1.5-2.185-2.486C42.806,26.762,41.563,26.203,40.799,26.203L40.799,26.203z"/>
</g>
<g>
	<g>
		<g>
			<path fill="#20254A" d="M40.79,26.198c-0.261,0-0.463,0.07-0.586,0.215c-0.495,0.575,0.336,2.017,1.707,3.603
				c-0.813,0.773-1.621,1.552-2.42,2.341c-1.251-1.156-2.436-1.907-3.161-1.907c-0.201,0-0.366,0.057-0.488,0.18
				c-0.562,0.563,0.253,2.05,1.73,3.646c-0.79,0.801-1.568,1.608-2.34,2.422c-1.272-1.1-2.451-1.852-3.165-1.852
				c-0.177,0-0.325,0.046-0.439,0.144c-0.578,0.493,0.021,2.247,1.539,3.922c-0.739,0.806-1.471,1.62-2.195,2.441
				c-1.271-1.167-2.265-2.191-2.903-2.192c-0.09,0-0.174,0.021-0.249,0.064c-0.714,0.378-0.296,3.109,1.991,5.041
				c1.456,1.237,3.081,1.717,4.132,1.717c0.596,0,1.007-0.154,1.097-0.412c0.248-0.624-1.009-1.565-2.504-2.839
				c0.717-0.811,1.44-1.616,2.173-2.413c1.296,0.984,2.574,1.508,3.342,1.508c0.296,0,0.516-0.078,0.632-0.236
				c0.424-0.573-0.487-1.948-1.939-3.455c0.766-0.807,1.537-1.605,2.315-2.396c1.278,1.145,2.468,1.888,3.172,1.888
				c0.186,0,0.338-0.052,0.448-0.162c0.527-0.528-0.278-2.007-1.723-3.619c0.789-0.78,1.588-1.552,2.394-2.315
				c1.256,1.209,2.42,2.044,3.105,2.044c0.137,0,0.255-0.034,0.351-0.104c0.496-0.365,0.197-1.743-0.783-3.275
				c-0.008-0.013-0.017-0.027-0.025-0.04c-0.13-0.216-0.284-0.439-0.462-0.662c-0.619-0.778-1.413-1.522-1.633-1.724
				C42.719,26.754,41.524,26.198,40.79,26.198L40.79,26.198z"/>
		</g>
	</g>
	<g>
		<path fill="#21254B" d="M33.657,44.993c-0.828-0.079-2.066-0.494-3.215-1.47c-1.276-1.078-1.797-2.341-1.933-3.084
			c0.367,0.3,0.867,0.765,1.27,1.14l1.265,1.167l0.659-0.746c0.721-0.816,1.448-1.625,2.183-2.427l0.601-0.656l-0.597-0.659
			c-0.893-0.985-1.296-1.831-1.439-2.316c0.378,0.165,1.058,0.558,2.142,1.495l0.705,0.61l0.642-0.676
			c0.768-0.81,1.542-1.613,2.327-2.408l0.655-0.664l-0.633-0.685c-0.868-0.938-1.301-1.62-1.5-2.039
			c0.42,0.198,1.102,0.631,2.041,1.5l0.685,0.633l0.664-0.655c0.795-0.784,1.598-1.559,2.407-2.328l0.675-0.642l-0.609-0.704
			c-0.888-1.028-1.311-1.728-1.493-2.133c0.531,0.14,1.299,0.522,2.021,1.184c1.004,0.949,1.5,1.512,2.033,2.309
			c0.445,0.634,0.68,1.245,0.781,1.666c-0.402-0.229-1.051-0.694-1.966-1.575l-0.671-0.646l-0.677,0.641
			c-0.811,0.769-1.614,1.545-2.409,2.33l-0.662,0.653l0.621,0.692c0.776,0.866,1.203,1.514,1.424,1.94
			c-0.427-0.222-1.076-0.649-1.942-1.426l-0.694-0.622l-0.653,0.665c-0.781,0.795-1.557,1.598-2.326,2.409l-0.642,0.677l0.647,0.672
			c0.877,0.91,1.342,1.557,1.572,1.96c-0.593-0.154-1.421-0.554-2.313-1.231l-0.708-0.538l-0.601,0.655
			c-0.737,0.802-1.464,1.612-2.186,2.427l-0.658,0.745l1.297,1.101C32.834,44.261,33.311,44.662,33.657,44.993z"/>
		<path fill="#20254A" d="M40.799,26.203c-0.265,0-0.473,0.067-0.594,0.21c-0.495,0.575,0.336,2.017,1.707,3.603
			c-0.813,0.773-1.621,1.552-2.42,2.341c-1.251-1.157-2.436-1.907-3.161-1.907c-0.201,0-0.366,0.057-0.488,0.18
			c-0.562,0.563,0.253,2.05,1.73,3.646c-0.79,0.801-1.568,1.608-2.34,2.422c-1.272-1.1-2.451-1.852-3.165-1.852
			c-0.176,0-0.325,0.046-0.439,0.144c-0.578,0.493,0.021,2.247,1.539,3.922c-0.739,0.806-1.471,1.62-2.195,2.441
			c-1.271-1.167-2.265-2.192-2.903-2.192c-0.09,0-0.174,0.021-0.249,0.064c-0.714,0.378-0.296,3.109,1.991,5.041
			c1.456,1.237,3.081,1.717,4.132,1.717c0.596,0,1.007-0.154,1.097-0.412c0.248-0.624-1.009-1.565-2.504-2.839
			c0.717-0.811,1.44-1.616,2.173-2.413c1.296,0.984,2.574,1.508,3.342,1.508c0.296,0,0.516-0.078,0.632-0.236
			c0.424-0.573-0.487-1.948-1.939-3.455c0.766-0.807,1.537-1.605,2.315-2.396c1.278,1.145,2.468,1.888,3.172,1.888
			c0.186,0,0.338-0.052,0.448-0.162c0.527-0.528-0.278-2.007-1.723-3.619c0.789-0.78,1.588-1.552,2.394-2.315
			c1.256,1.209,2.42,2.044,3.105,2.044c0.137,0,0.255-0.034,0.351-0.104c0.496-0.365,0.136-1.968-0.783-3.275
			c-0.583-0.872-1.141-1.5-2.185-2.486C42.806,26.762,41.563,26.203,40.799,26.203L40.799,26.203z"/>
	</g>
</g>
</svg>
