<?xml version="1.0" encoding="utf-8"?>
<!-- Generator: Adobe Illustrator 17.0.0, SVG Export Plug-In . SVG Version: 6.00 Build 0)  -->
<!DOCTYPE svg PUBLIC "-//W3C//DTD SVG 1.1//EN" "http://www.w3.org/Graphics/SVG/1.1/DTD/svg11.dtd">
<svg version="1.1" id="Capa_1" xmlns="http://www.w3.org/2000/svg" xmlns:xlink="http://www.w3.org/1999/xlink" x="0px" y="0px"
	 width="76.543px" height="76.543px" viewBox="0 0 76.543 76.543" enable-background="new 0 0 76.543 76.543" xml:space="preserve">
<g>
	
		<linearGradient id="SVGID_1_" gradientUnits="userSpaceOnUse" x1="-1480.6261" y1="1287.6212" x2="-1479.7305" y2="1372.2546" gradientTransform="matrix(-1 0 0 -1 -1442.0197 1357.543)">
		<stop  offset="0.0105" style="stop-color:#0D1221"/>
		<stop  offset="0.0807" style="stop-color:#0F1527"/>
		<stop  offset="0.6703" style="stop-color:#1D2A57"/>
		<stop  offset="0.9634" style="stop-color:#23326A"/>
	</linearGradient>
	<path fill="url(#SVGID_1_)" d="M76.509,61.335c0,8.38-6.794,15.174-15.174,15.174H15.208c-8.38,0-15.174-6.794-15.174-15.174
		V15.208c0-8.38,6.793-15.174,15.174-15.174h46.128c8.38,0,15.174,6.794,15.174,15.174V61.335z"/>
	<g>
		<path fill="none" stroke="#4079B5" stroke-width="2" stroke-miterlimit="10" d="M40.574,64.164h-6.072l-1.104-8.612
			c-2.41-1.091-4.296-3.106-5.226-5.607l-0.168-0.452c-7.662-3.688-12.59-11.479-12.59-19.966c0-12.223,9.944-22.167,22.167-22.167
			c12.223,0,22.166,9.944,22.166,22.167c0,8.538-4.969,16.35-12.693,20.019l-0.173,0.456c-0.934,2.472-2.813,4.466-5.204,5.55
			L40.574,64.164z M36.262,62.164h2.553l1.029-8.034l0.56-0.213c2.124-0.81,3.804-2.495,4.608-4.623l0.465-1.224l0.376-0.17
			c7.227-3.268,11.896-10.479,11.896-18.372c0-11.12-9.047-20.167-20.166-20.167c-11.12,0-20.167,9.047-20.167,20.167
			c0,7.846,4.633,15.039,11.802,18.325l0.376,0.173l0.455,1.223c0.8,2.152,2.485,3.854,4.625,4.669l0.561,0.213L36.262,62.164z
			 M37.582,47.771c-10.06,0-18.244-8.184-18.244-18.244c0-10.06,8.184-18.244,18.244-18.244c10.06,0,18.243,8.184,18.243,18.244
			C55.825,39.587,47.642,47.771,37.582,47.771z M37.582,13.283c-8.957,0-16.244,7.287-16.244,16.244
			c0,8.957,7.287,16.244,16.244,16.244c8.956,0,16.243-7.287,16.243-16.244C53.825,20.57,46.538,13.283,37.582,13.283z"/>
	</g>
	<path fill="none" stroke="#EC5D25" stroke-width="2" stroke-miterlimit="10" d="M58.748,29.527
		c0-11.671-9.495-21.167-21.166-21.167c-11.672,0-21.167,9.495-21.167,21.167c0,8.536,5.09,15.89,12.385,19.235l0.31,0.835
		c0.912,2.452,2.808,4.341,5.207,5.255l1.065,8.312h4.313l1.065-8.313c2.382-0.907,4.27-2.778,5.188-5.204l0.317-0.837
		C53.613,45.487,58.748,38.103,58.748,29.527z M37.582,46.771c-9.509,0-17.244-7.735-17.244-17.244s7.735-17.244,17.244-17.244
		c9.508,0,17.243,7.735,17.243,17.244S47.09,46.771,37.582,46.771z"/>
	<path fill="#1B224D" d="M58.748,29.527c0-11.671-9.495-21.167-21.166-21.167c-11.672,0-21.167,9.495-21.167,21.167
		c0,8.536,5.09,15.89,12.385,19.235l0.31,0.835c0.912,2.452,2.808,4.341,5.207,5.255l1.065,8.312h4.313l1.065-8.313
		c2.382-0.907,4.27-2.778,5.188-5.204l0.317-0.837C53.613,45.487,58.748,38.103,58.748,29.527z M37.582,46.771
		c-9.509,0-17.244-7.735-17.244-17.244s7.735-17.244,17.244-17.244c9.508,0,17.243,7.735,17.243,17.244S47.09,46.771,37.582,46.771z
		"/>
	<circle fill="#FFFFFF" cx="37.582" cy="29.527" r="19.205"/>
	<path fill="#BBBFBF" d="M45.701,12.141c3.367,3.46,5.448,8.177,5.448,13.386c0,10.607-8.598,19.205-19.205,19.205
		c-2.906,0-5.65-0.664-8.119-1.819c3.489,3.585,8.359,5.819,13.757,5.819c10.607,0,19.205-8.598,19.205-19.205
		C56.787,21.826,52.244,15.203,45.701,12.141z"/>
	<g>
		<path fill="#FFFFFF" d="M37.498,50.475c-2.325,0-4.265-0.388-6.35-1.098c0.832,2.239,2.573,3.461,4.952,3.959l1.008,7.866h0.473
			V50.473C37.553,50.473,37.527,50.475,37.498,50.475z"/>
		<path fill="#BBBFBF" d="M37.582,50.473c2.249-0.006,4.238-0.239,6.266-0.917c-0.84,2.219-2.506,3.285-4.871,3.78l-1.008,7.866
			h-0.46"/>
	</g>
	<g>
		<g>
			<path fill="#1B224D" d="M30.67,43.964L30.67,43.964c-0.26,0-0.51-0.07-0.75-0.2l0,0c-0.72-0.42-0.96-1.34-0.55-2.05l0,0
				c0.42-0.72,1.34-0.96,2.05-0.55l0,0c0.72,0.42,0.97,1.33,0.55,2.05C31.69,43.694,31.19,43.964,30.67,43.964z M27.55,41.564
				L27.55,41.564c-0.38,0-0.76-0.15-1.06-0.44l0,0l0,0l0,0c-0.58-0.59-0.58-1.53,0-2.12l0,0c0.59-0.59,1.54-0.58,2.119,0h0.011
				c0.58,0.59,0.58,1.54-0.011,2.12C28.321,41.414,27.94,41.564,27.55,41.564z M25.16,38.444L25.16,38.444
				c-0.521,0-1.021-0.27-1.301-0.75l0,0c-0.42-0.72-0.17-1.64,0.551-2.05l0,0c0.71-0.41,1.63-0.17,2.04,0.55l0,0
				c0.42,0.72,0.18,1.63-0.54,2.05C25.67,38.374,25.41,38.444,25.16,38.444z"/>
		</g>
	</g>
	<g>
		<path fill="#1B224D" d="M31.232,39.809L31.232,39.809c-0.215-0.045-0.43-0.142-0.613-0.293l0,0c-0.01-0.002-0.01-0.002-0.01-0.002
			l0,0c-0.648-0.515-0.755-1.458-0.24-2.105l0,0c0.515-0.647,1.467-0.753,2.114-0.238l-0.01-0.002
			c0.657,0.517,0.765,1.459,0.25,2.107C32.351,39.739,31.77,39.922,31.232,39.809z M28.652,36.832L28.652,36.832
			c-0.401-0.085-0.767-0.336-0.985-0.709l0,0l0,0l0,0c-0.422-0.713-0.187-1.634,0.536-2.054l0,0
			c0.713-0.422,1.632-0.177,2.054,0.536l0,0c0.412,0.71,0.176,1.632-0.535,2.053C29.383,36.853,29.004,36.906,28.652,36.832z"/>
	</g>
	<g>
		<path fill="none" d="M37.582,52.711v1.348C37.599,53.567,37.613,53.106,37.582,52.711z"/>
		<path fill="#FFFFFF" d="M37.566,55.29c-0.012-0.417,0.002-0.832,0.016-1.231v-1.348c-0.06-0.76-0.298-1.278-1.066-1.278
			c-3.358,0-5.368-2.056-5.368-2.056c0.832,2.239,2.573,3.461,4.952,3.959l1.008,7.866h0.473v-5.947L37.566,55.29z"/>
		<path fill="#BBBFBF" d="M37.566,55.29l0.016-0.034v-1.197C37.568,54.457,37.553,54.872,37.566,55.29z"/>
		<path fill="#BBBFBF" d="M37.582,52.711v-2.238c-0.029,0-0.055,0.002-0.084,0.002c-2.325,0-4.265-0.388-6.35-1.098
			c0,0,2.009,2.056,5.368,2.056C37.284,51.432,37.521,51.951,37.582,52.711z"/>
	</g>
</g>
</svg>
