<?xml version="1.0" encoding="utf-8"?>
<!-- Generator: Adobe Illustrator 17.0.0, SVG Export Plug-In . SVG Version: 6.00 Build 0)  -->
<!DOCTYPE svg PUBLIC "-//W3C//DTD SVG 1.1//EN" "http://www.w3.org/Graphics/SVG/1.1/DTD/svg11.dtd">
<svg version="1.1" id="Capa_1" xmlns="http://www.w3.org/2000/svg" xmlns:xlink="http://www.w3.org/1999/xlink" x="0px" y="0px"
	 width="76.543px" height="76.543px" viewBox="0 0 76.543 76.543" enable-background="new 0 0 76.543 76.543" xml:space="preserve">
<g>
	
		<linearGradient id="SVGID_1_" gradientUnits="userSpaceOnUse" x1="-1480.6261" y1="1287.6212" x2="-1479.7305" y2="1372.2546" gradientTransform="matrix(-1 0 0 -1 -1442.0197 1357.543)">
		<stop  offset="0.0105" style="stop-color:#0D1221"/>
		<stop  offset="0.0807" style="stop-color:#0F1527"/>
		<stop  offset="0.6703" style="stop-color:#1D2A57"/>
		<stop  offset="0.9634" style="stop-color:#23326A"/>
	</linearGradient>
	<path fill="url(#SVGID_1_)" d="M76.509,61.335c0,8.38-6.793,15.174-15.174,15.174H15.208c-8.38,0-15.174-6.794-15.174-15.174
		V15.208c0-8.38,6.793-15.174,15.174-15.174h46.128c8.38,0,15.174,6.794,15.174,15.174V61.335z"/>
	<g>
		<g>
			<path fill="none" stroke="#4079B5" stroke-width="2" stroke-miterlimit="10" d="M21.695,53.139c-1.471,0-2.854-0.563-3.9-1.587
				c-1.538,0.043-2.977-0.545-4.053-1.622l-1.336-1.336c-1.079-1.078-1.656-2.533-1.622-4.052l-0.322-0.322
				c-2.174-2.175-2.174-5.713,0-7.888l3.159-3.159c1.051-1.051,2.451-1.63,3.943-1.63c1.008,0,1.992,0.272,2.847,0.778
				l13.469-13.469c-1.269-2.148-0.961-4.976,0.851-6.79l3.16-3.159c1.05-1.051,2.45-1.63,3.942-1.63
				c1.473,0,2.855,0.563,3.902,1.588c1.487-0.038,2.978,0.546,4.053,1.622l1.335,1.336c1.08,1.078,1.657,2.533,1.623,4.052
				l0.321,0.322c2.174,2.175,2.174,5.713,0,7.887l-3.159,3.159c-1.05,1.051-2.451,1.63-3.943,1.63c-1.166,0-2.277-0.354-3.209-1.011
				L29.428,41.222c1.517,2.19,1.3,5.196-0.63,7.127l-3.159,3.159C24.587,52.56,23.186,53.139,21.695,53.139z M18.549,49.476
				l0.618,0.619c1.346,1.345,3.71,1.347,5.058-0.001l3.159-3.159c1.395-1.395,1.395-3.664,0-5.059l-0.706-0.706l0.694-0.718
				l15.331-15.373l0.708,0.72c1.396,1.398,3.738,1.372,5.084,0.026l3.159-3.159c1.395-1.395,1.395-3.664,0-5.059l-0.981-0.982
				l0.053-0.477c0.12-1.089-0.25-2.151-1.016-2.916l-1.335-1.336c-0.761-0.761-1.819-1.134-2.917-1.015l-0.478,0.052l-0.617-0.618
				c-1.345-1.345-3.712-1.347-5.058,0l-3.16,3.159c-1.306,1.307-1.394,3.433-0.201,4.841l0.596,0.703L20.577,34.981l-0.703-0.596
				c-1.373-1.166-3.561-1.078-4.839,0.201l-3.159,3.159c-1.395,1.395-1.395,3.665,0,5.06l0.981,0.981l-0.052,0.477
				c-0.12,1.089,0.25,2.152,1.015,2.916l1.336,1.337c0.764,0.764,1.825,1.139,2.914,1.015L18.549,49.476z M21.695,49.139
				c-0.422,0-0.818-0.163-1.114-0.457l-1.584-1.584l-0.637,0.301c-0.239,0.114-0.471,0.169-0.709,0.169l0,0
				c-0.281,0-0.696-0.081-1.082-0.466l-1.336-1.336c-0.465-0.466-0.584-1.187-0.296-1.793l0.3-0.635L13.29,41.39
				c-0.614-0.615-0.614-1.616-0.001-2.23l3.16-3.159c0.594-0.593,1.638-0.592,2.23,0.001l1.854,1.853l18.881-18.881l-1.854-1.852
				c-0.296-0.296-0.459-0.692-0.459-1.116c0-0.423,0.163-0.819,0.458-1.115l3.16-3.159c0.588-0.591,1.639-0.591,2.229,0l1.583,1.584
				l0.637-0.301c0.243-0.114,0.474-0.169,0.71-0.169c0.279,0,0.694,0.081,1.08,0.464l1.337,1.338
				c0.465,0.463,0.585,1.184,0.298,1.791l-0.301,0.637l1.946,1.947c0.296,0.295,0.459,0.691,0.459,1.115
				c0.001,0.423-0.162,0.819-0.458,1.115l-3.16,3.159c-0.587,0.591-1.637,0.592-2.229,0l-2.155-2.156L23.839,41.161l2.13,2.129
				c0.296,0.296,0.459,0.692,0.459,1.115s-0.163,0.819-0.459,1.115l-3.159,3.159C22.513,48.976,22.118,49.139,21.695,49.139z
				 M19.416,44.687l2.279,2.28l2.561-2.561l-3.244-3.243l21.68-21.739l3.272,3.272l2.561-2.56l-2.644-2.645l0.78-1.65l-0.898-0.899
				l-1.652,0.781l-2.277-2.28l-2.561,2.56l2.969,2.968L20.533,40.682l-2.97-2.968l-2.561,2.561l2.644,2.643l-0.78,1.652l0.898,0.898
				L19.416,44.687z"/>
		</g>
	</g>
	<g>
		<g>
			<path fill="none" stroke="#4079B5" stroke-width="2" stroke-miterlimit="10" d="M35.275,66.718c-1.492,0-2.893-0.579-3.944-1.631
				l-7.29-7.29c-2.175-2.174-2.175-5.713,0-7.887l3.159-3.159c1.051-1.051,2.451-1.63,3.943-1.63c1.009,0,1.993,0.272,2.847,0.778
				L47.458,32.43c-1.269-2.148-0.961-4.976,0.853-6.79l3.159-3.159c1.051-1.051,2.452-1.63,3.943-1.63
				c1.49,0,2.891,0.579,3.943,1.63l7.29,7.291c2.174,2.175,2.174,5.713,0,7.887l-3.159,3.159c-1.05,1.051-2.451,1.63-3.943,1.63
				c-1.166,0-2.277-0.354-3.209-1.011L43.01,54.799c0.649,0.931,0.997,2.031,0.997,3.187c0,1.492-0.579,2.893-1.631,3.944
				l-3.158,3.158C38.167,66.139,36.767,66.718,35.275,66.718z M31.143,47.121c-0.958,0-1.855,0.371-2.528,1.044l-3.159,3.159
				c-1.395,1.395-1.395,3.664,0,5.059l7.29,7.29c1.348,1.348,3.711,1.348,5.058,0l3.159-3.158c0.674-0.674,1.045-1.572,1.045-2.53
				s-0.371-1.856-1.045-2.529l-0.707-0.706l0.695-0.718l15.331-15.374l0.708,0.72c1.397,1.398,3.739,1.372,5.084,0.026l3.159-3.159
				c1.395-1.395,1.395-3.664,0-5.059l-7.29-7.291c-1.348-1.347-3.711-1.347-5.059,0l-3.159,3.159
				c-1.307,1.306-1.395,3.433-0.201,4.841l0.596,0.702L34.157,48.56l-0.703-0.596C32.804,47.413,32.005,47.121,31.143,47.121z
				 M35.275,62.718c-0.422,0-0.818-0.163-1.114-0.458l-7.291-7.291c-0.614-0.615-0.614-1.616-0.001-2.23l3.16-3.159
				c0.594-0.592,1.638-0.59,2.229-0.001l1.854,1.855l18.881-18.882L51.14,30.7c-0.296-0.295-0.459-0.691-0.459-1.115
				c-0.001-0.423,0.162-0.819,0.458-1.115l3.16-3.159c0.584-0.587,1.635-0.593,2.229-0.001l7.29,7.292
				c0.296,0.295,0.459,0.691,0.459,1.115c0.001,0.423-0.162,0.819-0.458,1.115l-3.16,3.159c-0.587,0.591-1.637,0.592-2.229,0
				l-2.155-2.156L37.419,54.741l2.129,2.13c0.296,0.296,0.459,0.692,0.459,1.115c0,0.422-0.162,0.818-0.458,1.114l-3.159,3.16
				C36.092,62.556,35.697,62.718,35.275,62.718z M28.582,53.854l6.692,6.692l2.56-2.561l-3.242-3.243l21.679-21.739l3.272,3.272
				l2.561-2.56l-6.691-6.692l-2.561,2.561l2.969,2.968l-21.709,21.71l-2.969-2.969L28.582,53.854z"/>
		</g>
	</g>
	<g>
		<path fill="none" stroke="#EC5D25" stroke-width="2" stroke-miterlimit="10" d="M21.695,52.139c-1.224,0-2.374-0.475-3.236-1.337
			l-0.277-0.278c-1.385,0.156-2.755-0.324-3.733-1.302l-1.336-1.336c-0.993-0.993-1.451-2.376-1.302-3.732l-0.642-0.642
			c-1.785-1.785-1.785-4.689,0-6.474l3.159-3.159c0.862-0.863,2.012-1.337,3.236-1.337c1.097,0,2.134,0.381,2.958,1.081l14.66-14.66
			c-1.523-1.797-1.437-4.5,0.256-6.194l3.16-3.159c0.861-0.862,2.011-1.337,3.235-1.337s2.374,0.475,3.236,1.336l0.278,0.278
			c1.383-0.152,2.755,0.324,3.733,1.302l1.335,1.336c0.994,0.993,1.452,2.376,1.303,3.732L52.36,16.9
			c1.784,1.785,1.784,4.689,0,6.473l-3.159,3.159c-0.861,0.862-2.011,1.337-3.236,1.337c-1.225,0-2.374-0.475-3.237-1.338
			l-0.03-0.031L28.079,41.158l0.011,0.011c1.785,1.785,1.785,4.688,0,6.473l-3.159,3.159C24.069,51.664,22.919,52.139,21.695,52.139
			z M19.207,45.892l2.081,2.081c0.145,0.144,0.318,0.166,0.408,0.166s0.263-0.021,0.408-0.166l3.159-3.159
			c0.145-0.145,0.166-0.318,0.166-0.408s-0.021-0.264-0.166-0.408l-2.836-2.835l20.268-20.323l2.863,2.864
			c0.145,0.145,0.318,0.166,0.408,0.166c0.091,0,0.264-0.021,0.407-0.166l3.16-3.159c0.221-0.221,0.221-0.595-0.001-0.816
			l-2.444-2.445l0.602-1.273c0.089-0.188,0.093-0.463-0.101-0.656l-1.336-1.337c-0.244-0.243-0.479-0.183-0.656-0.1l-1.274,0.603
			l-2.08-2.082c-0.144-0.144-0.317-0.165-0.408-0.165c-0.09,0-0.263,0.021-0.406,0.166l-3.16,3.159
			c-0.221,0.221-0.221,0.595,0,0.816l2.561,2.56L20.533,39.268l-2.561-2.56c-0.145-0.145-0.318-0.167-0.409-0.167
			s-0.263,0.021-0.408,0.166l-3.159,3.159c-0.221,0.222-0.221,0.595,0,0.817l2.445,2.444L15.841,44.4
			c-0.089,0.188-0.093,0.465,0.1,0.658l1.336,1.336c0.243,0.243,0.479,0.184,0.656,0.1L19.207,45.892z"/>
	</g>
	<g>
		<path fill="none" stroke="#EC5D25" stroke-width="2" stroke-miterlimit="10" d="M35.275,65.718c-1.224,0-2.374-0.475-3.236-1.338
			l-7.29-7.29c-1.785-1.785-1.785-4.688,0-6.473l3.159-3.159c0.862-0.863,2.012-1.337,3.236-1.337c1.097,0,2.134,0.381,2.958,1.081
			l14.66-14.66c-1.523-1.797-1.438-4.5,0.257-6.194l3.159-3.159c0.862-0.862,2.012-1.337,3.236-1.337
			c1.224,0,2.373,0.475,3.236,1.337l7.29,7.291c1.784,1.785,1.784,4.689,0,6.473l-3.159,3.159c-0.861,0.862-2.011,1.337-3.236,1.337
			c-1.225,0-2.374-0.475-3.237-1.338l-0.03-0.031L41.658,54.738l0.011,0.011c0.863,0.862,1.338,2.012,1.338,3.236
			s-0.475,2.374-1.338,3.237l-3.158,3.158C37.649,65.243,36.499,65.718,35.275,65.718z M31.143,50.121
			c-0.09,0-0.263,0.021-0.408,0.166l-3.159,3.159c-0.221,0.222-0.221,0.595,0,0.817l7.29,7.29c0.145,0.145,0.318,0.166,0.408,0.166
			s0.263-0.021,0.408-0.166l3.158-3.159c0.145-0.145,0.166-0.318,0.166-0.408s-0.021-0.263-0.166-0.408l-2.835-2.836l20.267-20.323
			l2.863,2.864c0.145,0.145,0.318,0.166,0.408,0.166c0.091,0,0.264-0.021,0.407-0.166l3.16-3.159
			c0.221-0.221,0.221-0.595-0.001-0.816l-7.289-7.29c-0.145-0.144-0.318-0.166-0.408-0.166c-0.091,0-0.264,0.021-0.407,0.166
			l-3.16,3.159c-0.221,0.221-0.221,0.595,0.001,0.816l2.561,2.56L34.112,52.848l-2.561-2.561
			C31.407,50.143,31.234,50.121,31.143,50.121z"/>
	</g>
	<path fill="none" stroke="#1B224D" stroke-width="4" stroke-miterlimit="10" d="M42.695,23.67l1.447,1.447
		c1.002,1.002,2.642,1.003,3.645,0l3.159-3.159c1.003-1.003,1.002-2.642,0-3.645l-1.449-1.449c0.452-0.957,0.294-2.137-0.494-2.925
		l-1.336-1.336c-0.788-0.788-1.968-0.947-2.925-0.494l-1.085-1.085c-1.002-1.002-2.642-1.003-3.645,0l-3.159,3.159
		c-1.003,1.003-1.002,2.642,0,3.645l1.146,1.146L20.532,36.44l-1.146-1.146c-1.002-1.002-2.642-1.003-3.645,0l-3.159,3.159
		c-1.003,1.003-1.002,2.642,0,3.645l1.449,1.449c-0.452,0.957-0.294,2.137,0.494,2.925l1.336,1.337
		c0.788,0.788,1.968,0.947,2.925,0.494l1.085,1.085c1.002,1.002,2.642,1.003,3.645,0l3.159-3.159c1.003-1.003,1.002-2.642,0-3.645
		l-1.424-1.424L42.695,23.67z"/>
	<path fill="none" stroke="#1B224D" stroke-width="4" stroke-miterlimit="10" d="M56.275,37.249l1.447,1.447
		c1.002,1.002,2.642,1.003,3.645,0l3.159-3.159c1.003-1.003,1.002-2.642,0-3.645l-7.29-7.29c-1.002-1.002-2.642-1.003-3.645,0
		l-3.159,3.159c-1.003,1.003-1.002,2.642,0,3.645l1.146,1.146L34.112,50.019l-1.146-1.146c-1.002-1.002-2.642-1.003-3.645,0
		l-3.159,3.159c-1.003,1.003-1.002,2.642,0,3.645l7.29,7.29c1.002,1.002,2.642,1.003,3.645,0l3.159-3.159
		c1.003-1.003,1.002-2.642,0-3.645l-1.424-1.424L56.275,37.249z"/>
	<path fill="none" stroke="#1B224D" stroke-width="4" stroke-miterlimit="10" d="M42.695,23.67l1.447,1.447
		c1.002,1.002,2.642,1.003,3.645,0l3.159-3.159c1.003-1.003,1.002-2.642,0-3.645l-1.449-1.449c0.452-0.957,0.294-2.137-0.494-2.925
		l-1.336-1.336c-0.788-0.788-1.968-0.947-2.925-0.494l-1.085-1.085c-1.002-1.002-2.642-1.003-3.645,0l-3.159,3.159
		c-1.003,1.003-1.002,2.642,0,3.645l1.146,1.146L20.532,36.44l-1.146-1.146c-1.002-1.002-2.642-1.003-3.645,0l-3.159,3.159
		c-1.003,1.003-1.002,2.642,0,3.645l1.449,1.449c-0.452,0.957-0.294,2.137,0.494,2.925l1.336,1.337
		c0.788,0.788,1.968,0.947,2.925,0.494l1.085,1.085c1.002,1.002,2.642,1.003,3.645,0l3.159-3.159c1.003-1.003,1.002-2.642,0-3.645
		l-1.424-1.424L42.695,23.67z"/>
	<path fill="none" stroke="#1B224D" stroke-width="4" stroke-miterlimit="10" d="M56.275,37.249l1.447,1.447
		c1.002,1.002,2.642,1.003,3.645,0l3.159-3.159c1.003-1.003,1.002-2.642,0-3.645l-7.29-7.29c-1.002-1.002-2.642-1.003-3.645,0
		l-3.159,3.159c-1.003,1.003-1.002,2.642,0,3.645l1.146,1.146L34.112,50.019l-1.146-1.146c-1.002-1.002-2.642-1.003-3.645,0
		l-3.159,3.159c-1.003,1.003-1.002,2.642,0,3.645l7.29,7.29c1.002,1.002,2.642,1.003,3.645,0l3.159-3.159
		c1.003-1.003,1.002-2.642,0-3.645l-1.424-1.424L56.275,37.249z"/>
	<path fill="#FFFFFF" d="M42.695,23.67l1.447,1.447c1.002,1.002,2.642,1.003,3.645,0l3.159-3.159c1.003-1.003,1.002-2.642,0-3.645
		l-1.449-1.449c0.452-0.957,0.294-2.137-0.494-2.925l-1.336-1.336c-0.788-0.788-1.968-0.947-2.925-0.494l-1.085-1.085
		c-1.002-1.002-2.642-1.003-3.645,0l-3.159,3.159c-1.003,1.003-1.002,2.642,0,3.645l1.146,1.146L20.532,36.44l-1.146-1.146
		c-1.002-1.002-2.642-1.003-3.645,0l-3.159,3.159c-1.003,1.003-1.002,2.642,0,3.645l1.449,1.449
		c-0.452,0.957-0.294,2.137,0.494,2.925l1.336,1.337c0.788,0.788,1.968,0.947,2.925,0.494l1.085,1.085
		c1.002,1.002,2.642,1.003,3.645,0l3.159-3.159c1.003-1.003,1.002-2.642,0-3.645l-1.424-1.424L42.695,23.67z"/>
	<path fill="#FFFFFF" d="M56.275,37.249l1.447,1.447c1.002,1.002,2.642,1.003,3.645,0l3.159-3.159c1.003-1.003,1.002-2.642,0-3.645
		l-7.29-7.29c-1.002-1.002-2.642-1.003-3.645,0l-3.159,3.159c-1.003,1.003-1.002,2.642,0,3.645l1.146,1.146L34.112,50.019
		l-1.146-1.146c-1.002-1.002-2.642-1.003-3.645,0l-3.159,3.159c-1.003,1.003-1.002,2.642,0,3.645l7.29,7.29
		c1.002,1.002,2.642,1.003,3.645,0l3.159-3.159c1.003-1.003,1.002-2.642,0-3.645l-1.424-1.424L56.275,37.249z"/>
	<g>
		<g>
			<path fill="#BBBFBF" d="M25.253,41.16l15.95-15.994c-0.019-0.018,1.466-1.478,1.447-1.496l-1.447-1.447L22.253,41.16l1.424,1.424
				c1.002,1.002,1.003,2.642,0,3.645l-3.159,3.159c-0.1,0.1-0.211,0.183-0.322,0.263c1.005,0.722,2.42,0.64,3.322-0.263l3.159-3.159
				c1.003-1.003,1.002-2.642,0-3.645L25.253,41.16z"/>
		</g>
	</g>
	<path fill="#FFFFFF" d="M56.275,37.249l1.447,1.447c1.002,1.002,2.642,1.003,3.645,0l3.159-3.159c1.003-1.003,1.002-2.642,0-3.645
		l-7.29-7.29c-1.002-1.002-2.642-1.003-3.645,0l-3.159,3.159c-1.003,1.003-1.002,2.642,0,3.645l1.146,1.146L34.112,50.019
		l-1.146-1.146c-1.002-1.002-2.642-1.003-3.645,0l-3.159,3.159c-1.003,1.003-1.002,2.642,0,3.645l7.29,7.29
		c1.002,1.002,2.642,1.003,3.645,0l3.159-3.159c1.003-1.003,1.002-2.642,0-3.645l-1.424-1.424L56.275,37.249z"/>
	<polyline fill="#1B224D" points="42.956,25.995 46.632,26.782 48.309,25.995 49.018,26.348 48.69,29.671 50.119,32.598 
		34.494,48.223 28.517,47.149 27.153,40.678 42.904,26.254 	"/>
	<g>
		<g>
			<path fill="#BBBFBF" d="M38.817,54.724l15.95-15.994c-0.019-0.018,1.466-1.478,1.447-1.496l-1.447-1.447l-18.95,18.938
				l1.424,1.424c1.002,1.002,1.003,2.642,0,3.645l-3.159,3.159c-0.1,0.1-0.211,0.183-0.322,0.263c1.005,0.722,2.42,0.64,3.322-0.263
				l3.159-3.159c1.003-1.003,1.002-2.642,0-3.645L38.817,54.724z"/>
		</g>
	</g>
</g>
</svg>
