<?xml version="1.0" encoding="utf-8"?>
<!-- Generator: Adobe Illustrator 17.0.0, SVG Export Plug-In . SVG Version: 6.00 Build 0)  -->
<!DOCTYPE svg PUBLIC "-//W3C//DTD SVG 1.1//EN" "http://www.w3.org/Graphics/SVG/1.1/DTD/svg11.dtd">
<svg version="1.1" id="Capa_1" xmlns="http://www.w3.org/2000/svg" xmlns:xlink="http://www.w3.org/1999/xlink" x="0px" y="0px"
	 width="76.543px" height="76.543px" viewBox="0 0 76.543 76.543" enable-background="new 0 0 76.543 76.543" xml:space="preserve">
<g>
	<g>
		<g>
			<linearGradient id="SVGID_1_" gradientUnits="userSpaceOnUse" x1="15.2399" y1="35.4523" x2="66.0502" y2="35.4523">
				<stop  offset="0.0105" style="stop-color:#0D1221"/>
				<stop  offset="0.0807" style="stop-color:#0F1527"/>
				<stop  offset="0.6703" style="stop-color:#1D2A57"/>
				<stop  offset="0.9634" style="stop-color:#23326A"/>
			</linearGradient>
			<path fill="url(#SVGID_1_)" d="M23.379,64.504c-1.697,0-3.327-0.521-4.714-1.507c-1.772-1.26-2.947-3.136-3.31-5.28
				c-0.361-2.144,0.134-4.3,1.394-6.073l3.561-5.133c0.088-0.277-0.238-1.527-0.716-2.318c-5.067-8.522-4.638-19.229,1.092-27.284
				c4.68-6.58,12.3-10.508,20.384-10.508c5.208,0,10.211,1.601,14.468,4.628c5.439,3.869,9.047,9.625,10.158,16.208
				c1.11,6.582-0.409,13.204-4.279,18.644c-4.673,6.571-12.288,10.494-20.37,10.494c-1.68,0-3.364-0.17-5.006-0.505
				c-0.005-0.001-0.532-0.105-1.182-0.105c-0.832,0-1.229,0.168-1.303,0.228l-4.329,6.22l-0.016-0.168
				C27.692,63.602,25.589,64.504,23.379,64.504z M41.07,8.401c-7.438,0-14.448,3.614-18.755,9.668
				c-5.271,7.41-5.665,17.261-1.005,25.097c0.454,0.752,1.551,3.207,0.63,4.504l-3.562,5.133c-0.95,1.337-1.324,2.964-1.051,4.581
				c0.273,1.618,1.159,3.032,2.496,3.983c1.047,0.744,2.275,1.137,3.555,1.137c1.986,0,3.858-0.965,5.009-2.582l2.332-3.279
				l0.002,0.023l1.243-1.875c0.603-0.847,1.906-1.025,2.895-1.025c0.88,0,1.585,0.146,1.592,0.147c1.5,0.307,3.05,0.463,4.595,0.463
				c7.436,0,14.442-3.609,18.742-9.653c3.56-5.005,4.958-11.096,3.936-17.152c-1.021-6.056-4.341-11.351-9.346-14.911
				C50.463,9.873,45.86,8.401,41.07,8.401z M23.343,60.474c-0.865,0-1.681-0.255-2.359-0.738c-0.902-0.642-1.5-1.595-1.685-2.685
				c-0.184-1.091,0.068-2.188,0.71-3.089l3.561-5.133c1.873-2.635-0.444-6.525-0.544-6.69c-4.255-7.157-3.893-16.147,0.92-22.912
				c3.931-5.527,10.333-8.827,17.124-8.827c4.373,0,8.574,1.345,12.149,3.888c4.568,3.25,7.599,8.085,8.532,13.614
				c0.933,5.529-0.344,11.091-3.595,15.66c-3.924,5.518-10.32,8.813-17.109,8.813c-0.001,0,0,0,0,0
				c-1.413,0-2.823-0.142-4.191-0.421c-0.044-0.01-0.896-0.189-1.997-0.189c-0.639,0-1.236,0.061-1.773,0.18l-1.112,0.247
				l-0.07-0.791l-5.147,7.361C25.996,59.834,24.719,60.474,23.343,60.474z M41.07,12.401c-6.146,0-11.938,2.985-15.495,7.986
				c-4.353,6.12-4.681,14.254-0.834,20.723c0.315,0.52,3.378,4.899,0.797,8.531l-3.899,5.48c-0.331,0.466-0.462,1.034-0.366,1.597
				c0.095,0.563,0.404,1.056,0.871,1.388c0.881,0.626,2.365,0.369,2.983-0.503l8.29-11.78l0.354,3.993
				c0.353-0.035,0.716-0.052,1.089-0.052c1.287,0,2.295,0.208,2.406,0.231c1.228,0.251,2.502,0.379,3.78,0.379
				c6.145,0,11.933-2.98,15.482-7.972c2.94-4.134,4.096-9.166,3.251-14.168c-0.844-5.002-3.586-9.376-7.72-12.317
				C48.825,13.617,45.025,12.401,41.07,12.401z"/>
		</g>
	</g>
	
		<linearGradient id="SVGID_2_" gradientUnits="userSpaceOnUse" x1="-1480.6261" y1="1287.6212" x2="-1479.7305" y2="1372.2546" gradientTransform="matrix(-1 0 0 -1 -1442.0197 1357.543)">
		<stop  offset="0.0105" style="stop-color:#0D1221"/>
		<stop  offset="0.0807" style="stop-color:#0F1527"/>
		<stop  offset="0.6703" style="stop-color:#1D2A57"/>
		<stop  offset="0.9634" style="stop-color:#23326A"/>
	</linearGradient>
	<path fill="url(#SVGID_2_)" d="M76.509,61.335c0,8.38-6.793,15.174-15.174,15.174H15.208c-8.38,0-15.174-6.794-15.174-15.174
		V15.208c0-8.38,6.793-15.174,15.174-15.174h46.128c8.38,0,15.174,6.794,15.174,15.174V61.335z"/>
	<path fill="#1B224D" stroke="#1B224D" stroke-width="1.5" stroke-miterlimit="10" d="M57.614,55.176"/>
	<path fill="#1B224D" stroke="#1B224D" stroke-width="1.5" stroke-miterlimit="10" d="M63.776,55.176"/>
	<g>
		<g>
			<path fill="none" stroke="#4079B5" stroke-width="2" stroke-miterlimit="10" d="M23.379,64.504c-1.697,0-3.327-0.521-4.714-1.507
				c-1.772-1.26-2.947-3.136-3.31-5.28c-0.361-2.144,0.134-4.3,1.394-6.073l3.561-5.133c0.088-0.277-0.238-1.527-0.716-2.318
				c-5.067-8.522-4.638-19.229,1.092-27.284c4.68-6.58,12.3-10.508,20.384-10.508c5.208,0,10.211,1.601,14.468,4.628
				c5.439,3.869,9.047,9.625,10.158,16.208c1.11,6.582-0.409,13.204-4.279,18.644c-4.673,6.571-12.288,10.494-20.37,10.494
				c-1.68,0-3.364-0.17-5.006-0.505c-0.005-0.001-0.532-0.105-1.182-0.105c-0.832,0-1.229,0.168-1.303,0.228l-4.345,6.052
				C27.692,63.602,25.589,64.504,23.379,64.504z M41.07,8.401c-7.438,0-14.448,3.614-18.755,9.668
				c-5.271,7.41-5.665,17.261-1.005,25.097c0.454,0.752,1.551,3.207,0.63,4.504l-3.562,5.133c-0.95,1.337-1.324,2.964-1.051,4.581
				c0.273,1.618,1.159,3.032,2.496,3.983c1.047,0.744,2.275,1.137,3.555,1.137c1.986,0,3.858-0.965,5.009-2.582l2.332-3.279
				l0.002,0.023l1.243-1.875c0.603-0.847,1.906-1.025,2.895-1.025c0.88,0,1.585,0.146,1.592,0.147c1.5,0.307,3.05,0.463,4.595,0.463
				c7.436,0,14.442-3.609,18.742-9.653c3.56-5.005,4.958-11.096,3.936-17.152c-1.021-6.056-4.341-11.351-9.346-14.911
				C50.463,9.873,45.86,8.401,41.07,8.401z M23.343,60.474c-0.865,0-1.681-0.255-2.359-0.738c-0.902-0.642-1.5-1.595-1.685-2.685
				c-0.184-1.091,0.068-2.188,0.71-3.089l3.561-5.133c1.873-2.635-0.444-6.525-0.544-6.69c-4.255-7.157-3.893-16.147,0.92-22.912
				c3.931-5.527,10.333-8.827,17.124-8.827c4.373,0,8.574,1.345,12.149,3.888c4.568,3.25,7.599,8.085,8.532,13.614
				c0.933,5.529-0.344,11.091-3.595,15.66c-3.924,5.518-10.32,8.813-17.109,8.813c-0.001,0,0,0,0,0
				c-1.413,0-2.823-0.142-4.191-0.421c-0.044-0.01-0.896-0.189-1.997-0.189c-0.639,0-1.236,0.061-1.773,0.18l-1.112,0.247
				l-0.07-0.791l-5.147,7.361C25.996,59.834,24.719,60.474,23.343,60.474z M41.07,12.401c-6.146,0-11.938,2.985-15.495,7.986
				c-4.353,6.12-4.681,14.254-0.834,20.723c0.315,0.52,3.378,4.899,0.797,8.531l-3.899,5.48c-0.331,0.466-0.462,1.034-0.366,1.597
				c0.095,0.563,0.404,1.056,0.871,1.388c0.881,0.626,2.365,0.369,2.983-0.503l8.644-7.787c0.353-0.035,0.716-0.052,1.089-0.052
				c1.287,0,2.295,0.208,2.406,0.231c1.228,0.251,2.502,0.379,3.78,0.379c6.145,0,11.933-2.98,15.482-7.972
				c2.94-4.134,4.096-9.166,3.251-14.168c-0.844-5.002-3.586-9.376-7.72-12.317C48.825,13.617,45.025,12.401,41.07,12.401z"/>
		</g>
	</g>
	<g>
		<path fill="none" stroke="#EC5D25" stroke-width="2" stroke-miterlimit="10" d="M23.379,63.504c-1.488,0-2.918-0.458-4.134-1.322
			c-1.555-1.105-2.586-2.75-2.903-4.631c-0.317-1.88,0.117-3.773,1.223-5.327l3.561-5.133c0.499-0.703-0.163-2.567-0.674-3.414
			c-4.865-8.181-4.45-18.456,1.05-26.188C25.994,11.172,33.309,7.401,41.07,7.401c4.999,0,9.802,1.537,13.888,4.443
			c5.223,3.715,8.686,9.241,9.752,15.56c1.066,6.319-0.393,12.676-4.107,17.898c-4.486,6.308-11.797,10.074-19.556,10.074
			c0,0,0,0-0.001,0c-1.612,0-3.229-0.163-4.805-0.485c-0.014-0.003-0.622-0.125-1.382-0.125c-1.033,0-1.811,0.226-2.08,0.605
			l-2.805,4.068l-0.946,1.296C27.692,62.614,25.688,63.504,23.379,63.504z M41.07,11.401c-6.469,0-12.565,3.143-16.309,8.406
			c-4.583,6.442-4.928,15.004-0.879,21.814c0.278,0.459,3.048,4.336,0.841,7.44l-3.898,5.48c-0.486,0.684-0.678,1.516-0.538,2.343
			c0.14,0.827,0.594,1.55,1.277,2.037c1.371,0.975,3.415,0.618,4.379-0.739l6.718-9.57l0.209,2.356
			c0.609-0.135,1.274-0.204,1.99-0.204c1.177,0,2.097,0.188,2.197,0.209c1.298,0.265,2.646,0.401,3.989,0.401
			c6.467,0,12.56-3.137,16.297-8.392c3.096-4.352,4.312-9.648,3.423-14.914c-0.889-5.266-3.774-9.87-8.126-12.965
			C49.234,12.681,45.233,11.401,41.07,11.401z"/>
	</g>
	<path fill="none" stroke="#1B224D" stroke-width="4" stroke-miterlimit="10" d="M58.973,44.142
		c7.04-9.898,4.724-23.628-5.174-30.669C43.901,6.434,30.17,8.75,23.13,18.648c-5.209,7.323-5.283,16.738-0.967,23.995
		c0,0,2.102,3.482,0.591,5.607l-3.56,5.133c-1.646,2.314-1.104,5.523,1.209,7.169c2.314,1.646,5.523,1.104,7.169-1.209l3.575-5.153
		l0.002,0.022c1.511-2.125,5.492-1.28,5.492-1.28C44.908,54.619,53.768,51.46,58.973,44.142z"/>
	<path fill="#FFFFFF" d="M58.973,44.142c7.04-9.898,4.724-23.628-5.174-30.669C43.901,6.434,30.17,8.75,23.13,18.648
		c-5.209,7.323-5.283,16.738-0.967,23.995c0,0,2.102,3.482,0.591,5.607l-3.56,5.133c-1.646,2.314-1.104,5.523,1.209,7.169
		c2.314,1.646,5.523,1.104,7.169-1.209l3.575-5.153l0.002,0.022c1.511-2.125,5.492-1.28,5.492-1.28
		C44.908,54.619,53.768,51.46,58.973,44.142z"/>
	<path fill="#BBBFBF" d="M53.799,13.474c-2.407-1.712-5.042-2.861-7.751-3.492c0.791,0.427,1.569,0.889,2.32,1.424
		c9.898,7.04,12.214,20.771,5.174,30.669c-5.205,7.317-14.065,10.476-22.331,8.789c0,0-3.981-0.845-5.492,1.28l-0.002-0.022
		l-3.575,5.153c-0.746,1.049-1.818,1.712-2.978,1.994c0.332,0.482,0.736,0.925,1.24,1.284c2.313,1.646,5.523,1.104,7.169-1.209
		l3.575-5.154l0.002,0.022c1.511-2.125,5.492-1.28,5.492-1.28c8.266,1.688,17.126-1.471,22.331-8.789
		C66.013,34.245,63.696,20.514,53.799,13.474z"/>
	<g>
		<polygon fill="#BBBFBF" points="43.757,53.042 19.619,36.27 19.272,34.379 19.127,32.835 45.182,50.989 		"/>
	</g>
	<g>
		<polygon fill="#BBBFBF" points="46.311,50.547 19.076,30.963 19.127,29.537 19.304,28.122 47.766,48.515 		"/>
	</g>
	<g>
		<path fill="#1B224D" d="M19.127,32.835l27.919,19.7c0.601-0.169,1.197-0.358,1.783-0.578L19.076,30.963
			C19.065,31.588,19.085,32.212,19.127,32.835z"/>
	</g>
</g>
</svg>
