<?xml version="1.0" encoding="utf-8"?>
<!-- Generator: Adobe Illustrator 17.0.0, SVG Export Plug-In . SVG Version: 6.00 Build 0)  -->
<!DOCTYPE svg PUBLIC "-//W3C//DTD SVG 1.1//EN" "http://www.w3.org/Graphics/SVG/1.1/DTD/svg11.dtd">
<svg version="1.1" id="Capa_1" xmlns="http://www.w3.org/2000/svg" xmlns:xlink="http://www.w3.org/1999/xlink" x="0px" y="0px"
	 width="76.543px" height="76.543px" viewBox="0 0 76.543 76.543" enable-background="new 0 0 76.543 76.543" xml:space="preserve">
<g>
	
		<linearGradient id="SVGID_1_" gradientUnits="userSpaceOnUse" x1="-1480.6261" y1="1287.6212" x2="-1479.7305" y2="1372.2546" gradientTransform="matrix(-1 0 0 -1 -1442.0197 1357.543)">
		<stop  offset="0.0105" style="stop-color:#0D1221"/>
		<stop  offset="0.0807" style="stop-color:#0F1527"/>
		<stop  offset="0.6703" style="stop-color:#1D2A57"/>
		<stop  offset="0.9634" style="stop-color:#23326A"/>
	</linearGradient>
	<path fill="url(#SVGID_1_)" d="M76.509,61.335c0,8.38-6.793,15.174-15.174,15.174H15.208c-8.38,0-15.174-6.794-15.174-15.174
		V15.208c0-8.38,6.793-15.174,15.174-15.174h46.128c8.38,0,15.174,6.794,15.174,15.174V61.335z"/>
	<path fill="#1B224D" stroke="#1B224D" stroke-width="1.5" stroke-miterlimit="10" d="M58.615,55.176"/>
	<path fill="#1B224D" stroke="#1B224D" stroke-width="1.5" stroke-miterlimit="10" d="M64.776,55.176"/>
	<circle fill="#FFFFFF" cx="38.272" cy="35.669" r="25.429"/>
	<circle fill="#FFFFFF" cx="38.272" cy="35.669" r="25.429"/>
	<g>
		<g>
			<path fill="none" stroke="#4079B5" stroke-width="2" stroke-miterlimit="10" d="M38.272,64.098
				c-15.676,0-28.429-12.753-28.429-28.429c0-15.676,12.753-28.429,28.429-28.429c15.676,0,28.429,12.753,28.429,28.429
				C66.701,51.345,53.947,64.098,38.272,64.098z M38.272,9.24c-14.573,0-26.429,11.856-26.429,26.429
				c0,14.573,11.856,26.429,26.429,26.429c14.573,0,26.429-11.856,26.429-26.429C64.701,21.096,52.845,9.24,38.272,9.24z
				 M38.272,60.098c-13.47,0-24.429-10.959-24.429-24.429c0-13.47,10.959-24.429,24.429-24.429c13.47,0,24.429,10.959,24.429,24.429
				C62.701,49.14,51.742,60.098,38.272,60.098z M38.272,13.24c-12.368,0-22.429,10.062-22.429,22.429
				c0,12.368,10.062,22.429,22.429,22.429c12.368,0,22.429-10.062,22.429-22.429C60.701,23.302,50.639,13.24,38.272,13.24z"/>
		</g>
	</g>
	<g>
		<path fill="none" stroke="#EC5D25" stroke-width="2" stroke-miterlimit="10" d="M38.272,63.098
			c-15.124,0-27.429-12.305-27.429-27.429S23.147,8.24,38.272,8.24c15.125,0,27.429,12.305,27.429,27.429
			S53.396,63.098,38.272,63.098z M38.272,12.24c-12.919,0-23.429,10.51-23.429,23.429c0,12.919,10.51,23.429,23.429,23.429
			c12.919,0,23.429-10.51,23.429-23.429C61.701,22.75,51.191,12.24,38.272,12.24z"/>
	</g>
	<circle fill="none" stroke="#1B224D" stroke-width="4" stroke-miterlimit="10" cx="38.272" cy="35.669" r="25.429"/>
	<circle fill="none" stroke="#1B224D" stroke-width="4" stroke-miterlimit="10" cx="38.272" cy="35.669" r="25.429"/>
	<circle fill="#FFFFFF" cx="38.272" cy="35.669" r="25.429"/>
	<circle fill="none" stroke="#BBBFBF" stroke-width="3" stroke-miterlimit="10" cx="38.272" cy="35.669" r="14.046"/>
	<circle fill="#1B224D" cx="38.272" cy="35.669" r="14.046"/>
	<g>
		<path fill="#1B224D" d="M38.272,8.305c-15.124,0-27.429,12.305-27.429,27.429s12.305,27.429,27.429,27.429
			s27.429-12.305,27.429-27.429S53.396,8.305,38.272,8.305z M38.271,61.164c-14.044,0-25.429-11.385-25.429-25.429
			c0-14.044,11.385-25.429,25.429-25.429c14.044,0,25.429,11.385,25.429,25.429C63.701,49.779,52.315,61.164,38.271,61.164z"/>
	</g>
	<path fill="#FFFFFF" d="M42.673,36.459c-0.446-0.661-1.096-1.16-1.951-1.505c0.672-0.294,1.193-0.72,1.567-1.276
		c0.372-0.559,0.557-1.195,0.557-1.909c0-1.149-0.405-2.099-1.215-2.849c-0.809-0.75-1.946-1.125-3.411-1.125
		c-1.479,0-2.62,0.376-3.422,1.125c-0.802,0.75-1.204,1.7-1.204,2.849c0,0.672,0.174,1.292,0.52,1.857
		c0.348,0.564,0.904,1.008,1.668,1.329c-0.89,0.379-1.542,0.917-1.956,1.615c-0.414,0.697-0.62,1.464-0.62,2.297
		c0,1.515,0.55,2.704,1.651,3.575c0.931,0.735,2.099,1.105,3.5,1.105c1.507,0,2.714-0.447,3.623-1.337
		c0.907-0.89,1.361-2.047,1.361-3.469C43.339,37.877,43.117,37.117,42.673,36.459z M36.894,30.644
		c0.337-0.338,0.79-0.506,1.356-0.506c0.546,0,0.986,0.166,1.319,0.499c0.332,0.334,0.499,0.777,0.499,1.331
		c0,0.588-0.167,1.049-0.503,1.382c-0.338,0.333-0.786,0.499-1.347,0.499c-0.554,0-0.997-0.164-1.33-0.493
		c-0.333-0.329-0.499-0.789-0.499-1.377C36.389,31.425,36.558,30.979,36.894,30.644z M39.818,40.51
		c-0.401,0.438-0.905,0.658-1.516,0.658c-0.623,0-1.144-0.227-1.561-0.684c-0.417-0.456-0.625-1.09-0.625-1.903
		c0-0.581,0.177-1.121,0.531-1.62c0.354-0.498,0.892-0.745,1.614-0.745c0.623,0,1.139,0.218,1.545,0.656
		c0.406,0.438,0.61,1.018,0.61,1.74C40.416,39.44,40.216,40.072,39.818,40.51z"/>
	<path fill="#BBBFBF" d="M51.348,13.858c4.504,4.588,7.286,10.874,7.286,17.811c0,14.044-11.385,25.429-25.429,25.429
		c-4.782,0-9.255-1.322-13.076-3.618c4.614,4.7,11.037,7.618,18.144,7.618c14.044,0,25.429-11.385,25.429-25.429
		C63.701,26.408,58.748,18.305,51.348,13.858z"/>
</g>
</svg>
