<?xml version="1.0" encoding="utf-8"?>
<!-- Generator: Adobe Illustrator 17.0.0, SVG Export Plug-In . SVG Version: 6.00 Build 0)  -->
<!DOCTYPE svg PUBLIC "-//W3C//DTD SVG 1.1//EN" "http://www.w3.org/Graphics/SVG/1.1/DTD/svg11.dtd">
<svg version="1.1" id="Capa_1" xmlns="http://www.w3.org/2000/svg" xmlns:xlink="http://www.w3.org/1999/xlink" x="0px" y="0px"
	 width="76.543px" height="76.543px" viewBox="0 0 76.543 76.543" enable-background="new 0 0 76.543 76.543" xml:space="preserve">
<g>
	
		<linearGradient id="SVGID_1_" gradientUnits="userSpaceOnUse" x1="-1480.6261" y1="1287.6212" x2="-1479.7305" y2="1372.2546" gradientTransform="matrix(-1 0 0 -1 -1442.0197 1357.543)">
		<stop  offset="0.0105" style="stop-color:#0D1221"/>
		<stop  offset="0.0807" style="stop-color:#0F1527"/>
		<stop  offset="0.6703" style="stop-color:#1D2A57"/>
		<stop  offset="0.9634" style="stop-color:#23326A"/>
	</linearGradient>
	<path fill="url(#SVGID_1_)" d="M76.509,61.335c0,8.38-6.793,15.174-15.174,15.174H15.208c-8.38,0-15.174-6.794-15.174-15.174
		V15.208c0-8.38,6.793-15.174,15.174-15.174h46.128c8.38,0,15.174,6.794,15.174,15.174V61.335z"/>
	<g>
		<g>
			<path fill="none" stroke="#4079B5" stroke-width="2" stroke-miterlimit="10" d="M25.584,65.952c-5.144,0-9.333-1.37-11.793-3.857
				c-3.65-3.609-4.786-10.735-3.032-19.053c0.089-0.578,0.212-1.184,0.356-1.749c2.167-8.554,5.704-13.693,9.203-17.971
				c0.92-1.173,3.161-3.449,3.704-3.917c4.066-3.617,8.682-6.496,13.707-8.544c3.075-1.368,5.826-2.2,8.148-2.46
				c2.254-0.449,4.529-0.683,6.68-0.683c5.146,0,9.336,1.371,11.798,3.859c3.577,3.539,4.747,10.506,3.122,18.629
				c-0.184,1.263-2.166,13.074-12.11,22.94c-5.142,5.101-15.275,11.153-22.679,12.037C30.286,65.689,27.867,65.952,25.584,65.952z
				 M52.555,9.719c-2.021,0-4.165,0.221-6.375,0.657c-2.201,0.25-4.753,1.028-7.67,2.325c-4.843,1.975-9.266,4.733-13.174,8.21
				c-0.486,0.419-2.626,2.601-3.46,3.662c-3.365,4.115-6.753,9.036-8.825,17.213c-0.128,0.505-0.238,1.049-0.328,1.618
				c-1.623,7.701-0.692,14.141,2.479,17.278c2.09,2.112,5.773,3.271,10.378,3.271h0.001c2.147,0,4.428-0.249,6.78-0.74
				c7.067-0.847,16.685-6.617,21.593-11.484c9.647-9.572,11.476-21.364,11.549-21.862c1.501-7.512,0.539-13.801-2.566-16.874
				C60.848,10.879,57.163,9.719,52.555,9.719z M25.583,61.952c-4.068,0-7.251-0.954-8.965-2.686
				c-2.647-2.618-3.389-8.558-1.928-15.495c0.087-0.553,0.186-1.043,0.301-1.496c1.975-7.796,5.227-12.515,8.446-16.452
				c0.779-0.992,2.813-3.054,3.21-3.402c3.748-3.334,8.006-5.987,12.647-7.881c2.738-1.217,5.204-1.972,7.102-2.173l0.14-0.022
				c2.063-0.414,4.104-0.628,6.021-0.628c4.07,0,7.255,0.955,8.97,2.688c2.587,2.559,3.361,8.353,2.012,15.113
				c-0.637,4.278-3.679,13.535-10.989,20.788c-4.726,4.688-14.057,10.193-20.414,10.914l-0.142,0.024
				C29.791,61.711,27.619,61.952,25.583,61.952z M52.555,13.719c-1.785,0-3.694,0.201-5.676,0.597l-0.231,0.036
				c-1.736,0.185-3.993,0.884-6.571,2.029c-4.459,1.819-8.523,4.352-12.108,7.54c-0.34,0.298-2.291,2.286-2.972,3.153
				c-3.086,3.774-6.189,8.275-8.068,15.694c-0.1,0.394-0.187,0.828-0.274,1.368c-1.291,6.135-0.734,11.628,1.376,13.716
				c1.304,1.317,4.124,2.1,7.551,2.1c1.897,0,3.93-0.226,6.044-0.672l0.235-0.039c5.991-0.68,14.79-5.9,19.278-10.353
				c6.938-6.883,9.819-15.628,10.427-19.711c1.191-5.972,0.602-11.32-1.456-13.356C58.806,14.502,55.985,13.719,52.555,13.719z"/>
		</g>
	</g>
	<g>
		<path fill="none" stroke="#EC5D25" stroke-width="2" stroke-miterlimit="10" d="M25.584,64.952
			C25.583,64.952,25.583,64.952,25.584,64.952c-4.876,0-8.811-1.265-11.082-3.56c-3.409-3.372-4.448-10.16-2.764-18.144
			c0.092-0.589,0.207-1.163,0.346-1.708c2.12-8.366,5.582-13.395,9.007-17.585c0.873-1.111,3.075-3.355,3.582-3.791
			c3.985-3.545,8.513-6.371,13.432-8.377c2.993-1.331,5.663-2.144,7.882-2.392c2.273-0.449,4.482-0.676,6.568-0.676
			c4.877,0,8.814,1.265,11.087,3.563c3.339,3.304,4.411,9.937,2.853,17.73c-0.176,1.196-2.146,12.814-11.834,22.426
			c-5.04,5-14.898,10.895-22.093,11.753C30.148,64.696,27.798,64.952,25.584,64.952z M52.555,12.719
			c-1.851,0-3.826,0.208-5.873,0.617L46.5,13.363c-1.795,0.189-4.157,0.917-6.829,2.104c-4.554,1.858-8.696,4.443-12.366,7.708
			c-0.376,0.33-2.364,2.354-3.094,3.282c-3.158,3.862-6.323,8.457-8.251,16.066c-0.109,0.427-0.201,0.889-0.292,1.455
			c-1.378,6.544-0.719,12.231,1.661,14.585c1.507,1.523,4.51,2.389,8.254,2.389l0,0c1.966,0,4.069-0.233,6.25-0.694l0.188-0.03
			c6.15-0.697,15.215-6.059,19.823-10.63c7.124-7.068,10.085-16.069,10.712-20.273c1.272-6.374,0.582-11.916-1.742-14.214
			C59.305,13.585,56.3,12.719,52.555,12.719z"/>
	</g>
	<path fill="none" stroke="#1B224D" stroke-width="4" stroke-miterlimit="10" d="M62.221,13.688
		c-2.784-2.814-8.873-3.725-15.931-2.314c-2.156,0.227-4.754,1.075-7.431,2.265c-4.394,1.791-8.842,4.446-12.883,8.041
		c-0.383,0.33-2.51,2.488-3.337,3.54c-3.566,4.361-6.677,9.152-8.617,16.811c-0.138,0.546-0.242,1.093-0.327,1.629
		c-1.525,7.225-0.638,13.489,2.229,16.324c2.835,2.866,9.099,3.754,16.323,2.23c6.827-0.774,16.369-6.596,21.006-11.197
		c8.056-7.993,10.742-17.776,11.281-21.398C65.946,22.56,65.035,16.472,62.221,13.688z"/>
	<path fill="#FFFFFF" d="M62.221,13.688c-2.784-2.814-8.873-3.725-15.931-2.314c-2.156,0.227-4.754,1.075-7.431,2.265
		c-4.394,1.791-8.842,4.446-12.883,8.041c-0.383,0.33-2.51,2.488-3.337,3.54c-3.566,4.361-6.677,9.152-8.617,16.811
		c-0.138,0.546-0.242,1.093-0.327,1.629c-1.525,7.225-0.638,13.489,2.229,16.324c2.835,2.866,9.099,3.754,16.323,2.23
		c6.827-0.774,16.369-6.596,21.006-11.197c8.056-7.993,10.742-17.776,11.281-21.398C65.946,22.56,65.035,16.472,62.221,13.688z"/>
	<path fill="#BBBFBF" d="M62.221,13.688c-0.708-0.716-1.632-1.307-2.729-1.77c1.356,3.217,1.597,7.938,0.544,13.202
		c-0.54,3.622-3.225,13.406-11.282,21.398c-4.638,4.601-14.179,10.423-21.006,11.197c-5.42,1.144-10.299,0.93-13.595-0.459
		c0.462,1.097,1.055,2.02,1.771,2.728c2.835,2.866,9.099,3.754,16.323,2.23c6.827-0.774,16.369-6.596,21.006-11.197
		c8.056-7.993,10.742-17.776,11.281-21.398C65.946,22.56,65.035,16.472,62.221,13.688z"/>
	<path fill="none" stroke="#1B224D" stroke-width="1.5" stroke-miterlimit="10" d="M13.265,54.1"/>
	<path fill="none" stroke="#BBBFBF" stroke-width="2.5" stroke-miterlimit="10" d="M23.698,59.859
		c-4.137-4.138,6.735-9.905,22.113-27.727c11.006-12.755,12.448-13.373,14.186-13.181c1.738,0.192,1.689,3.316,1.628,4.152"/>
	<line fill="none" stroke="#1B224D" stroke-width="1.5" stroke-miterlimit="10" x1="16.373" y1="60.391" x2="61.539" y2="13.021"/>
	<g>
		<path fill="#1B224D" d="M12.912,49.937c0,2.887,2.34,5.227,5.226,5.227c1.345,0,2.571-0.508,3.497-1.342l-5.781,7.683
			l-3.801-5.025L12.912,49.937z"/>
		<path fill="#1B224D" d="M27.676,62.857c-2.874,0.27-5.423-1.841-5.693-4.715c-0.126-1.339,0.265-2.607,1.009-3.607l-7.137,6.969
			l5.387,2.819L27.676,62.857z"/>
	</g>
	<g>
		<path fill="#1B224D" d="M49.754,10.878c2.857-0.415,5.509,1.563,5.924,4.42c0.193,1.331-0.133,2.617-0.825,3.654l6.771-6.826
			l-5.52-3.038L49.754,10.878z"/>
		<path fill="#1B224D" d="M65.188,23.628c-0.146-2.883-3.125-5.101-6.007-4.955c-1.343,0.068-2.542,0.638-3.425,1.518l5.87-8.066
			l4.092,5.435L65.188,23.628z"/>
	</g>
	<path fill="#BBBFBF" d="M25.381,55.278c0,0-1.556,3.138,2.153,2.483l-1.346,1.668l-2.278,0.263l-0.906-2.823L25.381,55.278z"/>
</g>
</svg>
