<?xml version="1.0" encoding="utf-8"?>
<!-- Generator: Adobe Illustrator 17.0.0, SVG Export Plug-In . SVG Version: 6.00 Build 0)  -->
<!DOCTYPE svg PUBLIC "-//W3C//DTD SVG 1.1//EN" "http://www.w3.org/Graphics/SVG/1.1/DTD/svg11.dtd">
<svg version="1.1" id="Capa_1" xmlns="http://www.w3.org/2000/svg" xmlns:xlink="http://www.w3.org/1999/xlink" x="0px" y="0px"
	 width="76.543px" height="76.543px" viewBox="0 0 76.543 76.543" enable-background="new 0 0 76.543 76.543" xml:space="preserve">
<g>
	
		<linearGradient id="SVGID_1_" gradientUnits="userSpaceOnUse" x1="-944.1693" y1="2004.05" x2="-943.2729" y2="2088.7588" gradientTransform="matrix(-1 0 0 -1 -905.5626 2074)">
		<stop  offset="0.0105" style="stop-color:#1B1A23"/>
		<stop  offset="0.4656" style="stop-color:#272846"/>
		<stop  offset="0.7986" style="stop-color:#272D5C"/>
		<stop  offset="0.9634" style="stop-color:#252E64"/>
	</linearGradient>
	<path fill="url(#SVGID_1_)" d="M76.543,61.356c0,8.388-6.799,15.187-15.187,15.187H15.187C6.8,76.543,0,69.743,0,61.356V15.187
		C0,6.8,6.8,0,15.187,0h46.169C69.744,0,76.543,6.8,76.543,15.187V61.356z"/>
	<circle fill="#FFFFFF" cx="39.311" cy="36.885" r="28.118"/>
	<g>
		<polygon fill="#C6C7C8" points="38.65,61.116 36.924,59.525 46.192,49.478 54.888,49.626 57.202,55.054 55.465,57.257 
			53.325,51.947 47.204,51.844 		"/>
	</g>
	<g>
		<path fill="#C6C7C8" d="M22.234,57.139c-8.918-5.508-9.166-16.518-9.225-17.013l-0.094-0.784l5.463-3.019l1.135,2.055
			l-4.048,2.237c0.482,2.587,2.532,11.054,9.245,15.2L22.234,57.139z"/>
	</g>
	<g>
		<path fill="#C6C7C8" d="M12.449,37.568c-0.432-7.048,4.376-14.829,4.581-15.157l2.174,1.359l-1.087-0.68l1.087,0.679
			c-0.046,0.074-4.577,7.42-4.196,13.642L12.449,37.568z"/>
	</g>
	<g>
		<path fill="#C6C7C8" d="M21.943,26.932l-3.959-4.692l0.489-0.734c0.238-0.357,5.98-8.76,19.057-10.184l0.254,2.334
			c-9.828,1.07-15.203,6.529-16.826,8.47l2.779,3.293L21.943,26.932z"/>
	</g>
	<g>
		<polygon fill="#C6C7C8" points="37.02,57.658 27.778,54.669 24.802,41.429 31.891,35.521 45.179,40.165 44.405,42.382 
			32.372,38.176 27.407,42.314 29.764,52.799 38.566,55.638 		"/>
	</g>
	<g>
		<path fill="#C6C7C8" d="M57.783,53.466l-2.459-4.742l0.38-0.575c3.314-5.021,3.01-12.176,3.006-12.247l2.345-0.116
			c0.016,0.312,0.33,7.467-3.02,13.066l1.833,3.535L57.783,53.466z"/>
	</g>
	<g>
		<polygon fill="#C6C7C8" points="57.891,36.321 51.654,32.822 49.573,19.51 54.779,15.57 56.196,17.442 52.11,20.535 
			53.797,31.332 57.856,33.609 63.175,30.44 64.376,32.457 		"/>
	</g>
	<g>
		<polygon fill="#C6C7C8" points="44.639,38.411 31.301,33.823 28.701,26.766 38.357,16.49 41.274,17.723 31.428,27.377 
			33.112,31.947 46.623,36.648 		"/>
	</g>
	<g>
		<path fill="#4176B6" d="M38.535,66.614c-16.143,0-29.276-13.238-29.276-29.51c0-16.272,13.133-29.51,29.276-29.51
			c16.143,0,29.276,13.238,29.276,29.51C67.811,53.376,54.678,66.614,38.535,66.614z M38.535,11.339
			c-14.078,0-25.531,11.558-25.531,25.765c0,14.207,11.453,25.765,25.531,25.765c14.078,0,25.531-11.558,25.531-25.765
			C64.066,22.897,52.613,11.339,38.535,11.339z"/>
	</g>
	<g>
		<path fill="#E65214" d="M38.434,65.53c-15.636,0-28.356-12.72-28.356-28.356c0-5.945,1.82-11.637,5.264-16.46
			c5.318-7.448,13.951-11.896,23.092-11.896c15.636,0,28.356,12.72,28.356,28.356C66.79,52.809,54.07,65.53,38.434,65.53z
			 M38.434,11.056c-8.419,0-16.371,4.097-21.271,10.958c-3.171,4.441-4.847,9.683-4.847,15.16c0,14.402,11.717,26.118,26.118,26.118
			c14.402,0,26.118-11.717,26.118-26.118C64.552,22.772,52.836,11.056,38.434,11.056z"/>
	</g>
	<g>
		<path fill="#21254B" d="M38.434,64.775c-15.222,0-27.606-12.384-27.606-27.606c0-5.788,1.772-11.33,5.125-16.025
			c5.178-7.252,13.582-11.581,22.481-11.581c15.222,0,27.606,12.384,27.606,27.607C66.041,52.391,53.657,64.775,38.434,64.775z
			 M38.434,11.741c-8.197,0-15.938,3.988-20.708,10.669c-3.088,4.324-4.719,9.427-4.719,14.759
			c0,14.021,11.407,25.428,25.428,25.428s25.428-11.407,25.428-25.428C63.862,23.148,52.455,11.741,38.434,11.741z"/>
	</g>
	<g>
		<polygon fill="#21254B" points="55.631,39.501 50.336,34.718 47.708,19.098 40.274,15.838 26.643,29.028 20.892,27.845 
			16.273,22.764 17.573,21.582 21.807,26.239 26.088,27.12 39.899,13.755 49.284,17.871 51.968,33.824 55.82,37.304 63.666,32.348 
			64.604,33.834 		"/>
	</g>
	<g>
		<g>
			<polygon fill="#21254B" points="36.392,60.493 26.344,57.692 22.753,39.137 19.558,36.065 11.846,39.784 11.083,38.201 
				19.895,33.952 24.372,38.257 27.863,56.292 35.814,58.507 47.489,45.519 54.51,45.005 58.448,53.983 56.839,54.689 53.4,46.848 
				48.323,47.22 			"/>
		</g>
	</g>
	<g>
		<g>
			
				<rect x="28.981" y="35.974" transform="matrix(0.9453 0.3263 -0.3263 0.9453 14.0921 -10.316)" fill="#21254B" width="17.637" height="1.757"/>
		</g>
	</g>
	<g>
		<g>
			<path fill="#21254B" d="M36.841,11.108l1.18,6.049l10.623,3.541l5.606-4.426c0,0-5.164-4.426-10.328-4.869
				C38.759,10.96,36.841,11.108,36.841,11.108z"/>
		</g>
	</g>
	<g>
		<g>
			<path fill="#21254B" d="M19.726,25.714c0,0,6.026-0.8,9.295-0.59c0.725,0.047,0.148,0.59,0.148,0.59l3.246,9.442l-8.557,7.229
				l-6.934-6.344C16.923,36.042,17.661,30.583,19.726,25.714z"/>
		</g>
	</g>
	<g>
		<g>
			<path fill="#21254B" d="M50.709,32.206l-7.082,6.934l2.508,10.77c0,0,7.967-0.148,8.852-0.295c0,0,3.836-4.574,4.131-12.688
				L50.709,32.206z"/>
		</g>
	</g>
	<g>
		<g>
			<path fill="#21254B" d="M22.234,57.139l5.164-3.098l10.18,3.393l1.475,5.164c0,0-7.967,1.328-12.688-1.623
				C21.644,58.025,22.234,57.139,22.234,57.139z"/>
		</g>
	</g>
</g>
</svg>
