<?xml version="1.0" encoding="utf-8"?>
<!-- Generator: Adobe Illustrator 16.0.0, SVG Export Plug-In . SVG Version: 6.00 Build 0)  -->
<!DOCTYPE svg PUBLIC "-//W3C//DTD SVG 1.1//EN" "http://www.w3.org/Graphics/SVG/1.1/DTD/svg11.dtd">
<svg version="1.1" id="Capa_1" xmlns="http://www.w3.org/2000/svg" xmlns:xlink="http://www.w3.org/1999/xlink" x="0px" y="0px"
	 width="76.543px" height="76.543px" viewBox="0 0 76.543 76.543" enable-background="new 0 0 76.543 76.543" xml:space="preserve">
<linearGradient id="SVGID_1_" gradientUnits="userSpaceOnUse" x1="-1480.626" y1="1287.6221" x2="-1479.7303" y2="1372.2548" gradientTransform="matrix(-1 0 0 -1 -1442.0195 1357.543)">
	<stop  offset="0.0105" style="stop-color:#0D1221"/>
	<stop  offset="0.0807" style="stop-color:#0F1527"/>
	<stop  offset="0.6703" style="stop-color:#1D2A57"/>
	<stop  offset="0.9634" style="stop-color:#23326A"/>
</linearGradient>
<path fill="url(#SVGID_1_)" d="M76.51,61.335c0,8.38-6.795,15.174-15.174,15.174H15.208c-8.38,0-15.174-6.794-15.174-15.174V15.207
	c0-8.38,6.794-15.173,15.174-15.173h46.128c8.379,0,15.174,6.793,15.174,15.173V61.335z"/>
<g>
	<g>
		<polygon fill="#1B224D" points="27.353,23.708 25.955,26.42 27.681,28.937 27.684,28.932 27.687,28.935 29.086,26.224 
			27.359,23.708 27.356,23.712 		"/>
	</g>
	<g>
		<g>
			<path fill="none" stroke="#4079B5" stroke-width="2" stroke-miterlimit="10" d="M17.803,69.012
				c-0.854-0.069-1.645-0.405-2.285-0.97l-4.68-4.124c-1.625-1.438-1.782-3.928-0.35-5.55l1.667-1.89
				c0.57-0.648,1.481-1.333,2.266-1.7l0.9-0.426c0.035-0.021,0.197-0.144,0.25-0.193l6.681-7.759
				c1.973-2.694,2.514-8.267,2.517-11.187c-0.871-5.872,1.019-12.289,5.328-18.077c3.912-5.458,9.292-8.838,15.137-9.505
				c1.146-0.129,2.311-0.147,3.466-0.054c4.126,0.334,8.05,2.047,11.352,4.954l0.243,0.215c4.275,3.767,6.669,8.771,6.737,14.093
				c0.074,5.884-2.606,11.649-7.551,16.233c-5.173,4.98-11.294,7.661-17.232,7.537c-2.751,0.353-7.977,1.521-10.581,3.737
				l-7.114,7.834c0.004,0.005-0.096,0.184-0.122,0.248l-0.297,0.917c-0.266,0.827-0.832,1.817-1.407,2.466l-1.656,1.882
				C20.259,68.618,19.038,69.111,17.803,69.012z M48.531,9.663c-1.021-0.082-2.05-0.066-3.06,0.049
				c-5.25,0.598-10.111,3.673-13.685,8.659c-4.004,5.378-5.753,11.271-4.938,16.606l0.012,0.155c0.002,0.87-0.064,8.604-2.973,12.57
				l-6.763,7.857c-0.21,0.234-0.643,0.559-0.904,0.682l-0.909,0.432c-0.525,0.244-1.206,0.755-1.585,1.188l-1.669,1.891
				c-0.669,0.76-0.595,1.925,0.165,2.598l4.68,4.123c0.736,0.649,1.957,0.567,2.597-0.162l1.659-1.885
				c0.385-0.434,0.808-1.173,0.984-1.723l0.308-0.949c0.093-0.279,0.361-0.757,0.535-0.96l7.266-7.989
				c3.682-3.188,10.992-4.179,11.812-4.28l0.156-0.008c5.398,0.135,11.018-2.339,15.822-6.965c4.519-4.19,6.962-9.402,6.895-14.687
				c-0.06-4.721-2.201-9.178-6.027-12.548l-0.244-0.215C55.709,11.495,52.202,9.96,48.531,9.663z M18.1,64.737l-4.304-3.792
				l1.501-1.701c0.197-0.224,0.625-0.543,0.898-0.674l0.919-0.436c0.53-0.25,1.198-0.756,1.589-1.202l6.839-7.944
				c3.325-4.444,3.426-12.469,3.412-14.032l-0.023-0.236c-0.771-4.739,0.84-10.133,4.547-15.115
				c3.228-4.504,7.576-7.285,12.23-7.816c4.065-0.46,8.233,0.935,11.565,3.87l0.269,0.238c3.37,2.968,5.254,6.873,5.307,10.995
				c0.06,4.686-2.156,9.353-6.239,13.139c-4.45,4.283-9.595,6.557-14.473,6.39l-0.237,0.013c-1.401,0.168-8.97,1.224-13.084,4.849
				l-7.384,8.115c-0.369,0.423-0.781,1.146-0.965,1.705l-0.309,0.956c-0.094,0.285-0.356,0.746-0.553,0.974L18.1,64.737z
				 M16.75,60.759l1.163,1.023l0.113-0.127c0.023-0.033,0.121-0.206,0.148-0.27l0.301-0.935c0.098-0.294,0.231-0.608,0.389-0.921
				c-0.287,0.194-0.579,0.366-0.854,0.495l-0.916,0.436c-0.038,0.022-0.196,0.141-0.246,0.189L16.75,60.759z M48.201,13.833
				c-0.753-0.061-1.513-0.049-2.258,0.036c-4.059,0.462-7.887,2.938-10.777,6.97c-3.378,4.539-4.852,9.371-4.162,13.623l0.038,0.395
				c0.018,1.667-0.084,9.479-3.266,14.562c4.635-3.796,12.406-4.886,13.955-5.069l0.397-0.021c4.387,0.149,8.989-1.917,13.042-5.817
				c3.658-3.393,5.636-7.506,5.585-11.593c-0.045-3.522-1.678-6.879-4.599-9.452l-0.269-0.238
				C53.619,15.231,50.961,14.057,48.201,13.833z"/>
		</g>
	</g>
	<g>
		<g>
			<path fill="#EC5D25" d="M17.803,69.012c-0.854-0.069-1.645-0.405-2.285-0.97l-4.68-4.124c-1.625-1.438-1.782-3.928-0.35-5.55
				l1.667-1.89c0.57-0.648,1.481-1.333,2.266-1.7l0.9-0.426c0.035-0.021,0.197-0.144,0.25-0.193l6.681-7.759
				c1.973-2.694,2.514-8.267,2.517-11.187c-0.871-5.872,1.019-12.289,5.328-18.077c3.912-5.458,9.292-8.838,15.137-9.505
				c1.146-0.129,2.311-0.147,3.466-0.054c4.126,0.334,8.05,2.047,11.352,4.954l0.243,0.215c4.275,3.767,6.669,8.771,6.737,14.093
				c0.074,5.884-2.606,11.649-7.551,16.233c-5.173,4.98-11.294,7.661-17.232,7.537c-2.751,0.353-7.977,1.521-10.581,3.737
				l-7.114,7.834c0.004,0.005-0.096,0.184-0.122,0.248l-0.297,0.917c-0.266,0.827-0.832,1.817-1.407,2.466l-1.656,1.882
				C20.259,68.618,19.038,69.111,17.803,69.012z M48.531,9.663c-1.021-0.082-2.05-0.066-3.06,0.049
				c-5.25,0.598-10.111,3.673-13.685,8.659c-4.004,5.378-5.753,11.271-4.938,16.606l0.012,0.155c0.002,0.87-0.064,8.604-2.973,12.57
				l-6.763,7.857c-0.21,0.234-0.643,0.559-0.904,0.682l-0.909,0.432c-0.525,0.244-1.206,0.755-1.585,1.188l-1.669,1.891
				c-0.669,0.76-0.595,1.925,0.165,2.598l4.68,4.123c0.736,0.649,1.957,0.567,2.597-0.162l1.659-1.885
				c0.385-0.434,0.808-1.173,0.984-1.723l0.308-0.949c0.093-0.279,0.361-0.757,0.535-0.96l7.266-7.989
				c3.682-3.188,10.992-4.179,11.812-4.28l0.156-0.008c5.398,0.135,11.018-2.339,15.822-6.965c4.519-4.19,6.962-9.402,6.895-14.687
				c-0.06-4.721-2.201-9.178-6.027-12.548l-0.244-0.215C55.709,11.495,52.202,9.96,48.531,9.663z M18.1,64.737l-4.304-3.792
				l1.501-1.701c0.197-0.224,0.625-0.543,0.898-0.674l0.919-0.436c0.53-0.25,1.198-0.756,1.589-1.202l6.839-7.944
				c3.325-4.444,3.426-12.469,3.412-14.032l-0.023-0.236c-0.771-4.739,0.84-10.133,4.547-15.115
				c3.228-4.504,7.576-7.285,12.23-7.816c4.065-0.46,8.233,0.935,11.565,3.87l0.269,0.238c3.37,2.968,5.254,6.873,5.307,10.995
				c0.06,4.686-2.156,9.353-6.239,13.139c-4.45,4.283-9.595,6.557-14.473,6.39l-0.237,0.013c-1.401,0.168-8.97,1.224-13.084,4.849
				l-7.384,8.115c-0.369,0.423-0.781,1.146-0.965,1.705l-0.309,0.956c-0.094,0.285-0.356,0.746-0.553,0.974L18.1,64.737z
				 M16.75,60.759l1.163,1.023l0.113-0.127c0.023-0.033,0.121-0.206,0.148-0.27l0.301-0.935c0.098-0.294,0.231-0.608,0.389-0.921
				c-0.287,0.194-0.579,0.366-0.854,0.495l-0.916,0.436c-0.038,0.022-0.196,0.141-0.246,0.189L16.75,60.759z M48.201,13.833
				c-0.753-0.061-1.513-0.049-2.258,0.036c-4.059,0.462-7.887,2.938-10.777,6.97c-3.378,4.539-4.852,9.371-4.162,13.623l0.038,0.395
				c0.018,1.667-0.084,9.479-3.266,14.562c4.635-3.796,12.406-4.886,13.955-5.069l0.397-0.021c4.387,0.149,8.989-1.917,13.042-5.817
				c3.658-3.393,5.636-7.506,5.585-11.593c-0.045-3.522-1.678-6.879-4.599-9.452l-0.269-0.238
				C53.619,15.231,50.961,14.057,48.201,13.833z"/>
		</g>
	</g>
	<g>
		<path fill="#1B224D" d="M17.888,67.969L17.888,67.969c-0.626-0.051-1.206-0.297-1.676-0.712l-4.681-4.124
			c-1.194-1.056-1.307-2.882-0.257-4.072l1.667-1.889c0.478-0.546,1.27-1.14,1.924-1.445l0.905-0.428
			c0.138-0.066,0.46-0.308,0.563-0.423l6.712-7.793c2.206-3.006,2.777-8.84,2.771-11.949c-0.858-5.616,0.957-11.779,5.121-17.373
			c3.741-5.219,8.87-8.458,14.417-9.09c4.959-0.562,9.99,1.106,14.006,4.645l0.245,0.215c4.055,3.572,6.318,8.299,6.383,13.32
			c0.07,5.585-2.492,11.073-7.217,15.453c-5.003,4.816-10.892,7.398-16.574,7.257c-2.949,0.369-8.454,1.607-11.257,4.033
			l-7.158,7.882c-0.079,0.092-0.283,0.449-0.333,0.6l-0.307,0.948c-0.223,0.692-0.715,1.553-1.195,2.093l-1.659,1.885
			C19.691,67.68,18.794,68.042,17.888,67.969z M15.273,60.853l2.733,2.408l0.805-0.915c0.104-0.12,0.3-0.464,0.348-0.609
			l0.312-0.963c0.229-0.692,0.715-1.541,1.185-2.079l7.422-8.157c4.342-3.864,12.238-4.968,13.776-5.149l0.317-0.014
			c4.593,0.159,9.467-2.012,13.725-6.11c3.874-3.592,5.961-7.972,5.905-12.358c-0.049-3.822-1.809-7.454-4.952-10.223l-0.269-0.237
			c-3.114-2.743-6.964-4.046-10.754-3.615c-4.357,0.496-8.445,3.125-11.511,7.4c-3.544,4.764-5.079,9.867-4.344,14.399L30,34.947
			c0.014,1.623-0.096,9.958-3.644,14.698l-0.09,0.111l-6.777,7.867c-0.486,0.554-1.274,1.148-1.928,1.458l-0.916,0.433
			c-0.145,0.07-0.463,0.31-0.564,0.424L15.273,60.853z"/>
	</g>
	<g>
		<path fill="#FFFFFF" d="M63.894,26.878c-0.058-4.421-2.067-8.601-5.663-11.767l-0.138-0.12l-0.117-0.105
			c-3.594-3.167-7.993-4.635-12.386-4.136c-4.952,0.564-9.56,3.496-12.975,8.26c-3.956,5.314-5.099,9.913-4.957,15.935
			c0.119,5.028,0.175,9.233-2.978,13.446l-6.776,7.866c-0.288,0.328-0.846,0.747-1.24,0.933l-0.914,0.434
			c-0.396,0.185-0.953,0.604-1.241,0.932l-1.667,1.891c-0.289,0.327-0.255,0.829,0.07,1.117l4.685,4.126
			c0.326,0.288,0.832,0.258,1.119-0.07l1.665-1.889c0.29-0.327,0.634-0.935,0.768-1.35l0.312-0.962
			c0.137-0.413,0.484-1.021,0.771-1.348l7.237-7.971c3.887-3.458,11.422-4.49,12.632-4.634c5.022,0.173,10.465-2.092,15.247-6.694
			C61.628,36.802,63.957,31.863,63.894,26.878z"/>
	</g>
	<path fill="#1B224D" d="M35.159,21.261c2.818-3.932,6.547-6.338,10.512-6.788c3.49-0.397,6.867,0.743,9.767,3.299l0.112,0.099
		l0.127,0.112c2.901,2.555,4.459,5.763,4.504,9.275c0.049,3.99-1.864,7.992-5.395,11.268c-6.545,6.298-14.447,7.427-19.672,2.824
		l-0.002-0.001l-0.121-0.106l-0.146-0.129C29.62,36.509,29.746,28.531,35.159,21.261z"/>
	<g>
		<path fill="#FFFFFF" d="M52.256,43.632c-0.215-0.017-0.427-0.102-0.602-0.254L30.33,24.793c-0.436-0.38-0.482-1.041-0.103-1.477
			c0.381-0.436,1.041-0.482,1.477-0.101L53.028,41.8c0.435,0.381,0.481,1.042,0.102,1.477
			C52.902,43.537,52.575,43.659,52.256,43.632z"/>
	</g>
	<g>
		<path fill="#FFFFFF" d="M60.209,36.021c-0.216-0.017-0.427-0.101-0.602-0.254L38.283,17.18c-0.437-0.379-0.482-1.04-0.103-1.476
			c0.38-0.434,1.039-0.481,1.476-0.101l21.325,18.586c0.436,0.379,0.481,1.041,0.103,1.476
			C60.855,35.926,60.528,36.047,60.209,36.021z"/>
	</g>
	<g>
		<path fill="#FFFFFF" d="M29.474,38.391c-0.212-0.017-0.42-0.099-0.595-0.248c-0.438-0.376-0.49-1.036-0.114-1.476L49.25,12.741
			c0.374-0.439,1.033-0.491,1.474-0.114c0.439,0.376,0.491,1.036,0.115,1.475L30.354,38.028
			C30.127,38.293,29.796,38.417,29.474,38.391z"/>
	</g>
	<g>
		<path fill="#FFFFFF" d="M34.35,42.832c-0.212-0.018-0.421-0.1-0.596-0.249c-0.438-0.376-0.489-1.035-0.113-1.475l21.777-25.401
			c0.377-0.438,1.035-0.491,1.477-0.113c0.438,0.375,0.489,1.036,0.113,1.475L35.23,42.471
			C35.002,42.735,34.672,42.858,34.35,42.832z"/>
	</g>
	<g>
		<path fill="#FFFFFF" d="M39.195,47.447c-0.211-0.018-0.421-0.099-0.596-0.248c-0.438-0.377-0.489-1.037-0.113-1.476l20.858-24.322
			c0.377-0.438,1.036-0.491,1.477-0.113c0.438,0.376,0.489,1.037,0.113,1.476L40.076,47.086
			C39.849,47.351,39.519,47.474,39.195,47.447z"/>
	</g>
	<path fill="#BBBFBF" d="M63.894,26.878c-0.024-1.856-0.412-3.663-1.097-5.377c0.206,0.963,0.332,1.943,0.346,2.939
		c0.063,4.984-2.266,9.923-6.547,13.894c-4.782,4.603-9.21,7.011-14.971,7.109c-5.76,0.1-9.021,0.76-12.908,4.218l-7.237,7.971
		c-0.286,0.326-0.633,0.935-0.771,1.347l-0.312,0.964c-0.134,0.415-0.478,1.021-0.768,1.348l-1.665,1.891
		c-0.287,0.326-0.793,0.358-1.12,0.07L13.2,60.038l-0.357,0.407c-0.289,0.327-0.255,0.829,0.07,1.117l4.685,4.126
		c0.326,0.288,0.832,0.258,1.119-0.07l1.665-1.889c0.29-0.327,0.634-0.935,0.768-1.35l0.312-0.962
		c0.137-0.413,0.484-1.021,0.771-1.348l7.384-7.59c3.887-3.457,7.462-4.253,11.948-4.559c6.305-0.43,11.001-2.548,15.783-7.15
		C61.628,36.802,63.957,31.863,63.894,26.878z"/>
</g>
</svg>
