<?xml version="1.0" encoding="utf-8"?>
<!-- Generator: Adobe Illustrator 17.0.0, SVG Export Plug-In . SVG Version: 6.00 Build 0)  -->
<!DOCTYPE svg PUBLIC "-//W3C//DTD SVG 1.1//EN" "http://www.w3.org/Graphics/SVG/1.1/DTD/svg11.dtd">
<svg version="1.1" id="Capa_1" xmlns="http://www.w3.org/2000/svg" xmlns:xlink="http://www.w3.org/1999/xlink" x="0px" y="0px"
	 width="76.543px" height="76.543px" viewBox="0 0 76.543 76.543" enable-background="new 0 0 76.543 76.543" xml:space="preserve">
<g>
	<path fill="none" stroke="#1B224D" stroke-width="4" stroke-miterlimit="10" d="M44.797,42.754c0,2.094-1.698,3.793-3.793,3.793
		H22.332c-2.095,0-3.793-1.698-3.793-3.793V13.009c0-2.094,1.698-3.793,3.793-3.793h18.672c2.095,0,3.793,1.698,3.793,3.793V42.754z
		"/>
	<path fill="none" stroke="#1B224D" stroke-width="4" stroke-miterlimit="10" d="M57.926,58.493c0,2.094-1.698,3.793-3.793,3.793
		H35.461c-2.095,0-3.793-1.698-3.793-3.793V28.748c0-2.094,1.698-3.793,3.793-3.793h18.672c2.095,0,3.793,1.698,3.793,3.793V58.493z
		"/>
	
		<linearGradient id="SVGID_1_" gradientUnits="userSpaceOnUse" x1="-1480.6261" y1="1287.6212" x2="-1479.7305" y2="1372.2546" gradientTransform="matrix(-1 0 0 -1 -1442.0197 1357.543)">
		<stop  offset="0.0105" style="stop-color:#0D1221"/>
		<stop  offset="0.0807" style="stop-color:#0F1527"/>
		<stop  offset="0.6703" style="stop-color:#1D2A57"/>
		<stop  offset="0.9634" style="stop-color:#23326A"/>
	</linearGradient>
	<path fill="url(#SVGID_1_)" d="M76.509,61.335c0,8.38-6.793,15.174-15.174,15.174H15.208c-8.38,0-15.174-6.794-15.174-15.174
		V15.208c0-8.38,6.793-15.174,15.174-15.174h46.128c8.38,0,15.174,6.794,15.174,15.174V61.335z"/>
	<g>
		<path fill="none" stroke="#4079B5" stroke-width="2" stroke-miterlimit="10" d="M54.133,65.285H35.461
			c-3.746,0-6.793-3.047-6.793-6.792v-8.946h-6.336c-3.746,0-6.793-3.047-6.793-6.792V13.009c0-3.746,3.047-6.792,6.793-6.792
			h18.672c3.746,0,6.793,3.047,6.793,6.792v8.946h6.336c3.746,0,6.793,3.047,6.793,6.792v29.744
			C60.926,62.238,57.879,65.285,54.133,65.285z M22.333,8.217c-2.643,0-4.793,2.15-4.793,4.792v29.744
			c0,2.643,2.15,4.792,4.793,4.792h8.336v10.946c0,2.643,2.15,4.792,4.793,4.792h18.672c2.643,0,4.793-2.15,4.793-4.792V28.748
			c0-2.643-2.15-4.792-4.793-4.792h-8.336V13.009c0-2.643-2.15-4.792-4.793-4.792H22.333z M54.133,61.285H35.461
			c-1.54,0-2.793-1.253-2.793-2.792V47.546h8.336c2.643,0,4.793-2.15,4.793-4.792V25.956h8.336c1.54,0,2.793,1.253,2.793,2.792
			v29.744C56.926,60.032,55.673,61.285,54.133,61.285z M34.668,49.546v8.946c0,0.437,0.355,0.792,0.793,0.792h18.672
			c0.438,0,0.793-0.355,0.793-0.792V28.748c0-0.437-0.355-0.792-0.793-0.792h-6.336v14.798c0,3.746-3.047,6.792-6.793,6.792H34.668z
			 M41.004,45.546h-8.336V28.748c0-1.54,1.253-2.792,2.793-2.792h8.336v16.798C43.797,44.293,42.544,45.546,41.004,45.546z
			 M34.668,43.546h6.336c0.438,0,0.793-0.355,0.793-0.792V27.956h-6.336c-0.438,0-0.793,0.355-0.793,0.792V43.546z M30.668,45.546
			h-8.336c-1.54,0-2.793-1.253-2.793-2.792V13.009c0-1.54,1.253-2.792,2.793-2.792h18.672c1.54,0,2.793,1.253,2.793,2.792v10.946
			h-8.336c-2.643,0-4.793,2.15-4.793,4.792V45.546z M22.333,12.217c-0.438,0-0.793,0.355-0.793,0.792v29.744
			c0,0.437,0.355,0.792,0.793,0.792h6.336V28.748c0-3.746,3.047-6.792,6.793-6.792h6.336v-8.946c0-0.437-0.355-0.792-0.793-0.792
			H22.333z"/>
	</g>
	<path fill="none" stroke="#EC5D25" stroke-width="2" stroke-miterlimit="10" d="M54.133,22.956h-7.336v-9.946
		c0-3.194-2.599-5.792-5.793-5.792H22.333c-3.194,0-5.793,2.599-5.793,5.792v29.744c0,3.194,2.599,5.792,5.793,5.792h7.336v9.946
		c0,3.194,2.599,5.792,5.793,5.792h18.672c3.194,0,5.793-2.599,5.793-5.792V28.748C59.926,25.554,57.328,22.956,54.133,22.956z
		 M22.333,44.546c-0.988,0-1.793-0.804-1.793-1.792V13.009c0-0.988,0.805-1.792,1.793-1.792h18.672c0.988,0,1.793,0.804,1.793,1.792
		v9.946h-7.336c-3.194,0-5.793,2.599-5.793,5.792v15.798H22.333z M42.797,26.956v15.798c0,0.988-0.805,1.792-1.793,1.792h-7.336
		V28.748c0-0.988,0.805-1.792,1.793-1.792H42.797z M55.926,58.492c0,0.988-0.805,1.792-1.793,1.792H35.461
		c-0.988,0-1.793-0.804-1.793-1.792v-9.946h7.336c3.194,0,5.793-2.599,5.793-5.792V26.956h7.336c0.988,0,1.793,0.804,1.793,1.792
		V58.492z"/>
	<path fill="#1B224D" d="M54.133,22.956h-7.336v-9.946c0-3.194-2.599-5.792-5.793-5.792H22.333c-3.194,0-5.793,2.599-5.793,5.792
		v29.744c0,3.194,2.599,5.792,5.793,5.792h7.336v9.946c0,3.194,2.599,5.792,5.793,5.792h18.672c3.194,0,5.793-2.599,5.793-5.792
		V28.748C59.926,25.554,57.328,22.956,54.133,22.956z M22.333,44.546c-0.988,0-1.793-0.804-1.793-1.792V13.009
		c0-0.988,0.805-1.792,1.793-1.792h18.672c0.988,0,1.793,0.804,1.793,1.792v9.946h-7.336c-3.194,0-5.793,2.599-5.793,5.792v15.798
		H22.333z M42.797,26.956v15.798c0,0.988-0.805,1.792-1.793,1.792h-7.336V28.748c0-0.988,0.805-1.792,1.793-1.792H42.797z
		 M55.926,58.492c0,0.988-0.805,1.792-1.793,1.792H35.461c-0.988,0-1.793-0.804-1.793-1.792v-9.946h7.336
		c3.194,0,5.793-2.599,5.793-5.792V26.956h7.336c0.988,0,1.793,0.804,1.793,1.792V58.492z"/>
	<path fill="#FFFFFF" d="M44.797,42.754c0,2.094-1.698,3.793-3.793,3.793H22.332c-2.095,0-3.793-1.698-3.793-3.793V13.009
		c0-2.094,1.698-3.793,3.793-3.793h18.672c2.095,0,3.793,1.698,3.793,3.793V42.754z"/>
	<path fill="#BBBFBF" d="M42.841,44.546H24.169c-2.095,0-3.792-1.698-3.792-3.793V11.009c0-0.488,0.1-0.951,0.268-1.379
		c-1.243,0.623-2.104,1.895-2.104,3.379v29.744c0,2.094,1.698,3.793,3.792,3.793h18.672c1.607,0,2.972-1.003,3.525-2.413
		C44.019,44.389,43.451,44.546,42.841,44.546z"/>
	<path fill="#BBBFBF" d="M54.019,24.956H35.347c-1.653,0-3.044,1.064-3.563,2.538c0.394-0.139,0.812-0.229,1.254-0.229H51.71
		c2.095,0,3.792,1.698,3.792,3.793v29.744c0,0.442-0.09,0.86-0.229,1.254c1.475-0.52,2.538-1.911,2.538-3.563V28.748
		C57.811,26.654,56.114,24.956,54.019,24.956z"/>
	<path fill="#FFFFFF" stroke="#1B224D" stroke-width="4" stroke-miterlimit="10" d="M31.669,47.223V28.748
		c0-2.094,1.698-3.793,3.793-3.793h9.733"/>
	<path fill="#FFFFFF" d="M57.926,58.493c0,2.094-1.698,3.793-3.793,3.793H35.461c-2.095,0-3.793-1.698-3.793-3.793V28.748
		c0-2.094,1.698-3.793,3.793-3.793h18.672c2.095,0,3.793,1.698,3.793,3.793V58.493z"/>
	<path fill="#1B224D" d="M38.308,30.258c-0.014,0.001-0.028,0.001-0.042,0.002c0.103-0.166,0.164-0.361,0.164-0.57
		c0.005-0.602-0.481-1.094-1.082-1.098c-0.603-0.004-1.095,0.48-1.098,1.084c-0.002,0.209,0.056,0.404,0.156,0.571
		c-0.014-0.001-0.028-0.001-0.043-0.002c-0.602-0.004-1.094,0.482-1.098,1.084c-0.003,0.602,0.481,1.095,1.084,1.099
		c0.194,0.001,0.373-0.051,0.531-0.138l-0.343,0.593h0.792h0.792l-0.329-0.57c0.151,0.08,0.321,0.126,0.504,0.128
		c0.602,0.005,1.094-0.48,1.097-1.084C39.397,30.755,38.912,30.263,38.308,30.258z"/>
	<polygon fill="#1B224D" points="22.993,12.472 21.495,14.974 22.99,17.478 22.993,17.474 22.996,17.478 24.494,14.976 
		22.998,12.472 22.995,12.475 	"/>
	<path fill="#BBBFBF" d="M55.94,60.228H37.268c-2.095,0-3.792-1.698-3.792-3.793V26.691c0-0.488,0.1-0.951,0.268-1.379
		c-1.243,0.623-2.104,1.895-2.104,3.379v29.744c0,2.094,1.698,3.793,3.792,3.793h18.672c1.607,0,2.972-1.003,3.525-2.413
		C57.118,60.07,56.55,60.228,55.94,60.228z"/>
</g>
</svg>
