<?xml version="1.0" encoding="utf-8"?>
<!-- Generator: Adobe Illustrator 17.0.0, SVG Export Plug-In . SVG Version: 6.00 Build 0)  -->
<!DOCTYPE svg PUBLIC "-//W3C//DTD SVG 1.1//EN" "http://www.w3.org/Graphics/SVG/1.1/DTD/svg11.dtd">
<svg version="1.1" id="Capa_1" xmlns="http://www.w3.org/2000/svg" xmlns:xlink="http://www.w3.org/1999/xlink" x="0px" y="0px"
	 width="76.543px" height="76.543px" viewBox="0 0 76.543 76.543" enable-background="new 0 0 76.543 76.543" xml:space="preserve">
<g>
	<path fill="none" stroke="#1B224D" stroke-width="1.5" stroke-miterlimit="10" d="M53.297-6.158"/>
	
		<linearGradient id="SVGID_1_" gradientUnits="userSpaceOnUse" x1="-1480.6261" y1="1287.5616" x2="-1479.7305" y2="1372.1949" gradientTransform="matrix(-1 0 0 -1 -1442.0197 1357.543)">
		<stop  offset="0.0105" style="stop-color:#0D1221"/>
		<stop  offset="0.0807" style="stop-color:#0F1527"/>
		<stop  offset="0.6703" style="stop-color:#1D2A57"/>
		<stop  offset="0.9634" style="stop-color:#23326A"/>
	</linearGradient>
	<path fill="url(#SVGID_1_)" d="M76.509,61.395c0,8.38-6.794,15.174-15.174,15.174H15.208c-8.38,0-15.174-6.793-15.174-15.174
		V15.267c0-8.38,6.793-15.174,15.174-15.174h46.128c8.38,0,15.174,6.793,15.174,15.174V61.395z"/>
	<path fill="#1B224D" stroke="#1B224D" stroke-width="1.5" stroke-miterlimit="10" d="M59.615,55.235"/>
	<path fill="#1B224D" stroke="#1B224D" stroke-width="1.5" stroke-miterlimit="10" d="M65.776,55.235"/>
	<path fill="none" stroke="#1B224D" stroke-width="1.5" stroke-miterlimit="10" d="M53.297,97.808"/>
	<path fill="#4079B5" d="M68.885,47.912c-0.756-0.779-1.063-1.01-1.678-1.468l-0.357-0.268c-1.962-1.479-5.246-3.957-7.916-8.289
		l-8.155-13.224L43.75,12.712l-3.179,1.246c-3.059,1.2-4.964,3.826-5.671,7.81c-1.872-0.029-2.519-0.37-2.526-0.374
		c-3.921-2.248-3.79-2.849-3.69-3.308c0.106-0.494,0.253-1.17,0.269-1.948c0.045-1.911-1.12-3.788-2.9-4.672
		c-1.601-0.793-4.21-1.179-7.551,1.485c-2.407,1.917-7.397,12.652-7.704,13.329l-0.265,0.54l-2.637,5.336l-0.313,1.067
		c-0.422,2.116,0.525,4.378,2.438,5.486l0.351,0.205c6.434,3.754,27.732,16.178,31.682,18.443c0.526,0.302,1.038,0.609,1.555,0.919
		l0.099,0.059c3.399,2.04,6.914,4.149,12.268,4.149c1.396,0,2.872-0.153,4.388-0.454c3.547-0.707,6.345-1.765,7.88-2.979
		c0.78-0.618,1.355-1.404,1.731-2.296l0.008,0.006l0.024-0.095c0.205-0.509,0.349-1.049,0.417-1.618l0.006-0.023
		C70.495,54.534,71.032,50.158,68.885,47.912z M9.718,33.014c-0.181,0.41-0.263,0.845-0.257,1.276
		c-0.007-0.43,0.073-0.862,0.252-1.267L9.725,33L9.718,33.014z M64.454,49.378c0.164,0.124,0.315,0.238,0.457,0.346l-0.073,0.021
		l-1.883-1.52C63.504,48.662,64.009,49.043,64.454,49.378z M61.01,43.788c-1.269-1.309-2.577-2.902-3.779-4.852
		C58.434,40.887,59.743,42.48,61.01,43.788z M61.473,49.601c-0.028,0.005-0.057,0.01-0.085,0.014l-1.594-1.45
		C60.332,48.652,60.891,49.13,61.473,49.601z M59.349,47.755c-2.196-2.055-4.006-4.258-5.523-6.721
		C55.336,43.485,57.156,45.701,59.349,47.755z M42.89,15.197l6.175,10.498L42.89,15.197L42.89,15.197z M39.688,16.743
		c-1.447,1.146-2.393,2.959-2.826,5.42C37.293,19.703,38.24,17.888,39.688,16.743z M38.635,24.143
		c-0.028,0.443-0.044,0.91-0.045,1.401v0c-0.024,0.002-0.048,0.005-0.072,0.008L38.635,24.143z M36.737,23.009
		c-0.028,0.231-0.053,0.467-0.072,0.708c-0.007,0-0.013,0-0.02,0.001L36.737,23.009z M35.656,23.762
		c-2.295,0.062-3.488-0.258-4.071-0.528C32.111,23.47,33.305,23.818,35.656,23.762z M34.006,25.741
		c-0.545-0.032-1.051-0.088-1.512-0.171C32.956,25.653,33.461,25.709,34.006,25.741z M28.828,26.272
		c-0.738-0.439-1.404-0.869-2.001-1.292C27.417,25.397,28.081,25.827,28.828,26.272z M27.308,20.168
		c-0.894-1.039-0.744-1.747-0.585-2.478C26.533,18.567,26.597,19.308,27.308,20.168z M26.953,16.094
		c0.013-0.528-0.132-1.054-0.397-1.521C26.821,15.04,26.965,15.566,26.953,16.094z M24.697,17.634l0.248-1.421
		c-0.024,0.353-0.101,0.704-0.176,1.046c-0.342,1.58-0.11,2.843,0.927,4.107C24.322,19.775,24.522,18.629,24.697,17.634z
		 M23.579,12.889c0.05,0,0.097,0.013,0.147,0.015c-0.061-0.003-0.117-0.012-0.181-0.011C23.556,12.893,23.568,12.889,23.579,12.889z
		 M28.396,28.335c2.387,1.367,5.88,1.753,10.671,1.179l3.513-0.422l0.008-2.578l1.338,2.275l8.197,13.294
		c1.245,2.02,2.673,3.873,4.331,5.616c-1.616-0.278-2.924-0.863-4.092-1.477c-0.868-0.509-1.897-1.155-3.162-1.986
		c-0.188-0.118-19.907-12.47-26.709-16.446c-0.923-0.523-1.761-0.993-2.517-1.417l-0.252-0.142c0.671-1.329,1.328-2.593,1.92-3.696
		C22.788,24.528,24.93,26.348,28.396,28.335z M56.238,49.689c-1.895-0.305-3.403-0.965-4.74-1.662
		C52.802,48.707,54.337,49.378,56.238,49.689z M51.39,47.971L51.39,47.971c-0.772-0.451-1.628-0.982-2.617-1.624
		C49.764,46.989,50.618,47.519,51.39,47.971z M21.493,29.525c-0.175-0.1-0.347-0.197-0.517-0.293
		C21.146,29.329,21.318,29.426,21.493,29.525c6.766,3.955,26.454,16.287,26.626,16.395c0.007,0.004,0.014,0.009,0.021,0.014
		C47.461,45.508,28.057,33.362,21.493,29.525z M47.617,47.981c-0.182-0.118-0.367-0.239-0.557-0.364
		c0.003,0.002,0.014,0.009,0.015,0.01C47.259,47.748,47.44,47.866,47.617,47.981z M22.242,17.644
		c0.181-0.144,0.341-0.26,0.484-0.354c-0.141,0.804-0.182,1.578-0.053,2.346l-0.463-1.962L22.242,17.644z M21.252,15.883
		c-0.091,0.068-0.189,0.144-0.299,0.232c0.014-0.013,0.027-0.024,0.041-0.035C21.073,16.018,21.159,15.951,21.252,15.883z
		 M19.748,14.516c0.014-0.012,0.028-0.019,0.043-0.03C19.776,14.497,19.762,14.504,19.748,14.516
		c-0.021,0.017-0.041,0.034-0.063,0.053C19.707,14.55,19.727,14.532,19.748,14.516z M20.9,19.734
		c-0.636,1.124-1.429,2.604-2.272,4.242C19.456,22.366,20.252,20.879,20.9,19.734z M18.463,20.007
		c-1.263,2.311-2.603,4.996-3.175,6.153l-0.508,1.028C15.669,25.297,17.143,22.386,18.463,20.007z M17.992,29.849
		c-0.093-0.052-0.19-0.107-0.281-0.157L17.5,29.573c-0.689-0.385-1.302-0.729-1.84-1.034L17.992,29.849z M17.976,16.869
		c-2.179,3.525-5.039,9.553-5.353,10.227l0,0C13.298,25.59,15.949,20.137,17.976,16.869z M11.707,28.966l0.662,0.601l-0.319,0.104
		l-0.535-0.312L11.707,28.966z M11.378,37.187l-0.353-0.207c-0.086-0.049-0.168-0.103-0.247-0.159
		c0.079,0.056,0.161,0.109,0.246,0.158c0.034,0.021,0.681,0.398,1.77,1.033C12.265,37.705,11.791,37.428,11.378,37.187z
		 M44.733,56.62l-0.106-0.064c-0.031-0.019-0.063-0.038-0.094-0.056c0.034,0.021,0.069,0.042,0.105,0.063l0.093,0.056
		c0.311,0.187,0.619,0.372,0.928,0.555C45.347,56.989,45.04,56.804,44.733,56.62z M59.97,60.069c1.163-0.232,2.256-0.51,3.234-0.818
		C62.226,59.559,61.134,59.837,59.97,60.069z M65.758,55.916c-0.986,0.78-3.412,1.641-6.179,2.191
		c-1.258,0.25-2.471,0.377-3.607,0.377c-4.246,0-7.012-1.66-10.215-3.582l-0.104-0.062c-0.53-0.318-1.065-0.639-1.615-0.954
		c-4.563-2.618-31.775-18.498-32.011-18.636c-0.488-0.282-0.704-0.923-0.493-1.402l0.807-1.691
		c4.113,2.401,27.47,16.023,31.969,18.602c0.568,0.326,1.139,0.666,1.718,1.012c0.528,0.314,1.061,0.63,1.599,0.94
		c0.286,0.173,0.567,0.34,0.844,0.501c0.319,0.168,0.659,0.34,1.013,0.511c1.411,0.719,2.878,1.331,4.446,1.677
		c0.457,0.101,0.93,0.166,1.415,0.212c0.043,0.007,0.087,0.013,0.131,0.02c0.002,0,0.004,0,0.006,0.001
		c0.945,0.145,1.954,0.231,3.037,0.231c1.296,0,2.653-0.122,4.038-0.359c1.515-0.264,2.784-0.565,3.87-0.908
		C66.351,55.149,66.136,55.616,65.758,55.916z M65.658,47.782c0-0.001-0.001-0.001-0.002-0.002l0.355,0.266
		c0.35,0.261,0.562,0.42,0.81,0.642C66.511,48.425,66.131,48.138,65.658,47.782z M67.427,49.282
		c0.006,0.005,0.011,0.011,0.017,0.017c0.063,0.066,0.123,0.138,0.18,0.212L67.427,49.282z"/>
	<g>
		<path fill="#EC5D25" d="M21,30.395c6.58,3.847,26.411,16.262,26.625,16.396c1.228,0.808,2.311,1.487,3.26,2.042
			c2.053,1.081,4.39,2.032,7.607,2.032c0.965,0,2.01-0.085,3.149-0.279l2.186-0.371l-1.726-1.393
			c-3.084-2.49-5.513-5.209-7.425-8.313l-8.187-13.276l-5.006-8.509l-0.858,1.484c-0.691,1.195-1.03,2.941-1.037,5.337l-0.002,0.885
			l-0.879,0.106c-4.129,0.494-7.015,0.232-8.822-0.804c-6.398-3.669-6.572-6.006-6.176-8.27l0.399-2.277l-1.933,1.269
			c-0.165,0.108-0.351,0.242-0.559,0.407l-0.093,0.083c-1.12,1.143-4.913,8.79-5.342,9.658l-0.419,0.849l2.558,1.437
			C19.122,29.336,20.018,29.838,21,30.395z M21.781,20.208c0.613,2.6,2.837,4.808,7.112,7.259c2.194,1.257,5.483,1.602,10.055,1.054
			l2.635-0.316l0.008-2.654c0.003-0.989,0.069-1.782,0.17-2.414l3.017,5.128l8.197,13.294c1.649,2.676,3.654,5.079,6.094,7.297
			c-2.899,0.122-5.048-0.632-7.212-1.771c-0.879-0.515-1.933-1.177-3.188-2.002c-0.193-0.122-19.939-12.488-26.67-16.422
			c-0.997-0.565-1.896-1.068-2.697-1.518l-0.901-0.505C19.668,24.1,20.901,21.761,21.781,20.208z"/>
		<path fill="#EC5D25" d="M68.167,48.607c-0.823-0.85-1.028-0.961-1.917-1.632c-2.019-1.523-5.397-4.07-8.167-8.564l-8.166-13.242
			L43.32,13.955l-2.384,0.935c-2.911,1.142-4.65,3.789-5.176,7.872c-2.7,0.082-3.7-0.393-3.884-0.499
			c-4.556-2.612-4.371-3.465-4.175-4.367c0.104-0.484,0.236-1.087,0.251-1.78c0.036-1.531-0.906-3.039-2.345-3.753
			c-1.34-0.665-3.551-0.966-6.483,1.372c-2.197,1.75-7.404,12.917-7.446,13.024l-2.405,4.865l0.016-0.005l-0.474,0.965
			c-0.844,1.909-0.093,4.222,1.707,5.263C10.789,38,38.014,53.889,42.548,56.489c0.536,0.307,1.057,0.62,1.573,0.93l0.096,0.058
			c3.283,1.97,6.678,4.008,11.756,4.008c1.331,0,2.742-0.146,4.192-0.434c3.345-0.667,6.062-1.68,7.454-2.782
			c1.042-0.825,1.659-2.015,1.811-3.382l0.005,0.003C69.436,54.888,70.037,50.564,68.167,48.607z M13.524,27.525
			c0.974-2.165,5.398-11.072,6.847-12.227c1.671-1.331,3.173-1.726,4.349-1.144c0.744,0.37,1.252,1.157,1.233,1.916
			c-0.011,0.502-0.114,0.979-0.206,1.401c-0.468,2.159,0.182,3.686,5.135,6.526c0.79,0.454,2.447,0.945,5.85,0.718l0.858-0.057
			l0.071-0.858c0.313-3.758,1.661-6.129,4.006-7.049l0.794-0.312l5.742,9.761l8.177,13.26c2.968,4.814,6.534,7.504,8.677,9.119
			c0.386,0.291,0.706,0.533,0.968,0.746l-1.522,1.471c-0.261,0.2-1.19,0.738-4.185,1.406c-1.773,0.395-3.242,0.541-4.522,0.444
			c-1.944-0.312-3.553-0.925-4.927-1.586c-0.589-0.299-1.174-0.621-1.753-0.955c-0.779-0.473-1.63-1.013-2.589-1.643
			c-0.196-0.123-19.887-12.454-26.523-16.334c-1.021-0.578-1.951-1.1-2.778-1.563l-0.195-0.109c-1.279-0.716-2.3-1.288-3.066-1.743
			l-0.732-0.434L13.524,27.525z M66.379,56.7c-1.118,0.885-3.648,1.8-6.604,2.388c-1.322,0.263-2.601,0.396-3.802,0.396
			c-4.523,0-7.536-1.808-10.728-3.724l-0.094-0.056c-0.528-0.317-1.061-0.636-1.608-0.95c-4.527-2.597-31.746-18.48-32.015-18.638
			c-0.932-0.539-1.319-1.736-0.894-2.699l1.262-2.646l0.037-0.012l0.914,0.533c4.118,2.404,27.509,16.046,31.963,18.599
			c0.573,0.329,1.148,0.671,1.729,1.018c0.517,0.308,1.039,0.618,1.566,0.922c0.284,0.172,0.562,0.337,0.834,0.496
			c0.31,0.164,0.642,0.331,0.987,0.497c1.353,0.69,2.751,1.274,4.221,1.599c0.444,0.098,0.905,0.164,1.382,0.205
			c0.928,0.148,1.923,0.235,2.99,0.235c1.241,0,2.541-0.117,3.866-0.345c1.869-0.326,3.359-0.702,4.556-1.15l0.492,0.3
			C67.579,54.938,67.21,56.04,66.379,56.7z"/>
	</g>
	<g>
		<g>
			<path fill="#1B224D" d="M55.973,60.484c-4.802,0-8.065-1.959-11.243-3.867c-0.553-0.332-1.11-0.667-1.685-0.996
				c-4.558-2.614-31.745-18.48-32.019-18.64c-1.364-0.79-1.936-2.546-1.296-3.995l1.742-3.653l1.877,1.095
				c4.383,2.558,27.568,16.08,31.956,18.595c0.579,0.332,1.159,0.677,1.742,1.025c2.333,1.391,4.744,2.829,7.313,3.397
				c1.699,0.375,3.661,0.292,6.173-0.268c2.921-0.651,4.101-1.224,4.576-1.589l1.283,0.275l1.453-1.236
				c0.81,2.234,0.465,5.814-0.849,6.855c-1.254,0.992-3.881,1.958-7.028,2.585C58.522,60.357,57.198,60.484,55.973,60.484z"/>
		</g>
		<g>
			<path fill="#1B224D" d="M58.518,53.863c-3.897,0-6.614-0.276-8.964-1.516c-1.032-0.603-33.016-18.892-33.789-19.351l-4.578-3.062
				l1.422-2.811c0.04-0.101,5.191-11.055,7.139-12.606c2.521-2.01,4.337-1.793,5.416-1.258c1.097,0.544,1.816,1.683,1.789,2.833
				c-0.013,0.594-0.127,1.124-0.228,1.591c-0.275,1.271-0.535,2.471,4.655,5.447c0.476,0.273,1.883,0.815,5.285,0.587
				c0.348-4.172,1.903-6.825,4.637-7.897l1.589-0.623l6.164,10.479l8.177,13.26c2.868,4.653,6.261,7.384,8.416,8.837
				c2.616,1.764,2.616,4.892,2.616,4.892l-1.674-0.234c-1.14,0.427-2.572,0.787-4.377,1.101
				C60.884,53.762,59.657,53.862,58.518,53.863z M17.081,27.045c0.429,0.242,0.899,0.505,1.413,0.792
				c0.879,0.493,1.882,1.054,3.011,1.694c6.651,3.888,26.433,16.274,26.632,16.399l0.038,0.024c1.208,0.795,2.276,1.466,3.176,1.993
				c2.872,1.513,5.733,2.396,10.124,1.652c-2.203-1.779-5.144-4.501-7.648-8.566L45.629,27.74l-4.136-7.031
				c-0.594,1.027-0.896,2.645-0.902,4.839l-0.005,1.77l-1.757,0.211c-4.354,0.521-7.438,0.217-9.439-0.929
				c-6.173-3.54-7.219-6.144-6.664-9.311c-0.144,0.094-0.305,0.211-0.486,0.355C21.45,18.45,18.589,23.99,17.081,27.045z
				 M22.954,16.002C22.954,16.003,22.954,16.003,22.954,16.002C22.954,16.003,22.954,16.003,22.954,16.002z"/>
		</g>
	</g>
	<g>
		<path fill="#FFFFFF" d="M66.33,53.176c-0.858,0.659-2.449,1.306-5.361,1.955c-2.607,0.58-4.914,0.74-7.039,0.269
			c-3.552-0.785-6.588-2.904-9.618-4.64c-4.285-2.456-26.34-16.231-31.49-19.237l-1.261,2.273c-0.23,0.519-0.017,1.175,0.475,1.459
			c0,0,27.403,15.992,32.005,18.632c4.601,2.637,8.24,5.672,15.539,4.221c3.033-0.604,5.296-1.494,6.177-2.191
			C66.699,55.169,66.498,53.812,66.33,53.176z"/>
		<path fill="#FFFFFF" d="M47.075,47.626c1.15,0.757,2.262,1.46,3.263,2.048c3.127,1.65,6.512,2.755,11.532,1.888
			c1.756-0.305,3.056-0.643,4.018-1.003c-0.953-1.113-6.273-3.942-10.359-10.573c-1.202-1.95-6.104-9.9-8.198-13.295l0,0
			l-5.298-9.008c-3.194,1.252-3.436,5.614-3.442,7.861c-2.999,0.36-6.311,0.407-8.206-0.679c-7.892-4.526-5.478-6.588-5.43-8.82
			c0.016-0.721-1.161-2.195-3.961,0.035c-1.39,1.107-6.473,11.648-6.522,11.772c1.287,0.763,3.29,1.855,6.045,3.419
			C27.197,35.176,47.075,47.626,47.075,47.626z"/>
	</g>
	<g>
		<path fill="#FFFFFF" d="M66.33,53.176c-0.858,0.659-2.449,1.306-5.361,1.955c-2.607,0.58-4.914,0.74-7.039,0.269
			c-3.552-0.785-6.588-2.904-9.618-4.64c-4.285-2.456-26.34-16.231-31.49-19.237l-1.261,2.273c-0.23,0.519-0.017,1.175,0.475,1.459
			c0,0,27.403,15.992,32.005,18.632c4.601,2.637,8.24,5.672,15.539,4.221c3.033-0.604,5.296-1.494,6.177-2.191
			C66.699,55.169,66.498,53.812,66.33,53.176z"/>
		<path fill="#FFFFFF" d="M47.075,47.626c1.15,0.757,2.262,1.46,3.263,2.048c3.127,1.65,6.512,2.755,11.532,1.888
			c1.756-0.305,3.056-0.643,4.018-1.003c-0.953-1.113-6.273-3.942-10.359-10.573c-1.202-1.95-6.104-9.9-8.198-13.295l0,0
			l-5.298-9.008c-3.194,1.252-3.436,5.614-3.442,7.861c-2.999,0.36-6.311,0.407-8.206-0.679c-7.892-4.526-5.478-6.588-5.43-8.82
			c0.016-0.721-1.161-2.195-3.961,0.035c-1.39,1.107-6.473,11.648-6.522,11.772c1.287,0.763,3.29,1.855,6.045,3.419
			C27.197,35.176,47.075,47.626,47.075,47.626z"/>
	</g>
	<path fill="#1B224D" d="M68.252,52.664l0.011,0.001c0,0-0.004-0.894-0.402-1.993c-0.005-0.014-0.009-0.029-0.014-0.043
		l-0.001,0.001c-0.351-0.951-0.997-2.047-2.199-2.857c-2.155-1.453-5.548-4.184-8.416-8.837l-8.177-13.26L42.89,15.197l-1.589,0.623
		c-2.733,1.072-4.289,3.725-4.637,7.897c-3.402,0.227-4.809-0.314-5.285-0.587c-5.19-2.976-4.931-4.177-4.655-5.447
		c0.102-0.467,0.216-0.997,0.228-1.591c0.027-1.15-0.692-2.289-1.789-2.833c-1.079-0.535-2.895-0.752-5.416,1.258
		c-1.947,1.551-7.099,12.505-7.139,12.606l-1.122,2.219l-0.013-0.008l-0.286,0.6l0,0l-1.456,3.053
		c-0.641,1.449-0.068,3.205,1.296,3.995c0.274,0.16,27.461,16.026,32.019,18.64c0.574,0.329,1.132,0.665,1.685,0.996
		c3.178,1.907,6.441,3.867,11.243,3.867c1.225,0,2.549-0.127,3.997-0.416c3.147-0.627,5.774-1.593,7.028-2.585
		C67.956,56.725,68.397,54.617,68.252,52.664z M51.35,47.949c-0.899-0.527-1.968-1.198-3.176-1.993l-0.038-0.024
		c-0.199-0.125-19.98-12.511-26.632-16.399c-1.129-0.64-2.132-1.201-3.011-1.694c-0.514-0.288-0.984-0.551-1.413-0.792
		c1.509-3.055,4.369-8.595,5.159-9.401c0.182-0.144,0.343-0.261,0.486-0.355c-0.555,3.167,0.491,5.771,6.664,9.311
		c2.001,1.146,5.085,1.451,9.439,0.929l1.757-0.211l0.005-1.77c0.006-2.195,0.309-3.813,0.902-4.839l4.136,7.031l8.197,13.294
		c2.505,4.065,5.445,6.787,7.648,8.566C57.084,50.345,54.222,49.461,51.35,47.949z"/>
	<path fill="#FFFFFF" d="M66.33,53.176c-0.858,0.659-2.449,1.306-5.361,1.955c-2.607,0.58-4.914,0.74-7.039,0.269
		c-3.552-0.785-6.588-2.904-9.618-4.64c-4.285-2.456-26.34-16.231-31.49-19.237l-1.261,2.273c-0.23,0.519-0.017,1.175,0.475,1.459
		c0,0,27.403,15.992,32.005,18.632c4.601,2.637,8.24,5.672,15.539,4.221c3.033-0.604,5.296-1.494,6.177-2.191
		C66.699,55.169,66.498,53.812,66.33,53.176z"/>
	<path fill="#FFFFFF" d="M47.075,47.626c1.15,0.757,2.262,1.46,3.263,2.048c3.127,1.65,6.512,2.755,11.532,1.888
		c1.756-0.305,3.056-0.643,4.018-1.003c-0.953-1.113-6.273-3.942-10.359-10.573c-1.202-1.95-6.104-9.9-8.198-13.295l0,0
		l-5.298-9.008c-3.194,1.252-3.436,5.614-3.442,7.861c-2.999,0.36-6.311,0.407-8.206-0.679c-7.892-4.526-5.478-6.588-5.43-8.82
		c0.016-0.721-1.161-2.195-3.961,0.035c-1.39,1.107-6.473,11.648-6.522,11.772c1.287,0.763,3.29,1.855,6.045,3.419
		C27.197,35.176,47.075,47.626,47.075,47.626z"/>
	<path fill="none" stroke="#BBBFBF" stroke-width="2.5" stroke-miterlimit="10" d="M40.648,17.29c0,0,13.219,23.138,16.358,26.498
		c3.139,3.361,7.495,7.009,7.495,7.009s1.757,4.653-0.335,7.057"/>
	<path fill="none" stroke="#BBBFBF" stroke-width="2.5" stroke-miterlimit="10" d="M25.696,15.334c0,0-3.899-1.377-5.905,3.129
		c-2.006,4.505-4.025,8.989-4.025,8.989s34.426,21.664,38.479,22.721c4.053,1.057,7.211,1.176,8.71,0.191"/>
	<path fill="none" stroke="#BBBFBF" stroke-width="2.5" stroke-miterlimit="10" d="M16.087,25.864
		c-2.006,4.505-4.058,9.387-4.058,9.387S48.061,56.86,52.105,57.955c5.645,1.529,11.998-0.128,13.654-2.039"/>
	<path fill="none" stroke="#BBBFBF" stroke-width="2.5" stroke-miterlimit="10" d="M40.968,18.287c0,0-1.174,3.022-1.171,5.214"/>
	<path fill="#1B224D" d="M68.252,52.664l0.011,0.001c0,0-0.004-0.894-0.402-1.993c-0.005-0.014-0.009-0.029-0.014-0.043
		l-0.001,0.001c-0.351-0.951-0.997-2.047-2.199-2.857c-2.155-1.453-5.548-4.184-8.416-8.837l-8.177-13.26L42.89,15.197l-1.589,0.623
		c-2.733,1.072-4.289,3.725-4.637,7.897c-3.402,0.227-4.809-0.314-5.285-0.587c-5.19-2.976-4.931-4.177-4.655-5.447
		c0.102-0.467,0.216-0.997,0.228-1.591c0.027-1.15-0.692-2.289-1.789-2.833c-1.079-0.535-2.895-0.752-5.416,1.258
		c-1.947,1.551-7.099,12.505-7.139,12.606l-1.122,2.219l-0.013-0.008l-0.286,0.6l0,0l-1.456,3.053
		c-0.641,1.449-0.068,3.205,1.296,3.995c0.274,0.16,27.461,16.026,32.019,18.64c0.574,0.329,1.132,0.665,1.685,0.996
		c3.178,1.907,6.441,3.867,11.243,3.867c1.225,0,2.549-0.127,3.997-0.416c3.147-0.627,5.774-1.593,7.028-2.585
		C67.956,56.725,68.397,54.617,68.252,52.664z M20.994,16.08c2.799-2.23,3.976-0.756,3.961-0.035
		c-0.048,2.231-2.462,4.293,5.43,8.82c1.895,1.086,5.207,1.039,8.206,0.679c0.006-2.247,0.248-6.609,3.442-7.861l5.298,9.008
		c2.093,3.395,6.996,11.345,8.198,13.295c4.086,6.631,9.407,9.46,10.359,10.573c-0.962,0.36-2.262,0.698-4.018,1.003
		c-5.021,0.867-8.405-0.238-11.532-1.888c-1.001-0.588-2.112-1.29-3.263-2.048c0,0-19.878-12.45-26.558-16.355
		c-2.756-1.563-4.758-2.655-6.045-3.419C14.521,27.728,19.604,17.188,20.994,16.08z M65.757,55.916
		c-0.881,0.697-3.144,1.588-6.177,2.191c-7.3,1.452-10.938-1.583-15.539-4.221c-4.603-2.64-32.005-18.632-32.005-18.632
		c-0.491-0.284-0.704-0.94-0.475-1.459l1.261-2.273c5.15,3.006,27.206,16.781,31.49,19.237c3.03,1.736,6.067,3.855,9.618,4.64
		c2.125,0.471,4.432,0.312,7.039-0.269c2.912-0.649,4.502-1.296,5.361-1.955C66.498,53.812,66.699,55.169,65.757,55.916z"/>
	<path fill="none" stroke="#1B224D" stroke-width="2" stroke-miterlimit="10" d="M37.589,24.658c0,0,5.463-0.498,7.942-2.121"/>
</g>
</svg>
