<?xml version="1.0" encoding="utf-8"?>
<!-- Generator: Adobe Illustrator 16.0.0, SVG Export Plug-In . SVG Version: 6.00 Build 0)  -->
<!DOCTYPE svg PUBLIC "-//W3C//DTD SVG 1.1//EN" "http://www.w3.org/Graphics/SVG/1.1/DTD/svg11.dtd">
<svg version="1.1" id="Capa_1" xmlns="http://www.w3.org/2000/svg" xmlns:xlink="http://www.w3.org/1999/xlink" x="0px" y="0px"
	 width="76.543px" height="76.543px" viewBox="0 0 76.543 76.543" enable-background="new 0 0 76.543 76.543" xml:space="preserve">
<g>
	
		<linearGradient id="SVGID_1_" gradientUnits="userSpaceOnUse" x1="-1480.626" y1="1287.6211" x2="-1479.7303" y2="1372.2549" gradientTransform="matrix(-1 0 0 -1 -1442.0195 1357.543)">
		<stop  offset="0.0105" style="stop-color:#0D1221"/>
		<stop  offset="0.0807" style="stop-color:#0F1527"/>
		<stop  offset="0.6703" style="stop-color:#1D2A57"/>
		<stop  offset="0.9634" style="stop-color:#23326A"/>
	</linearGradient>
	<path fill="url(#SVGID_1_)" d="M76.51,61.336c0,8.379-6.795,15.174-15.174,15.174H15.208c-8.38,0-15.174-6.795-15.174-15.174
		V15.207c0-8.38,6.794-15.173,15.174-15.173h46.128c8.379,0,15.174,6.793,15.174,15.173V61.336z"/>
	<path fill="#1B224D" stroke="#1B224D" stroke-width="1.5" stroke-miterlimit="10" d="M58.615,55.176"/>
	<path fill="#1B224D" stroke="#1B224D" stroke-width="1.5" stroke-miterlimit="10" d="M64.777,55.176"/>
	<circle fill="#FFFFFF" cx="38.272" cy="35.669" r="25.429"/>
	<g>
		<g>
			<path fill="none" stroke="#4079B5" stroke-width="2" stroke-miterlimit="10" d="M38.271,64.098
				c-15.676,0-28.429-12.752-28.429-28.429c0-15.676,12.753-28.429,28.429-28.429c15.676,0,28.43,12.753,28.43,28.429
				C66.701,51.346,53.947,64.098,38.271,64.098z M38.271,9.24c-14.572,0-26.429,11.856-26.429,26.429s11.856,26.429,26.429,26.429
				c14.575,0,26.43-11.855,26.43-26.429S52.846,9.24,38.271,9.24z M38.271,60.098c-13.47,0-24.429-10.959-24.429-24.429
				c0-13.47,10.959-24.429,24.429-24.429c13.471,0,24.43,10.959,24.43,24.429C62.701,49.139,51.742,60.098,38.271,60.098z
				 M38.271,13.24c-12.367,0-22.429,10.062-22.429,22.429c0,12.368,10.062,22.429,22.429,22.429c12.368,0,22.43-10.061,22.43-22.429
				C60.701,23.301,50.639,13.24,38.271,13.24z"/>
		</g>
	</g>
	<g>
		<path fill="none" stroke="#EC5D25" stroke-width="2" stroke-miterlimit="10" d="M38.271,63.098
			c-15.124,0-27.429-12.305-27.429-27.429c0-15.125,12.305-27.429,27.429-27.429c15.125,0,27.43,12.305,27.43,27.429
			C65.701,50.793,53.396,63.098,38.271,63.098z M38.271,12.24c-12.918,0-23.429,10.51-23.429,23.429s10.511,23.429,23.429,23.429
			c12.92,0,23.43-10.51,23.43-23.429S51.191,12.24,38.271,12.24z"/>
	</g>
	<circle fill="none" stroke="#1B224D" stroke-width="4" stroke-miterlimit="10" cx="38.272" cy="35.669" r="25.429"/>
	<circle fill="#FFFFFF" cx="38.272" cy="35.669" r="25.429"/>
	<path fill="#1B224D" d="M37.607,33.057c0,0,1.117-0.184,1.682-0.259c0.564-0.076-0.512,0.814-0.512,0.814L37.607,33.057z"/>
	<path fill="none" stroke="#BBBFBF" stroke-width="2.5" stroke-miterlimit="10" d="M38.275,60.051
		c-13.479,0-24.405-10.926-24.405-24.405c0-13.479,10.927-24.404,24.405-24.404c9.055,0,16.959,4.932,21.17,12.257"/>
	<path fill="none" stroke="#BBBFBF" stroke-width="2.5" stroke-miterlimit="10" d="M15.92,25.843c0,0,0.273,13.786,16.247,23.396"/>
	<path fill="none" stroke="#BBBFBF" stroke-width="2.5" stroke-miterlimit="10" d="M26.06,14.515c0,0-0.351,12.114,12.365,22.178"/>
	<path fill="none" stroke="#BBBFBF" stroke-width="2.5" stroke-miterlimit="10" d="M25.882,57.578c0,0,12.999-8.27,15.284-23.55"/>
	<path fill="none" stroke="#BBBFBF" stroke-width="2.5" stroke-miterlimit="10" d="M38.402,62.178c0,0,12.833-7.002,15.438-25.484"
		/>
	<path fill="none" stroke="#BBBFBF" stroke-width="2.5" stroke-miterlimit="10" d="M40.85,35.373c0,0,10.738-2.854,23.199,5.289"/>
	<path fill="none" stroke="#BBBFBF" stroke-width="2.5" stroke-miterlimit="10" d="M29.388,12.91c0,0,0.368,11.31,9.901,19.887"/>
	<path fill="none" stroke="#BBBFBF" stroke-width="2.5" stroke-miterlimit="10" d="M33.089,24.126c0,0,15.27-6.906,30.262,3.201"/>
	<path fill="none" stroke="#BBBFBF" stroke-width="2.5" stroke-miterlimit="10" d="M38.042,31.875c0,0,14.692-3.538,26.639,4.818"/>
	<g>
		<g>
			<g>
				<path fill="#BBBFBF" d="M17.562,20.909c0,0-0.511,0.743-0.792,1.151c-0.28,0.408-0.576,0.981-0.576,0.981
					c0.689,5.506,2.718,10.813,5.899,15.406c1.581,2.283,3.426,4.368,5.482,6.194c1.705,1.516,3.568,2.865,5.539,4.012l0.787-1.352
					c-1.881-1.094-3.66-2.383-5.287-3.828c-1.964-1.746-3.725-3.736-5.235-5.917c-3.226-4.656-5.21-10.078-5.741-15.681
					L17.562,20.909L17.562,20.909z"/>
			</g>
		</g>
		<g>
			<path fill="#1B224D" d="M33.115,48.652c-1.971-1.146-3.834-2.496-5.539-4.012c-2.057-1.826-3.901-3.911-5.482-6.194
				c-3.182-4.593-5.21-9.899-5.899-15.406c0,0,0.296-0.573,0.576-0.981c0.281-0.408,0.792-1.151,0.792-1.151l0.076,0.966
				c0.531,5.603,2.516,11.025,5.741,15.681c1.511,2.18,3.271,4.17,5.235,5.917c1.627,1.445,3.406,2.734,5.287,3.828L33.115,48.652z"
				/>
		</g>
		<g>
			<path fill="#1B224D" d="M22.858,55.896c5.247-3.006,9.767-7.553,12.581-12.938c1.178-2.255,2.082-4.638,2.688-7.083
				c0.253-1.022,0.432-1.941,0.58-2.982l1.622-0.253c-0.156,1.09-0.48,2.525-0.746,3.596c-0.633,2.561-1.581,5.057-2.815,7.418
				c-2.88,5.514-7.208,10.076-12.537,13.219c0,0-0.541-0.283-0.819-0.516S22.858,55.896,22.858,55.896z"/>
		</g>
		<g>
			<path fill="#1B224D" d="M63.457,39.197l-0.365-0.293c-4.227-2.789-9.209-4.547-14.354-5.045
				c-2.529-0.244-5.078-0.188-7.572,0.168l-2.229,0.348c0,0-1.27-1.076-0.786-1.305c0.485-0.228,2.792-0.527,2.792-0.527
				c2.621-0.375,5.291-0.433,7.939-0.178c5.254,0.508,10.346,2.273,14.756,5.108"/>
		</g>
		<g>
			<path fill="#1B224D" d="M61.766,25.843c-0.178-0.102-0.566-0.351-0.984-0.621c-0.488-0.314-1.096-0.705-1.301-0.81
				c-2.354-1.218-4.844-2.15-7.396-2.771c-2.529-0.615-5.135-0.928-7.742-0.93c-0.008,0-0.016,0-0.023,0
				c-4.762,0-9.571,1.057-13.907,3.059l-0.655-1.42c4.54-2.096,9.576-3.203,14.562-3.203c0.01,0,0.016,0,0.023,0
				c2.732,0.002,5.463,0.33,8.111,0.975c2.676,0.65,5.281,1.626,7.746,2.901c0.066,0.034,0.148,0.08,0.244,0.137"/>
		</g>
		<g>
			<path fill="#1B224D" d="M37.822,61.094c4.362-3.014,7.979-7.002,10.581-11.697c1.346-2.428,2.396-5.004,3.125-7.658
				c0.721-2.631,1.127-5.349,1.207-8.081l-1.562-0.046c-0.078,2.607-0.467,5.202-1.154,7.712c-0.693,2.535-1.699,4.996-2.984,7.314
				c-2.816,5.084-6.883,9.301-11.817,12.277l1.257,0.129L37.822,61.094z"/>
		</g>
		<g>
			<path fill="#1B224D" d="M38.378,35.373c-1.815-1.603-4.284-4.079-5.768-6.219c-3.385-4.887-5.377-10.292-5.803-16.19l1.444-0.675
				c0.407,5.631,2.36,11.344,5.593,16.01c1.406,2.03,3.776,4.404,5.526,5.949L38.378,35.373z"/>
		</g>
	</g>
	<g>
		<path fill="#1B224D" d="M38.271,8.305c-15.124,0-27.429,12.305-27.429,27.429c0,15.125,12.305,27.43,27.429,27.43
			c15.125,0,27.43-12.305,27.43-27.43C65.701,20.609,53.396,8.305,38.271,8.305z M38.271,61.164c-14.044,0-25.43-11.385-25.43-25.43
			c0-14.044,11.386-25.43,25.43-25.43c14.045,0,25.43,11.385,25.43,25.43C63.701,49.779,52.316,61.164,38.271,61.164z"/>
	</g>
</g>
</svg>
