<?xml version="1.0" encoding="utf-8"?>
<!-- Generator: Adobe Illustrator 17.0.0, SVG Export Plug-In . SVG Version: 6.00 Build 0)  -->
<!DOCTYPE svg PUBLIC "-//W3C//DTD SVG 1.1//EN" "http://www.w3.org/Graphics/SVG/1.1/DTD/svg11.dtd">
<svg version="1.1" id="Capa_1" xmlns="http://www.w3.org/2000/svg" xmlns:xlink="http://www.w3.org/1999/xlink" x="0px" y="0px"
	 width="76.543px" height="76.543px" viewBox="0 0 76.543 76.543" enable-background="new 0 0 76.543 76.543" xml:space="preserve">
<g>
	
		<linearGradient id="SVGID_1_" gradientUnits="userSpaceOnUse" x1="-1480.6261" y1="1287.6212" x2="-1479.7305" y2="1372.2546" gradientTransform="matrix(-1 0 0 -1 -1442.0197 1357.543)">
		<stop  offset="0.0105" style="stop-color:#0D1221"/>
		<stop  offset="0.0807" style="stop-color:#0F1527"/>
		<stop  offset="0.6703" style="stop-color:#1D2A57"/>
		<stop  offset="0.9634" style="stop-color:#23326A"/>
	</linearGradient>
	<path fill="url(#SVGID_1_)" d="M76.509,61.335c0,8.38-6.794,15.174-15.174,15.174H15.208c-8.38,0-15.174-6.794-15.174-15.174
		V15.208c0-8.38,6.793-15.174,15.174-15.174h46.128c8.38,0,15.174,6.794,15.174,15.174V61.335z"/>
	<path fill="none" stroke="#1B224D" stroke-width="1.5" stroke-miterlimit="10" d="M42.935,37.712"/>
	<g>
		<g>
			<path fill="none" stroke="#4079B5" stroke-width="2" stroke-miterlimit="10" d="M33.018,55.323c-2.218,0-4.24-0.914-4.807-1.194
				L9.315,45.538c-3.108-1.89-4.964-5.181-4.964-8.805c0-5.684,4.624-10.308,10.308-10.308c0.648,0,1.261,0,7.316,2.53l17.599-7.734
				l32.616,15.063L38.639,53.642C37.929,54.085,35.403,55.323,33.018,55.323z M10.232,43.926l18.774,8.529
				c0.366,0.181,2.149,1.015,4.012,1.015c1.798,0,3.947-0.969,4.707-1.439l30.251-15.654L39.557,23.252l-17.564,7.718l-0.366-0.154
				c-6.055-2.539-6.648-2.539-6.967-2.539c-4.662,0-8.455,3.793-8.455,8.455C6.205,39.686,7.709,42.371,10.232,43.926z
				 M33.018,51.616c-1.356,0-2.832-0.633-3.155-0.803l-18.725-8.506c-1.929-1.22-3.08-3.304-3.08-5.575
				c0-3.571,2.904-6.532,6.473-6.601l0.117-0.002l0.114,0.027c0.785,0.185,3.229,1.136,6.879,2.677l0.367,0.155l17.529-7.703
				l24.222,11.187L36.715,50.478C36.264,50.776,34.383,51.616,33.018,51.616z M12.077,40.708l18.602,8.442
				c0.299,0.154,1.46,0.613,2.339,0.613c0.843,0,2.388-0.641,2.711-0.854l0.23-0.139l23.584-12.204l-20.024-9.248l-17.496,7.689
				l-1.102-0.466c-4.641-1.959-6.082-2.438-6.478-2.552c-2.51,0.114-4.532,2.217-4.532,4.744
				C9.912,38.344,10.72,39.825,12.077,40.708z"/>
		</g>
	</g>
	<g>
		<path fill="none" stroke="#EC5D25" stroke-width="2" stroke-miterlimit="10" d="M33.018,54.396c-2.04,0-3.939-0.872-4.396-1.098
			L9.797,44.746c-2.829-1.72-4.518-4.716-4.518-8.014c0-5.173,4.209-9.381,9.381-9.381c0.491,0,1.098,0,7.325,2.611l17.581-7.726
			L70.084,36.33L38.213,52.819C37.433,53.301,35.088,54.396,33.018,54.396z M11.634,41.524l18.663,8.47
			c0.214,0.113,1.561,0.696,2.722,0.696c1.112,0,2.828-0.748,3.221-1.007l0.196-0.118l25.216-13.046L39.528,26.301l-17.512,7.696
			l-0.735-0.31c-5.05-2.132-6.392-2.548-6.732-2.628c-3.079,0.059-5.564,2.582-5.564,5.674C8.985,38.691,9.973,40.474,11.634,41.524
			z"/>
	</g>
	<path fill="none" stroke="#1B224D" stroke-width="4" stroke-miterlimit="10" d="M37.286,51.211l28.581-14.787l-26.32-12.156
		l-17.546,7.711l0,0c-3.662-1.546-6.758-2.775-7.342-2.775c-4.158,0-7.528,3.37-7.528,7.528c0,2.728,1.456,5.11,3.628,6.43
		l18.648,8.457c0.3,0.165,1.979,0.923,3.611,0.923C34.65,52.543,36.779,51.562,37.286,51.211z"/>
	<polyline fill="#FFFFFF" points="22.002,31.979 39.548,24.269 65.868,36.424 35.367,52.205 	"/>
	<polygon fill="#BBBFBF" points="39.548,24.269 36.646,25.544 60.204,36.424 33.924,50.021 35.367,52.205 65.868,36.424 	"/>
	<path fill="#FFFFFF" d="M14.66,29.204c-4.158,0-7.528,3.37-7.528,7.528c0,2.728,1.456,5.109,3.628,6.43l19.594,8.886l5.704-13.913
		C36.058,38.136,16.236,29.204,14.66,29.204z"/>
	<path fill="#BBBFBF" d="M8.755,39.508c0-4.158,2.813-7.504,6.971-7.504l19.171,8.962l1.16-2.83L15.2,29.204
		c-4.595-0.268-8.068,3.37-8.068,7.528c0,1.967,0.765,3.747,2.002,5.086C8.897,41.089,8.755,40.317,8.755,39.508z"/>
	<circle fill="#FFFFFF" stroke="#1B224D" stroke-width="1.5" stroke-miterlimit="10" cx="33.018" cy="45.021" r="7.522"/>
	<circle fill="none" stroke="#1B224D" stroke-width="1.5" stroke-miterlimit="10" cx="33.241" cy="44.843" r="2.765"/>
	<path fill="#FFFFFF" d="M22.002,31.979"/>
	<path fill="#FFFFFF" d="M22.002,31.979"/>
	<line fill="#FFFFFF" stroke="#1B224D" stroke-width="1.5" stroke-miterlimit="10" x1="15.2" y1="28.356" x2="37.282" y2="38.824"/>
</g>
</svg>
