<?xml version="1.0" encoding="utf-8"?>
<!-- Generator: Adobe Illustrator 16.0.0, SVG Export Plug-In . SVG Version: 6.00 Build 0)  -->
<!DOCTYPE svg PUBLIC "-//W3C//DTD SVG 1.1//EN" "http://www.w3.org/Graphics/SVG/1.1/DTD/svg11.dtd">
<svg version="1.1" id="Capa_1" xmlns="http://www.w3.org/2000/svg" xmlns:xlink="http://www.w3.org/1999/xlink" x="0px" y="0px"
	 width="537.383px" height="327.502px" viewBox="127.309 142.249 537.383 327.502"
	 enable-background="new 127.309 142.249 537.383 327.502" xml:space="preserve">
<g>
	<g>
		<polyline fill="#FFFFFF" points="148.429,371.93 136.711,399.804 327.336,399.804 338.319,371.715 		"/>
	</g>
	<g>
		<g>
			<g>
				<path fill="#4179B6" d="M245.439,366.693h-85.144l28.27-69.548c-6.367-5.049-27.735-23.415-32.408-27.436l-4.762-4.098H254.36
					l-13.57,36.902l27.387-36.902h48.852v25.878l10.419-25.878l67.263,0.006c2.295,0.071,4.47,0.36,6.524,0.862l0.34-0.868H640.46
					l-4.807,4.104c-3.165,2.703-29.199,24.914-35.478,29.702v67.228h-53.325v-11.318l-6.761,0.048l-16.226,11.271H247.06
					L245.439,366.693z M504.383,299.211l-1.825-3.669c-0.127-0.254-0.264-0.503-0.411-0.748l-2.142-3.538h9.906l-2.76,3.72
					c-0.19,0.257-0.372,0.52-0.546,0.791L504.383,299.211z"/>
				<path fill="#FFFFFF" d="M245.504,370.968h-91.56l29.469-72.498c-8.337-6.857-26.194-22.208-30.044-25.521l-13.494-11.613
					h120.611l-5.441,14.798l10.982-14.798h55.277v8.093l3.259-8.093l70.281,0.008c1.255,0.039,2.49,0.137,3.698,0.294l0.118-0.302
					h253.392l-13.621,11.629c-2.759,2.357-25.574,21.826-33.979,28.532v69.422h-61.874V359.63l-0.815,0.006l-16.238,11.282H247.125
					L245.504,370.968z M166.647,362.419h78.727l1.686-0.049h275.147l16.213-11.261l12.706-0.09v11.35h44.777V297.3l1.683-1.283
					c4.482-3.418,20.275-16.761,31.282-26.133H404.492l-0.641,1.634l-3.633-0.888c-1.744-0.427-3.62-0.675-5.576-0.74l-64.309-0.006
					l-17.58,43.663v-43.663h-42.427l-43.792,59.007l21.698-59.007H162.92c7.823,6.715,23.14,19.819,28.301,23.911l2.51,1.991
					L166.647,362.419z M503.903,307.842l-5.172-10.395c-0.074-0.149-0.156-0.298-0.244-0.443l-6.064-10.022h25.98l-7.819,10.541
					c-0.132,0.178-0.261,0.366-0.386,0.559L503.903,307.842z"/>
			</g>
			<g>
				<path fill="#EB5B25" d="M245.51,371.355h-92.144l29.579-72.769c-8.436-6.95-26.014-22.061-29.83-25.345l-14.287-12.296h122.215
					l-4.702,12.787l9.491-12.787h55.861v6.475l2.606-6.475l70.556,0.008c1.163,0.036,2.311,0.122,3.435,0.259l0.104-0.267h254.711
					l-14.422,12.314c-2.744,2.343-25.314,21.603-33.843,28.422v69.625h-62.651v-11.285h-0.274l-16.24,11.285H247.129L245.51,371.355
					z M167.224,362.03h78.145l1.691-0.05h274.996l16.212-11.258l13.247-0.094v11.352h43.999v-64.873l1.836-1.4
					c4.365-3.329,19.506-16.112,30.462-25.435H404.757l-0.667,1.704l-3.962-0.969c-1.717-0.42-3.563-0.665-5.491-0.729
					l-64.039-0.006l-18.231,45.28v-45.28h-41.842l-45.284,61.016l22.437-61.016h-83.708c8.021,6.882,22.504,19.262,27.493,23.218
					l2.739,2.171L167.224,362.03z M503.859,308.627l-5.477-11.007c-0.068-0.14-0.146-0.279-0.229-0.417l-6.42-10.61h27.441
					l-8.278,11.161c-0.127,0.172-0.253,0.352-0.371,0.539L503.859,308.627z"/>
				<path fill="#FFFFFF" d="M147.537,374.119l30.27-74.241c-9.107-7.597-24.286-20.648-27.479-23.396l-23.019-19.81h537.383
					l-23.234,19.839c-3.962,3.383-23.164,19.755-32.343,27.215v70.4L147.537,374.119z M159.718,367.082h85.728l1.683-0.049h276.886
					l16.23-11.275l6.218-0.035v11.311h54.104v-67.404l1.604-1.283c8.211-6.566,29.543-24.755,33.736-28.334l5.608-4.789H401.309
					l-0.249,0.635l-3.286-0.399c-0.974-0.118-1.979-0.195-2.986-0.228l-67.602-0.008l-9.768,24.259v-24.259h-49.436l-25.895,34.891
					l12.831-34.891h-104.57l5.556,4.781c3.485,3,21.299,18.315,29.76,25.286l2.425,1.998L159.718,367.082z M245.431,366.305h-84.559
					l28.163-69.284l-0.228-0.181c-5.02-3.981-19.46-16.322-27.621-23.324l-8.763-7.518h101.381l-14.309,38.912l28.879-38.912h48.267
					v27.494l11.071-27.494l67.067,0.008c2.221,0.074,4.361,0.359,6.363,0.848l0.331,0.081l0.367-0.938H639.43l-8.848,7.529
					c-5.873,4.998-25.438,21.612-30.64,25.579l-0.153,0.117v67.032H547.24v-11.322l-7.301,0.053l-16.226,11.269H247.123
					L245.431,366.305z M173.575,357.756h71.73l1.754-0.049h273.337l16.199-11.247l19.192-0.136v11.383h35.451v-62.713l3.517-2.684
					c3.42-2.608,13.481-11.057,21.409-17.762H407.673l-0.967,2.47l-7.595-1.857c-1.411-0.345-2.941-0.549-4.549-0.606l-61.078-0.006
					l-25.394,63.065v-63.065h-35.417l-61.689,83.12l30.566-83.12h-66.013c7.25,6.185,15.18,12.898,18.58,15.595l5.249,4.162
					L173.575,357.756z M503.379,317.257l-8.823-17.733c-0.018-0.037-0.038-0.072-0.059-0.107l-10.347-17.098h43.517L514.329,300.3
					c-0.065,0.089-0.138,0.194-0.208,0.303L503.379,317.257z M499.316,290.868l2.494,4.123c0.146,0.239,0.279,0.483,0.4,0.728
					l2.129,4.278l2.593-4.02c0.165-0.257,0.344-0.514,0.522-0.757l3.228-4.352H499.316z"/>
			</g>
		</g>
	</g>
	<g>
		<g>
			<g>
				<path fill="#4179B6" d="M245.439,366.693h-85.144l28.27-69.548c-6.367-5.049-27.735-23.415-32.408-27.436l-4.762-4.098H254.36
					l-13.57,36.902l27.387-36.902h48.852v25.878l10.419-25.878l67.263,0.006c2.295,0.071,4.47,0.36,6.524,0.862l0.34-0.868H640.46
					l-4.807,4.104c-3.165,2.703-29.199,24.914-35.478,29.702v67.228h-53.325v-11.318l-6.761,0.048l-16.226,11.271H247.06
					L245.439,366.693z M504.383,299.211l-1.825-3.669c-0.127-0.254-0.264-0.503-0.411-0.748l-2.142-3.538h9.906l-2.76,3.72
					c-0.19,0.257-0.372,0.52-0.546,0.791L504.383,299.211z"/>
			</g>
			<g>
				<path fill="#EB5B25" d="M153.879,369.852l29.067-71.265c-8.436-6.95-26.014-22.061-29.83-25.345l-14.287-12.296h122.215
					l-4.702,12.787l9.491-12.787h55.861v6.475l2.606-6.475h74.094h254.711l-14.422,12.314c-2.744,2.343-25.314,21.603-33.843,28.422
					v68.169H153.879L153.879,369.852z M167.224,362.03h78.145l1.691-0.05h274.996l16.212-11.258l13.247-0.094v11.352h43.999v-64.873
					l1.836-1.4c4.365-3.329,19.506-16.112,30.462-25.435H404.757l-0.667,1.704l-3.962-0.969c-1.717-0.42-3.563-0.665-5.491-0.729
					l-64.039-0.006l-18.231,45.28v-45.28h-41.842l-45.284,61.016l22.437-61.016h-83.708c8.021,6.882,22.504,19.262,27.493,23.218
					l2.739,2.171L167.224,362.03z M503.859,308.627l-5.477-11.007c-0.068-0.14-0.146-0.279-0.229-0.417l-6.42-10.61h27.441
					l-8.278,11.161c-0.127,0.172-0.253,0.352-0.371,0.539L503.859,308.627z"/>
			</g>
		</g>
	</g>
	<g>
		<g>
			<g>
				<g>
					<polygon fill="#4179B6" points="321.589,391.527 150.82,391.527 164.503,357.963 332.538,364.241 					"/>
				</g>
			</g>
			<g>
				<g>
					<path fill="#EB5B25" d="M324.633,395.419H143.276l16.364-39.498l179.125,4.276L324.633,395.419z M157.178,387.254h161.521
						l7.61-18.969l-158.977-5.939L157.178,387.254z"/>
				</g>
			</g>
		</g>
	</g>
	<g>
		<g>
			<polygon fill="#4179B6" points="321.589,391.527 150.82,391.527 164.503,357.963 332.538,364.241 			"/>
		</g>
	</g>
	<g>
		<g>
			<line fill="none" x1="459.304" y1="273.836" x2="425.795" y2="273.934"/>
		</g>
		<g>
			
				<rect x="440.203" y="257.125" transform="matrix(-0.0029 -1 1 -0.0029 169.9538 717.2155)" fill="#5E88BB" width="4.663" height="33.509"/>
		</g>
	</g>
	<g>
		<g>
			<g>
				<g>
					<polygon fill="#1B224D" points="546.939,176.768 445.554,267.272 635.02,267.272 442.794,436.092 					"/>
				</g>
			</g>
		</g>
		<g>
			<g>
				<g>
					<path fill="#EC5C24" d="M446.166,439.854l-15.223,12.622l72.177-180.151H432.31l127.244-113.348l-7.927,19.675l-33.562,83.571
						h130.159L446.166,439.854z M514.007,272.324L455.556,417.87l166.261-145.546H514.007z M458.799,262.221h48.379l27.036-67.322
						L458.799,262.221z"/>
				</g>
				<g>
					<path fill="#FFFFFF" d="M423.505,462.68l75.021-187.247h-74.379l143.252-127.607l-12.889,31.987l-31.847,79.3h133.686
						L448.15,442.247L423.505,462.68z M440.474,269.216h67.24L438.38,442.272l5.757-4.773L640.099,265.33H513.466l38.244-95.204
						L440.474,269.216z M447.703,429.084l64.203-159.868h118.036L447.703,429.084z M516.109,275.433L463.41,406.656l150.281-131.223
						H516.109z M509.279,265.33h-58.63l91.396-81.588L509.279,265.33z M466.949,259.113h38.127l21.307-53.057L466.949,259.113z"/>
				</g>
			</g>
			<g>
				<g>
					<path fill="#EC5C24" d="M427.224,457.58l73.599-183.701h-72.594L563.477,153.4l-10.407,25.831l-32.706,81.436h131.923
						L447.203,441.011L427.224,457.58z M436.392,270.77h69.025l-70.755,176.604l10.512-8.716l198.988-174.882H515.765l39.867-99.224
						L436.392,270.77z M451.629,423.477l61.327-152.707h112.923L451.629,423.477z M515.058,273.878l-55.575,138.384l158.271-138.384
						H515.058z M508.229,263.775h-53.505l83.405-74.456L508.229,263.775z M462.874,260.667h43.252l24.172-60.189L462.874,260.667z"
						/>
				</g>
				<g>
					<path fill="#FFFFFF" d="M419.009,469.751l36.951-94.323l1.197-3.129l39.07-95.312h-78.629l153.723-134.738l-15.369,38.144
						l-29.266,77.165h133.726L528.718,375.271L419.009,469.751z M444.555,267.661h65.456l-67.912,169.507l1.044-0.865
						l192.895-169.419h-124.87l36.643-91.201L444.555,267.661z M443.775,434.691l67.078-167.03h123.15L443.775,434.691z
						 M517.16,276.987l-49.824,124.062l142.292-124.062H517.16z M510.329,266.884h-63.755l99.386-88.722L510.329,266.884z
						 M471.024,257.558h33l18.442-45.923L471.024,257.558z"/>
				</g>
			</g>
		</g>
		<g>
			<g>
				<g>
					<path fill="#EC5C24" d="M446.166,439.854l-15.223,12.622l72.177-180.151H432.31l127.244-113.348l-7.927,19.675l-33.562,83.571
						h130.159L446.166,439.854z M514.007,272.324L455.556,417.87l166.261-145.546H514.007z M458.799,262.221h48.379l27.036-67.322
						L458.799,262.221z"/>
				</g>
			</g>
			<g>
				<g>
					<path fill="#EC5C24" d="M427.224,457.58l73.599-183.701h-72.594L563.477,153.4l-10.407,25.831l-32.706,81.436h131.923
						L447.203,441.011L427.224,457.58z M436.392,270.77h69.025l-70.755,176.604l10.512-8.716l198.988-174.882H515.765l39.867-99.224
						L436.392,270.77z M451.629,423.477l61.327-152.707h112.923L451.629,423.477z M515.058,273.878l-55.575,138.384l158.271-138.384
						H515.058z M508.229,263.775h-53.505l83.405-74.456L508.229,263.775z M462.874,260.667h43.252l24.172-60.189L462.874,260.667z"
						/>
				</g>
			</g>
		</g>
	</g>
	<g>
		<g>
			<g>
				<polygon fill="#1B224D" points="546.939,176.768 445.554,267.272 635.02,267.272 442.794,436.092 				"/>
			</g>
		</g>
		<g>
			<g>
				<path fill="#4179B6" d="M444.349,437.829l-5.968,5.056l68.762-173.281h-67.7l112.87-100.337l-3.21,8.369l-35.062,87.305h127.074
					L444.349,437.829z M512.168,269.604l-63.485,158.078l180.242-158.078H512.168z M451.667,264.941h57.349l32.051-79.806
					L451.667,264.941z"/>
			</g>
		</g>
	</g>
	<g>
		<g>
			<path fill="#1B224D" d="M553.379,267.272h-58.655h-22.175h-68.503l-0.534,1.363c-2.267-0.753-4.884-1.263-7.92-1.357
				l-65.688-0.006l-14.326,35.579v-35.579h-23.016h-22.33l-36.335,48.958l18.003-48.958h-93.34c0,0,31.286,26.925,33.72,28.425
				l-27.638,67.994h81.679l0.019-0.049h10.214h10.362H523.84l18.351,0.936l4.656-0.887l3.216-0.049h48.662v-66.083
				c3.071-1.919,36.295-30.287,36.295-30.287H553.379L553.379,267.272z M506.159,292.918c-0.22,0.297-0.431,0.602-0.634,0.916
				c-0.155-0.311-0.323-0.616-0.506-0.916H506.159z"/>
		</g>
		<g>
			<path fill="#4179B6" d="M246.319,366.023h-85.144l28.27-69.547c-6.368-5.049-27.735-23.415-32.408-27.436l-4.762-4.098H255.24
				l-13.57,36.902l27.387-36.902h48.851v25.878l10.419-25.878l67.263,0.006c2.295,0.071,6.864-0.006,6.864-0.006H641.34
				l-4.807,4.104c-3.165,2.703-29.199,24.914-35.478,29.702v67.229h-53.324h-23.233H247.94L246.319,366.023z M168.104,361.361
				h76.613l0.019-0.049l278.221-0.08l73.436-0.01v-62.857c0,0,19.676-17.92,32.051-28.76H331.477l-13.736,34.118l-4.494-0.871
				v-33.248h-41.843l-35.636,48.017l-4.06-2.194l16.85-45.823H164.85c11.819,10.138,27.098,23.127,28.654,24.111l1.648,1.042
				l-0.714,1.819L168.104,361.361z M505.263,298.542l-1.825-3.669c-0.127-0.254-0.264-0.503-0.411-0.748l-2.142-3.538h9.906
				l-2.76,3.72c-0.19,0.257-0.372,0.52-0.546,0.791L505.263,298.542z"/>
		</g>
	</g>
	<g>
		<g>
			<path fill="#FFFFFF" d="M237.562,350.869h-53.869l24.455-60.163c0.131-0.361-16.818-10.611-16.818-10.611h11.634h30.556
				l-18.975,51.603h30.508L237.562,350.869z"/>
		</g>
	</g>
	<g>
		<g>
			<path fill="#FFFFFF" d="M302.754,280.095v70.726h-23.016v-11.336h-21.636l-8.22,11.389l-25.688-0.053l52.489-70.726H302.754z
				 M271.261,321.102h8.477v-12.52L271.261,321.102z"/>
		</g>
	</g>
	<g>
		<g>
			<path fill="#FFFFFF" d="M401.155,284.334c1.873,2.826,1.938,6.456,0.196,10.892l-8.23,22.572
				c-1.939,4.731-5.521,7.82-10.744,9.267l3.598,23.805h-23.903l-2.268-22.77h-7.984l-8.773,22.77h-22.819l9.709-25.234
				l10.104-25.826c0.131-0.361,0.148-0.607,0.049-0.739c-0.099-0.164-0.345-0.247-0.739-0.247h-8.328l7.541-18.729h53.522
				C396.358,280.227,399.382,281.641,401.155,284.334z M362.861,299.268l-3.943,10.054h14.49l4.041-10.054H362.861z"/>
		</g>
	</g>
	<g>
		<g>
			<path fill="#FFFFFF" d="M450.694,350.869H394.41l19.861-50.665c0.132-0.361,0.148-0.608,0.05-0.739
				c-0.1-0.165-0.346-0.247-0.739-0.247h-8.28l7.491-19.123h63.135l-7.492,19.123h-29.473l-2.612,6.456H464l-7.491,19.319H428.86
				l-2.464,6.26h31.05L450.694,350.869z"/>
		</g>
	</g>
	<g>
		<path fill="#FFFFFF" d="M496.535,350.869H474.11l19.812-50.616c0.164-0.361,0.197-0.608,0.099-0.739
			c-0.099-0.165-0.345-0.247-0.738-0.247h-19.469l7.492-19.172h61.656l-7.492,19.172h-16.165c-1.676,0-2.81,0.773-3.4,2.316
			L496.535,350.869z"/>
	</g>
	<g>
		<g>
			<path fill="#FFFFFF" d="M602.611,280.095h-11.635h-5.074H560.42h-0.59l-53.04,70.726h25.514l8.395-11.336h22.188v11.336h23.017
				v-60.232C587.343,289.414,602.611,280.095,602.611,280.095z M562.886,321.102h-8.477l8.477-12.52V321.102z"/>
		</g>
	</g>
	<g>
		<g>
			<polygon fill="#BCC0C1" points="183.693,350.869 208.149,290.706 191.331,280.095 191.331,280.146 215.151,289.505 
				191.102,346.286 246.608,346.286 249.855,350.869 			"/>
		</g>
	</g>
	<g>
		<g>
			<polygon fill="#BCC0C1" points="258.048,339.546 261.278,334.962 274.887,334.962 279.689,339.546 			"/>
		</g>
	</g>
	<g>
		<g>
			<polygon fill="#BCC0C1" points="351.826,328.119 353.854,323.535 366.283,323.535 366.825,328.119 			"/>
		</g>
	</g>
	<g>
		<g>
			<polyline fill="#BCC0C1" points="296.215,287.876 295.714,346.286 283.427,346.286 279.533,350.869 303.123,350.869 
				302.754,280.095 			"/>
		</g>
	</g>
	<g>
		<g>
			<polygon fill="#BCC0C1" points="279.958,300.754 279.738,308.582 271.581,321.075 279.738,321.102 278.361,324.646 
				265.916,324.579 			"/>
		</g>
	</g>
	<g>
		<g>
			<polygon fill="#BCC0C1" points="563.088,300.754 562.868,308.582 554.711,321.075 562.868,321.102 561.491,324.646 
				549.045,324.579 			"/>
		</g>
	</g>
	<g>
		<g>
			<polygon fill="#BCC0C1" points="540.698,339.546 544.212,334.962 558.06,334.962 562.862,339.546 			"/>
		</g>
	</g>
	<g>
		<g>
			<polyline fill="#BCC0C1" points="579.364,289.848 578.493,346.236 567.508,346.286 562.886,350.869 585.902,350.82 
				585.982,290.6 602.611,280.21 			"/>
		</g>
	</g>
	<g>
		<g>
			<polygon fill="#BCC0C1" points="358.942,309.203 356.896,314.729 376.531,314.965 384.98,293.57 364.775,293.57 362.861,299.268 
				376.799,299.332 373.262,309.203 			"/>
		</g>
	</g>
	<g>
		<g>
			<polygon fill="#1B224D" points="455.138,261.96 445.192,270.553 505.296,273.885 512.985,255.056 			"/>
		</g>
	</g>
	<g>
		<g>
			<polygon fill="#1B224D" points="472.379,368.905 476.335,358.668 518.799,357.561 521.977,357.561 526.604,359.493 
				510.354,373.596 			"/>
		</g>
	</g>
	<g>
		<g>
			<path fill="#BCC0C1" d="M346.832,298.838l1.883-4.584h-12.887l-4.801,4.584h7.966l0.346,0.008c0,0,0.607-0.036,0.753,0.255
				c0.063,0.125,0.026,0.39-0.043,0.59l-0.098,0.252v0.001l0,0l-9.148,23.589l-10.538,27.365l22.813-0.024l-3.247-4.584h-12.157
				l19.123-47.452H346.832z"/>
		</g>
	</g>
	<g>
		<path fill="#BCC0C1" d="M490.374,299.253l-16.56,0.015l6.351-5.062l16.395,0.02l-2.442,5.519c0,0,0.055-0.431-0.835-0.477
			S490.374,299.253,490.374,299.253z"/>
	</g>
	<g>
		<g>
			<polygon fill="#BCC0C1" points="438.965,299.218 467.946,299.253 463.922,294.669 443.309,294.669 			"/>
		</g>
	</g>
	<g>
		<g>
			<polygon fill="#BCC0C1" points="428.861,324.994 456.418,325.037 452.233,320.451 431.848,320.243 			"/>
		</g>
	</g>
	<g>
		<g>
			<path fill="#BCC0C1" d="M467.277,285.335c0.061,0.126,0.055-0.004-0.016,0.196l-0.097,0.252v0.001l0,0l-5.859,13.469h7.16
				l7.464-19.158"/>
		</g>
	</g>
	<polyline fill="#BCC0C1" points="534.467,285.264 528.418,299.253 535.578,299.253 542.961,280.095 	"/>
	<g>
		<g>
			<path fill="#BCC0C1" d="M455.349,310.915c0.062,0.126,0.056-0.004-0.015,0.196l-0.097,0.252v0.001l0,0l-5.859,13.469h7.188
				l7.437-19.158"/>
		</g>
	</g>
	<g>
		<g>
			<path fill="#BCC0C1" d="M448.765,336.902c0.062,0.125-5.972,13.918-5.972,13.918l7.901,0.049l6.752-19.616"/>
		</g>
	</g>
	<g>
		<g>
			<polyline fill="#BCC0C1" points="359.436,325.379 361.943,350.893 385.976,350.869 381.174,346.261 369.384,346.261 
				366.283,324.273 			"/>
		</g>
	</g>
	<g>
		<g>
			<path fill="#BCC0C1" d="M401.933,346.261l21.042-52.036h-9.861l3.547-9.059l-3.865-5.07l-7.492,19.123
				c0,0,8.904,0.009,9.02,0.247c0.061,0.126,0.055-0.004-0.016,0.196l-0.098,0.252v0.001l0,0L394.41,350.87l56.28,0.036l0.948-4.646
				H401.933z"/>
		</g>
	</g>
	<path fill="#BCC0C1" d="M535.059,299.253l-4.023-4.584h-18.557l-19.56,51.679l-14.135-0.037l-4.674,4.558h22.425l19.423-49.46
		c0.729-1.724,2.273-2.096,2.963-2.157h16.138V299.253z"/>
	<g>
		<g>
			<polygon fill="#BCC0C1" points="272.757,334.962 283.988,334.962 283.988,347.257 279.533,350.869 279.533,339.546 
				272.757,339.546 			"/>
		</g>
	</g>
	<g>
		<g>
			<polygon fill="#BCC0C1" points="556.276,334.962 567.508,334.962 567.508,347.257 562.886,350.869 562.886,339.484 
				556.276,339.546 			"/>
		</g>
	</g>
	<g>
		<g>
			<polygon fill="#1B224D" points="318.051,385.979 158.146,385.979 170.741,354.969 327.669,360.413 			"/>
		</g>
	</g>
	<g>
		<g>
			<polygon fill="#1B224D" points="327.234,361.35 168.373,360.861 158.146,385.979 318.051,385.979 			"/>
		</g>
	</g>
	<g>
		<g>
			<g>
				<path fill="#FFFFFF" d="M179,373.066c-0.927-0.146-1.543-0.414-1.846-0.805c-0.309-0.41-0.35-1.019-0.123-1.826l0.956-2.735
					c0.315-0.802,0.811-1.427,1.486-1.875c0.669-0.435,1.445-0.653,2.328-0.653h5.14c0.909,0,1.521,0.211,1.836,0.635
					c0.315,0.436,0.312,1.063-0.009,1.883l-0.577,1.543h-3.795l0.369-0.945h-2.981l-0.7,1.761l3.597,0.644
					c1.041,0.184,1.726,0.5,2.054,0.947c0.315,0.441,0.325,1.06,0.028,1.854l-0.994,2.649c-0.669,1.698-1.855,2.547-3.559,2.547
					h-5.585c-0.902,0-1.514-0.215-1.836-0.645c-0.315-0.436-0.312-1.066,0.009-1.893l0.54-1.41h3.919l-0.313,0.804h2.981
					l0.691-1.752L179,373.066z"/>
			</g>
		</g>
		<g>
			<g>
				<path fill="#FFFFFF" d="M201.65,365.182c0.745,0.025,1.259,0.265,1.543,0.719c0.29,0.467,0.287,1.076-0.009,1.826l-1.666,4.562
					c-0.511,1.256-1.754,1.872-3.729,1.846h-4.383l-1.771,4.592h-3.824l1.77-4.592l2.045-5.205c0.069-0.197,0.06-0.361-0.028-0.494
					c-0.094-0.138-0.246-0.207-0.454-0.207h-1.136l1.23-3.049h10.411V365.182z M199.161,368.314h-3.531l-1.079,2.764h3.502
					L199.161,368.314z"/>
			</g>
		</g>
		<g>
			<g>
				<path fill="#FFFFFF" d="M215.156,365.172c0.908,0,1.533,0.215,1.874,0.645c0.347,0.441,0.36,1.072,0.038,1.893l-3.152,8.443
					c-0.663,1.703-1.845,2.555-3.549,2.555h-6.256c-0.903,0-1.511-0.218-1.827-0.653c-0.322-0.436-0.322-1.065,0-1.894l3.313-8.442
					c0.315-0.808,0.811-1.436,1.486-1.884c0.669-0.441,1.445-0.663,2.328-0.663L215.156,365.172L215.156,365.172z M206.638,375.555
					h3.37l2.83-7.25h-3.36L206.638,375.555z"/>
			</g>
		</g>
		<g>
			<g>
				<path fill="#FFFFFF" d="M229.922,365.172c0.745,0.025,1.259,0.266,1.543,0.719c0.29,0.461,0.287,1.069-0.009,1.827l-1.666,4.552
					c-0.379,0.922-1.12,1.494-2.224,1.715l0.71,4.703h-4.061l-0.454-4.58h-2.196l-1.76,4.58h-3.814l1.77-4.58l2.035-5.196
					c0.076-0.196,0.066-0.36-0.028-0.492c-0.094-0.133-0.243-0.199-0.445-0.199h-1.136l1.221-3.048H229.922z M222.709,371.059h3.701
					l1.107-2.764h-3.729L222.709,371.059z"/>
			</g>
		</g>
		<g>
			<g>
				<path fill="#FFFFFF" d="M245.123,365.172l-1.221,3.133h-3.01c-0.499,0-0.836,0.23-1.013,0.691l-2.045,5.195l-1.76,4.496h-3.739
					l1.76-4.496l2.035-5.195c0.076-0.189,0.069-0.354-0.019-0.492c-0.094-0.133-0.246-0.199-0.454-0.199h-3.379l1.221-3.133H245.123
					z"/>
			</g>
		</g>
		<g>
			<g>
				<path fill="#FFFFFF" d="M248.152,373.066c-0.927-0.146-1.543-0.414-1.846-0.805c-0.309-0.41-0.35-1.019-0.123-1.826l0.956-2.735
					c0.315-0.802,0.811-1.427,1.486-1.875c0.669-0.435,1.445-0.653,2.328-0.653h5.14c0.909,0,1.521,0.211,1.836,0.635
					c0.315,0.436,0.312,1.063-0.009,1.883l-0.577,1.543h-3.795l0.369-0.945h-2.981l-0.7,1.761l3.597,0.644
					c1.041,0.184,1.726,0.5,2.054,0.947c0.315,0.441,0.325,1.06,0.028,1.854l-0.994,2.649c-0.669,1.698-1.855,2.547-3.559,2.547
					h-5.585c-0.902,0-1.514-0.215-1.836-0.645c-0.315-0.436-0.312-1.066,0.009-1.893l0.54-1.41h3.919l-0.313,0.804h2.981
					l0.691-1.752L248.152,373.066z"/>
			</g>
		</g>
		<g>
			<g>
				<path fill="#FFFFFF" d="M279.406,365.172v13.507h-3.909v-2.29h-4.903l-1.637,2.29h-4.278l10.023-13.507H279.406z
					 M275.496,369.355l-2.754,4.069h2.754V369.355z"/>
			</g>
		</g>
		<g>
			<g>
				<path fill="#FFFFFF" d="M294.134,365.182c0.745,0.025,1.259,0.265,1.543,0.719c0.29,0.467,0.287,1.076-0.009,1.826l-1.666,4.562
					c-0.511,1.256-1.754,1.872-3.729,1.846h-4.382l-1.77,4.592h-3.824l1.77-4.592l2.045-5.205c0.069-0.197,0.06-0.361-0.028-0.494
					c-0.094-0.138-0.246-0.207-0.454-0.207h-1.136l1.23-3.049h10.41V365.182z M291.644,368.314h-3.531l-1.079,2.764h3.502
					L291.644,368.314z"/>
			</g>
		</g>
		<g>
			<g>
				<path fill="#FFFFFF" d="M308.35,365.182c0.745,0.025,1.26,0.265,1.543,0.719c0.29,0.467,0.287,1.076-0.009,1.826l-1.666,4.562
					c-0.511,1.256-1.754,1.872-3.729,1.846h-4.383l-1.77,4.592h-3.824l1.77-4.592l2.045-5.205c0.069-0.197,0.06-0.361-0.028-0.494
					c-0.095-0.138-0.246-0.207-0.454-0.207h-1.136l1.23-3.049h10.411V365.182z M305.861,368.314h-3.531l-1.079,2.764h3.502
					L305.861,368.314z"/>
			</g>
		</g>
	</g>
	<g>
		<polygon fill="#EB5B25" points="604.839,301.683 604.841,314.679 601.057,314.169 601.057,302.078 		"/>
	</g>
	<g>
		<polygon fill="#EC5C24" points="431.908,260.961 444.279,260.93 441.99,263.219 440.502,264.945 428.994,264.927 		"/>
	</g>
	<g>
		<polygon fill="#EB5B25" points="447.378,369.852 464.177,369.852 467.876,365.975 455.277,365.975 		"/>
	</g>
	<polygon fill="#EB5B25" points="535.315,369.836 527.766,369.836 531.541,365.975 539.927,365.975 	"/>
</g>
</svg>
